STARTFONT 2.3
FONT -FontForge-Monofett-Book-R-Normal--24-240-72-72-P-133-ISO10646-1
SIZE 24 72 72  2
FONTBOUNDINGBOX 16 28 0 -4
COMMENT "Generated by fontforge, http://fontforge.sourceforge.net"
COMMENT "Copyright (c) 2011 by vernon adams. All rights reserved."
STARTPROPERTIES 41
FOUNDRY "FontForge"
FAMILY_NAME "Monofett"
WEIGHT_NAME "Book"
SLANT "R"
SETWIDTH_NAME "Normal"
ADD_STYLE_NAME ""
PIXEL_SIZE 24
POINT_SIZE 240
RESOLUTION_X 72
RESOLUTION_Y 72
SPACING "P"
AVERAGE_WIDTH 133
CHARSET_REGISTRY "ISO10646"
CHARSET_ENCODING "1"
FONTNAME_REGISTRY ""
CHARSET_COLLECTIONS "ISO8859-2 ISO8859-9 ISO8859-4 ISO10646-1"
BITS_PER_PIXEL 2
FONT_NAME "Monofett"
FACE_NAME "Monofett"
COPYRIGHT "Copyright (c) 2011 by vernon adams. All rights reserved."
FONT_VERSION "1.000"
FONT_ASCENT 19
FONT_DESCENT 5
UNDERLINE_POSITION -3
UNDERLINE_THICKNESS 1
X_HEIGHT 15
CAP_HEIGHT 15
RAW_ASCENT 799
RAW_DESCENT 200
NORM_SPACE 3
RELATIVE_WEIGHT 40
RELATIVE_SETWIDTH 50
SUPERSCRIPT_X 0
SUPERSCRIPT_Y 11
SUPERSCRIPT_SIZE 15
SUBSCRIPT_X 0
SUBSCRIPT_Y 3
SUBSCRIPT_SIZE 15
FIGURE_WIDTH 14
AVG_LOWERCASE_WIDTH 140
AVG_UPPERCASE_WIDTH 140
ENDPROPERTIES
CHARS 409
STARTCHAR uni000D
ENCODING 13
SWIDTH 144 0
DWIDTH 3 0
BBX 1 1 0 0
BITMAP
00
ENDCHAR
STARTCHAR space
ENCODING 32
SWIDTH 144 0
DWIDTH 3 0
BBX 1 1 0 0
BITMAP
00
ENDCHAR
STARTCHAR exclam
ENCODING 33
SWIDTH 424 0
DWIDTH 10 0
BBX 11 16 0 0
BITMAP
07FE00
2F4FC0
BF4FE0
FF8FF0
FF9FF4
FF9FF4
FF9FF4
FF9FF4
FFEFF4
FFAFF4
FF9FF4
FFFFF4
FFFFF0
BFFFE0
2FFFC0
06FA00
ENDCHAR
STARTCHAR quotedbl
ENCODING 34
SWIDTH 424 0
DWIDTH 10 0
BBX 11 16 0 0
BITMAP
07FE00
2E27C0
BE27E0
FE27F0
FFFFF4
FFFFF4
FFFFF4
FFFFF4
FFFFF4
FFFFF4
FFFFF4
FFFFF4
FFFFF0
BFFFE0
2FFFC0
06FA00
ENDCHAR
STARTCHAR numbersign
ENCODING 35
SWIDTH 482 0
DWIDTH 12 0
BBX 12 16 0 0
BITMAP
07FF90
2FFFF4
BF98FC
FF54BE
FE00BE
FF65FE
FF25FE
FE11FE
FD11FE
FE32FE
FFBBFE
FFFFFE
FFFFFD
BFFFFC
2FFFF4
06FF90
ENDCHAR
STARTCHAR dollar
ENCODING 36
SWIDTH 578 0
DWIDTH 14 0
BBX 14 16 0 0
BITMAP
07FFF900
2FF9FF80
BF401FD0
FE258BE0
FE39FFF0
FE25BFF0
FF400FF0
FFF9CBF0
FF79CBF0
FE154BF0
FF946FF0
FFF9FFF0
FFFFFFE0
BFFFFFD0
2FFFFF80
06FFF900
ENDCHAR
STARTCHAR percent
ENCODING 37
SWIDTH 578 0
DWIDTH 14 0
BBX 14 16 0 0
BITMAP
07FFF900
2EBFFF80
B40D7FD0
F28CBFE0
F448FFF0
FEB9FFF0
FFF696F0
FFF254F0
FFE328F0
FFD741F0
FFFFFBF0
FFFFFFF0
FFFFFFE0
BFFFFFD0
2FFFFF80
06FFF900
ENDCHAR
STARTCHAR ampersand
ENCODING 38
SWIDTH 578 0
DWIDTH 14 0
BBX 14 16 0 0
BITMAP
07FFF900
2F801F80
BF5ABFD0
FF5FFFE0
FF5FD7F0
FFD002F0
FF9A97F0
FF5FD7F0
FF5FD7F0
FF4547F0
FFD55FF0
FFFFFFF0
FFFFFFE0
BFFFFFD0
2FFFFF80
06FFF900
ENDCHAR
STARTCHAR quotesingle
ENCODING 39
SWIDTH 424 0
DWIDTH 10 0
BBX 11 16 0 0
BITMAP
07FE00
2F9FC0
BF9FE0
FF9FF0
FFFFF4
FFFFF4
FFFFF4
FFFFF4
FFFFF4
FFFFF4
FFFFF4
FFFFF4
FFFFF0
BFFFE0
2FFFC0
06FA00
ENDCHAR
STARTCHAR parenleft
ENCODING 40
SWIDTH 483 0
DWIDTH 12 0
BBX 12 16 0 0
BITMAP
07FF90
2F42F4
BF2BFD
FF3FFE
FF3FFE
FF3FFE
FF3FFE
FF3FFE
FF3FFE
FF3FFE
FF2FFE
FF42FE
FFFBFE
BFFFFC
2FFFF4
06FF90
ENDCHAR
STARTCHAR parenright
ENCODING 41
SWIDTH 483 0
DWIDTH 12 0
BBX 12 16 0 0
BITMAP
07FF90
2F42F4
BFA5FD
FFF5FE
FFF9FE
FFF9FE
FFF9FE
FFF9FE
FFF9FE
FFF9FE
FFF5FE
FF42FE
FFEFFE
BFFFFC
2FFFF4
06FF90
ENDCHAR
STARTCHAR asterisk
ENCODING 42
SWIDTH 428 0
DWIDTH 10 0
BBX 11 16 0 0
BITMAP
07FE00
2E76D0
BF13E0
F800B4
FE42B4
FF22F4
FFBBF4
FFFFF4
FFFFF4
FFFFF4
FFFFF4
FFFFF4
FFFFF4
BFFFE0
2FFFC0
06FE00
ENDCHAR
STARTCHAR plus
ENCODING 43
SWIDTH 428 0
DWIDTH 10 0
BBX 11 16 0 0
BITMAP
07FE00
2F8FD0
BF8FE0
F945F4
F945F4
FF8FF4
FF9FF4
FFFFF4
FFFFF4
FFFFF4
FFFFF4
FFFFF4
FFFFF4
BFFFE0
2FFFC0
06FE00
ENDCHAR
STARTCHAR comma
ENCODING 44
SWIDTH 428 0
DWIDTH 10 0
BBX 11 16 0 0
BITMAP
07FE00
2FFFD0
BFFFE0
FFFFF4
FFFFF4
FFFFF4
FFFFF4
FFFFF4
FFFFF4
FF5FF4
FF8FF4
FFDFF4
FFFFF4
BFFFE0
2FFFC0
06FE00
ENDCHAR
STARTCHAR hyphen
ENCODING 45
SWIDTH 428 0
DWIDTH 10 0
BBX 11 16 0 0
BITMAP
07FE00
2FFFD0
BFFFE0
FFFFF4
FC02F4
FEABF4
FFFFF4
FFFFF4
FFFFF4
FFFFF4
FFFFF4
FFFFF4
FFFFF4
BFFFE0
2FFFC0
06FE00
ENDCHAR
STARTCHAR period
ENCODING 46
SWIDTH 428 0
DWIDTH 10 0
BBX 11 16 0 0
BITMAP
07FE00
2FFFD0
BFFFE0
FFFFF4
FFFFF4
FFFFF4
FFFFF4
FFFFF4
FFFFF4
FF5FF4
FF9FF4
FFFFF4
FFFFF4
BFFFE0
2FFFC0
06FE00
ENDCHAR
STARTCHAR slash
ENCODING 47
SWIDTH 428 0
DWIDTH 10 0
BBX 11 16 0 0
BITMAP
07FE00
2FEBD0
BFCBE0
FFCBF4
FF8FF4
FF8FF4
FF5FF4
FF5FF4
FF2FF4
FF2FF4
FE3FF4
FFFFF4
FFFFF4
BFFFE0
2FFFC0
06FE00
ENDCHAR
STARTCHAR zero
ENCODING 48
SWIDTH 578 0
DWIDTH 14 0
BBX 14 16 0 0
BITMAP
07FFF900
2F400B80
BE2AA3D0
FE3FF3E0
FE3FF3F0
FE3FF3F0
FE3FF3F0
FE3FF3F0
FE3FE3F0
FF1553F0
FF955BF0
FFFFFFF0
FFFFFFE0
BFFFFFD0
2FFFFF80
06FFF900
ENDCHAR
STARTCHAR one
ENCODING 49
SWIDTH 578 0
DWIDTH 14 0
BBX 14 16 0 0
BITMAP
07FFF900
2FE0FF80
BFD4FFD0
FFF8FFE0
FFF8FFF0
FFF8FFF0
FFF8FFF0
FFF8FFF0
FFF8FFF0
FFF8FFF0
FFF9FFF0
FFFFFFF0
FFFFFFE0
BFFFFFD0
2FFFFF80
06FFF900
ENDCHAR
STARTCHAR two
ENCODING 50
SWIDTH 578 0
DWIDTH 14 0
BBX 14 16 0 0
BITMAP
07FFF900
2F400B80
BF2A97D0
FFBFE7E0
FFFFE7F0
FFA547F0
FF156FF0
FE3FFFF0
FE3FFFF0
FE155BF0
FF555BF0
FFFFFFF0
FFFFFFE0
BFFFFFD0
2FFFFF80
06FFF900
ENDCHAR
STARTCHAR three
ENCODING 51
SWIDTH 578 0
DWIDTH 14 0
BBX 14 16 0 0
BITMAP
07FFF900
2F401F80
BD6A97D0
FFFFD7E0
FFFFD7F0
FFD54BF0
FFEA97F0
FFFFD7F0
FEBFD7F0
FD1547F0
FF555FF0
FFFFFFF0
FFFFFFE0
BFFFFFD0
2FFFFF80
06FFF900
ENDCHAR
STARTCHAR four
ENCODING 52
SWIDTH 578 0
DWIDTH 14 0
BBX 14 16 0 0
BITMAP
07FFF900
2F6F5F80
BF6F5FD0
FF6F5FE0
FF6F5FF0
FF6F5FF0
FF5F5FF0
FF4502F0
FFEA5BF0
FFFF5FF0
FFFFAFF0
FFFFFFF0
FFFFFFE0
BFFFFFD0
2FFFFF80
06FFF900
ENDCHAR
STARTCHAR five
ENCODING 53
SWIDTH 578 0
DWIDTH 14 0
BBX 14 16 0 0
BITMAP
07FFF900
2F400B80
BF2AAFD0
FF3FFFE0
FF2ABFF0
FF0007F0
FFFFE3F0
FFFFE3F0
FFFFE3F0
FF1553F0
FF955BF0
FFFFFFF0
FFFFFFE0
BFFFFFD0
2FFFFF80
06FFF900
ENDCHAR
STARTCHAR six
ENCODING 54
SWIDTH 578 0
DWIDTH 14 0
BBX 14 16 0 0
BITMAP
07FFF900
2F400B80
BF1AABD0
FF3FFFE0
FF2AAFF0
FF0003F0
FF2FF2F0
FF3FF2F0
FF3FF2F0
FF1553F0
FF955BF0
FFFFFFF0
FFFFFFE0
BFFFFFD0
2FFFFF80
06FFF900
ENDCHAR
STARTCHAR seven
ENCODING 55
SWIDTH 578 0
DWIDTH 14 0
BBX 14 16 0 0
BITMAP
07FFF900
2FC00F80
BFEA5FD0
FFFF2FE0
FFFE3FF0
FFFD7FF0
FFFCBFF0
FFF8FFF0
FFF5FFF0
FFF2FFF0
FFE7FFF0
FFFFFFF0
FFFFFFE0
BFFFFFD0
2FFFFF80
06FFF900
ENDCHAR
STARTCHAR eight
ENCODING 56
SWIDTH 578 0
DWIDTH 14 0
BBX 14 16 0 0
BITMAP
07FFF900
2F400B80
BE2A93D0
FE3FE3E0
FE3FE3F0
FF0007F0
FE2A93F0
FE3FE3F0
FE3FE3F0
FE1553F0
FF955BF0
FFFFFFF0
FFFFFFE0
BFFFFFD0
2FFFFF80
06FFF900
ENDCHAR
STARTCHAR nine
ENCODING 57
SWIDTH 578 0
DWIDTH 14 0
BBX 14 16 0 0
BITMAP
07FFF900
2F400B80
BE2A93D0
FE7FE3E0
FE7FE3F0
FE2A93F0
FF4003F0
FFFFE3F0
FFFFE3F0
FF9557F0
FF955FF0
FFFFFFF0
FFFFFFE0
BFFFFFD0
2FFFFF80
06FFF900
ENDCHAR
STARTCHAR colon
ENCODING 58
SWIDTH 428 0
DWIDTH 10 0
BBX 11 16 0 0
BITMAP
07FE00
2FFFD0
BFFFE0
FFFFF4
FFFFF4
FFEFF4
FF4FF4
FFAFF4
FFFFF4
FF5FF4
FF9FF4
FFFFF4
FFFFF4
BFFFE0
2FFFC0
06FE00
ENDCHAR
STARTCHAR semicolon
ENCODING 59
SWIDTH 428 0
DWIDTH 10 0
BBX 11 16 0 0
BITMAP
07FE00
2FFFD0
BFFFE0
FFFFF4
FFFFF4
FFEFF4
FF8FF4
FFEFF4
FFFFF4
FF5FF4
FF8FF4
FFDFF4
FFFFF4
BFFFE0
2FFFC0
06FE00
ENDCHAR
STARTCHAR less
ENCODING 60
SWIDTH 482 0
DWIDTH 12 0
BBX 12 18 0 1
BITMAP
005400
0BFF90
2FFFF4
BFFFFC
FFFFFE
FFFAFE
FFE7FE
FFDFFE
FF7FFE
FDBFFE
FE7FFE
FF9FFE
FFDBFE
FFF6FE
BFFFFD
7FFFFC
1FFFF0
02BA40
ENDCHAR
STARTCHAR equal
ENCODING 61
SWIDTH 482 0
DWIDTH 12 0
BBX 12 18 0 1
BITMAP
005400
0BFF90
2FFFF4
BFFFFC
FFFFFE
FFFFFE
FFFFFE
FFAAFE
FFAAFE
FFFFFE
FE55BE
FFFFFE
FFFFFE
FFFFFE
BFFFFD
7FFFFC
1FFFF0
06BE40
ENDCHAR
STARTCHAR greater
ENCODING 62
SWIDTH 482 0
DWIDTH 12 0
BBX 12 18 0 1
BITMAP
005400
0BFF90
2FFFF4
BFFFFC
FFFFFE
FF7FFE
FF9FFE
FFE7FE
FFF9FE
FFFDBE
FFF9FE
FFF7FE
FFDFFE
FF6FFE
BFFFFD
7FFFFC
1FFFF0
06BE40
ENDCHAR
STARTCHAR question
ENCODING 63
SWIDTH 578 0
DWIDTH 14 0
BBX 14 16 0 0
BITMAP
07FFF900
2FD01B80
BF9AE7D0
FFFFE7E0
FFFFE7F0
FFFEA7F0
FFFC5BF0
FFF9FFF0
FFFDFFF0
FFF9FFF0
FFF9FFF0
FFFFFFF0
FFFFFFE0
BFFFFFD0
2FFFFF80
06FFF900
ENDCHAR
STARTCHAR at
ENCODING 64
SWIDTH 578 0
DWIDTH 14 0
BBX 14 16 0 0
BITMAP
07FFF900
2E400B80
B8BFE6D0
F6E57CE0
F2EF5DB0
F3FF9DB0
F3D01DB0
F39F9DB0
F6855DB0
F6FAC4F0
F8BFFBF0
FE41FFF0
FFFFFFE0
BFFFFFD0
2FFFFF80
06FFF900
ENDCHAR
STARTCHAR A
ENCODING 65
SWIDTH 578 0
DWIDTH 14 0
BBX 14 16 0 0
BITMAP
07FFF900
2F901F80
BF5A8BD0
FF5FCBE0
FF2FD7F0
FF2FD7F0
FF0007F0
FE2FD7F0
FE3FE3F0
FE3FE3F0
FE7FF7F0
FFFFFFF0
FFFFFFE0
BFFFFFD0
2FFFFF80
06FFF900
ENDCHAR
STARTCHAR B
ENCODING 66
SWIDTH 578 0
DWIDTH 14 0
BBX 14 16 0 0
BITMAP
07FFF900
2E000F80
BE2A87D0
FE3FD7E0
FE3FD7F0
FE000BF0
FE2A9BF0
FE3FD7F0
FE3FD7F0
FE1547F0
FE555FF0
FFFFFFF0
FFFFFFE0
BFFFFFD0
2FFFFF80
06FFF900
ENDCHAR
STARTCHAR C
ENCODING 67
SWIDTH 578 0
DWIDTH 14 0
BBX 14 16 0 0
BITMAP
07FFF900
2F401F80
BE2AAFD0
FE3FFFE0
FE3FFFF0
FE3FFFF0
FE3FFFF0
FE3FFFF0
FE3FFFF0
FE155FF0
FF955FF0
FFFFFFF0
FFFFFFE0
BFFFFFD0
2FFFFF80
06FFF900
ENDCHAR
STARTCHAR D
ENCODING 68
SWIDTH 578 0
DWIDTH 14 0
BBX 14 16 0 0
BITMAP
07FFF900
2F000780
BF2AA3D0
FF3FF2E0
FF3FF2F0
FF3FF2F0
FF3FF2F0
FF3FF2F0
FF3FF2F0
FF1553F0
FF555BF0
FFFFFFF0
FFFFFFE0
BFFFFFD0
2FFFFF80
06FFF900
ENDCHAR
STARTCHAR E
ENCODING 69
SWIDTH 578 0
DWIDTH 14 0
BBX 14 16 0 0
BITMAP
07FFF900
2F800B80
BF8AAFD0
FF8FFFE0
FF8FFFF0
FF855FF0
FF8AAFF0
FF8FFFF0
FF8FFFF0
FF855BF0
FF955BF0
FFFFFFF0
FFFFFFE0
BFFFFFD0
2FFFFF80
06FFF900
ENDCHAR
STARTCHAR F
ENCODING 70
SWIDTH 578 0
DWIDTH 14 0
BBX 14 16 0 0
BITMAP
07FFF900
2F800B80
BF8AAFD0
FF8FFFE0
FF8FFFF0
FF801FF0
FF8AAFF0
FF8FFFF0
FF8FFFF0
FF8FFFF0
FF9FFFF0
FFFFFFF0
FFFFFFE0
BFFFFFD0
2FFFFF80
06FFF900
ENDCHAR
STARTCHAR G
ENCODING 71
SWIDTH 578 0
DWIDTH 14 0
BBX 14 16 0 0
BITMAP
07FFF900
2F800B80
BF1AABD0
FF2FFFE0
FF2FFFF0
FF2FABF0
FF2E03F0
FF2FF3F0
FF2FF3F0
FF1553F0
FF955BF0
FFFFFFF0
FFFFFFE0
BFFFFFD0
2FFFFF80
06FFF900
ENDCHAR
STARTCHAR H
ENCODING 72
SWIDTH 578 0
DWIDTH 14 0
BBX 14 16 0 0
BITMAP
07FFF900
2F3FF280
BF3FF2D0
FF3FF2E0
FF3FF2F0
FF0002F0
FF2AA2F0
FF3FF2F0
FF3FF2F0
FF3FF2F0
FF7FF7F0
FFFFFFF0
FFFFFFE0
BFFFFFD0
2FFFFF80
06FFF900
ENDCHAR
STARTCHAR I
ENCODING 73
SWIDTH 578 0
DWIDTH 14 0
BBX 14 16 0 0
BITMAP
07FFF900
2F400380
BFA8ABD0
FFFCBFE0
FFFCBFF0
FFFCBFF0
FFFCBFF0
FFFCBFF0
FFFCBFF0
FF9457F0
FF5557F0
FFFFFFF0
FFFFFFE0
BFFFFFD0
2FFFFF80
06FFF900
ENDCHAR
STARTCHAR J
ENCODING 74
SWIDTH 578 0
DWIDTH 14 0
BBX 14 16 0 0
BITMAP
07FFF900
2FFF2F80
BFFF2FD0
FFFF2FE0
FFFF2FF0
FFFF2FF0
FFFF2FF0
FFFF2FF0
FFFF2FF0
FFE52FF0
FFE5BFF0
FFFFFFF0
FFFFFFE0
BFFFFFD0
2FFFFF80
06FFF900
ENDCHAR
STARTCHAR K
ENCODING 75
SWIDTH 578 0
DWIDTH 14 0
BBX 14 16 0 0
BITMAP
07FFF900
2F8FF280
BF8FC7D0
FF8F1FE0
FF887FF0
FF80FFF0
FF84BFF0
FF8E2FF0
FF8F4BF0
FF8FD3F0
FFDFF7F0
FFFFFFF0
FFFFFFE0
BFFFFFD0
2FFFFF80
06FFF900
ENDCHAR
STARTCHAR L
ENCODING 76
SWIDTH 578 0
DWIDTH 14 0
BBX 14 16 0 0
BITMAP
07FFF900
2FDBFF80
BFDBFFD0
FFDBFFE0
FFDBFFF0
FFDBFFF0
FFDBFFF0
FFDBFFF0
FFDBFFF0
FFD55FF0
FFD55FF0
FFFFFFF0
FFFFFFE0
BFFFFFD0
2FFFFF80
06FFF900
ENDCHAR
STARTCHAR M
ENCODING 77
SWIDTH 578 0
DWIDTH 14 0
BBX 14 16 0 0
BITMAP
07FFF900
2D010280
BCA4A5D0
FCB8F5E0
FCB8F5F0
FCB8F5F0
FCB8F5F0
FCBEF5F0
FCBFF5F0
FCBFF5F0
FDBFFAF0
FFFFFFF0
FFFFFFE0
BFFFFFD0
2FFFFF80
06FFF900
ENDCHAR
STARTCHAR N
ENCODING 78
SWIDTH 578 0
DWIDTH 14 0
BBX 14 16 0 0
BITMAP
07FFF900
2F400B80
BE2A93D0
FE3FE3E0
FE3FE3F0
FE3FE3F0
FE3FE3F0
FE3FE3F0
FE3FE3F0
FE3FE3F0
FF7FE7F0
FFFFFFF0
FFFFFFE0
BFFFFFD0
2FFFFF80
06FFF900
ENDCHAR
STARTCHAR O
ENCODING 79
SWIDTH 578 0
DWIDTH 14 0
BBX 14 16 0 0
BITMAP
07FFF900
2F400780
BF2AA3D0
FE3FF3E0
FE3FF3F0
FE3FF3F0
FE3FF3F0
FE3FF3F0
FE3FF3F0
FF1553F0
FF955BF0
FFFFFFF0
FFFFFFE0
BFFFFFD0
2FFFFF80
06FFF900
ENDCHAR
STARTCHAR P
ENCODING 80
SWIDTH 578 0
DWIDTH 14 0
BBX 14 16 0 0
BITMAP
07FFF900
2F400B80
BF5A93D0
FF5FE3E0
FF5FE3F0
FF5FE3F0
FF4007F0
FF5ABFF0
FF5FFFF0
FF5FFFF0
FFAFFFF0
FFFFFFF0
FFFFFFE0
BFFFFFD0
2FFFFF80
06FFF900
ENDCHAR
STARTCHAR Q
ENCODING 81
SWIDTH 578 0
DWIDTH 14 0
BBX 14 16 0 0
BITMAP
07FFF900
2F400780
BF2AA3D0
FF3FF2E0
FF3FF2F0
FF3FF2F0
FF3FF2F0
FF3FF2F0
FF3DB2F0
FF1413F0
FF951BF0
FFFF5FF0
FFFFEFE0
BFFFFFD0
2FFFFF80
06FFF900
ENDCHAR
STARTCHAR R
ENCODING 82
SWIDTH 578 0
DWIDTH 14 0
BBX 14 16 0 0
BITMAP
07FFF900
2F001F80
BF2A8BD0
FF2FDBE0
FF2FDBF0
FF1A5FF0
FF051FF0
FF2FDBF0
FF2FD7F0
FF2FD7F0
FF6FEBF0
FFFFFFF0
FFFFFFE0
BFFFFFD0
2FFFFF80
06FFF900
ENDCHAR
STARTCHAR S
ENCODING 83
SWIDTH 578 0
DWIDTH 14 0
BBX 14 16 0 0
BITMAP
07FFF900
2F800B80
BF1AAFD0
FF2FFFE0
FF2FFFF0
FF401BF0
FFEA93F0
FFFFE3F0
FFFFE3F0
FF9557F0
FF955BF0
FFFFFFF0
FFFFFFE0
BFFFFFD0
2FFFFF80
06FFF900
ENDCHAR
STARTCHAR T
ENCODING 84
SWIDTH 578 0
DWIDTH 14 0
BBX 14 16 0 0
BITMAP
07FFF900
2F400380
BFA8ABD0
FFFCBFE0
FFFCBFF0
FFFCBFF0
FFFCBFF0
FFFCBFF0
FFFCBFF0
FFFCBFF0
FFFDFFF0
FFFFFFF0
FFFFFFE0
BFFFFFD0
2FFFFF80
06FFF900
ENDCHAR
STARTCHAR U
ENCODING 85
SWIDTH 578 0
DWIDTH 14 0
BBX 14 16 0 0
BITMAP
07FFF900
2E3FF380
BE3FF3D0
FE3FF3E0
FE3FF3F0
FE3FF3F0
FE3FF3F0
FE3FF3F0
FE3FE3F0
FF1553F0
FF955BF0
FFFFFFF0
FFFFFFE0
BFFFFFD0
2FFFFF80
06FFF900
ENDCHAR
STARTCHAR V
ENCODING 86
SWIDTH 578 0
DWIDTH 14 0
BBX 14 16 0 0
BITMAP
07FFF900
2E3FE380
BF2FD7D0
FF5FC7E0
FF4FCBF0
FF8F8FF0
FFCB5FF0
FFD72FF0
FFE32FF0
FFF13FF0
FFF9BFF0
FFFFFFF0
FFFFFFE0
BFFFFFD0
2FFFFF80
06FFF900
ENDCHAR
STARTCHAR W
ENCODING 87
SWIDTH 578 0
DWIDTH 14 0
BBX 14 16 0 0
BITMAP
07FFF900
28F9F980
B8F4F5D0
F8F4B5E0
FCB0B5F0
FCB172F0
FCA272F0
FD6632F0
FD5623F0
FD0713F0
FF5F9BF0
FFFFFFF0
FFFFFFE0
BFFFFFD0
2FFFFF80
06FFF900
ENDCHAR
STARTCHAR X
ENCODING 88
SWIDTH 578 0
DWIDTH 14 0
BBX 14 16 0 0
BITMAP
07FFF900
2F6FE380
BF4FD7D0
FFCB8FE0
FFE22FF0
FFF47FF0
FFF03FF0
FFE31FF0
FFCB8BF0
FF5FD7F0
FF7FF7F0
FFFFFFF0
FFFFFFE0
BFFFFFD0
2FFFFF80
06FFF900
ENDCHAR
STARTCHAR Y
ENCODING 89
SWIDTH 578 0
DWIDTH 14 0
BBX 14 16 0 0
BITMAP
07FFF900
2F1FD380
BF8FCBD0
FFCB8FE0
FFD75FF0
FFE23FF0
FFF47FF0
FFF8BFF0
FFFCFFF0
FFFCFFF0
FFFDFFF0
FFFFFFF0
FFFFFFE0
BFFFFFD0
2FFFFF80
06FFF900
ENDCHAR
STARTCHAR Z
ENCODING 90
SWIDTH 578 0
DWIDTH 14 0
BBX 14 16 0 0
BITMAP
07FFF900
2F800F80
BFEA4FD0
FFFF2FE0
FFFD7FF0
FFF8BFF0
FFF5FFF0
FFE3FFF0
FFCBFFF0
FF855BF0
FF955BF0
FFFFFFF0
FFFFFFE0
BFFFFFD0
2FFFFF80
06FFF900
ENDCHAR
STARTCHAR bracketleft
ENCODING 91
SWIDTH 484 0
DWIDTH 12 0
BBX 12 16 0 0
BITMAP
07EB90
2FC3F4
BFCBFD
FFCBFE
FFCBFE
FFCBFE
FFCBFE
FFCBFE
FFCBFE
FFCBFE
FFCBFE
FFC7FE
FFFFFE
BFFFFD
2FFFF4
06FF90
ENDCHAR
STARTCHAR backslash
ENCODING 92
SWIDTH 516 0
DWIDTH 12 0
BBX 13 16 0 0
BITMAP
07FFE000
2FCBFD00
BFDBFF00
FFD7FF40
FFE7FF40
FFE3FF40
FFF3FF40
FFF2FF40
FFF6FF40
FFF5FF40
FFF9FF40
FFFFFF40
FFFFFF40
BFFFFF00
2FFFFD00
06FFE000
ENDCHAR
STARTCHAR bracketright
ENCODING 93
SWIDTH 484 0
DWIDTH 12 0
BBX 12 16 0 0
BITMAP
07EB90
2F87F4
BFD7FD
FFD7FE
FFD7FE
FFD7FE
FFD7FE
FFD7FE
FFD7FE
FFD7FE
FFD7FE
FF87FE
FFFFFE
BFFFFD
2FFFF4
06FF90
ENDCHAR
STARTCHAR asciicircum
ENCODING 94
SWIDTH 355 0
DWIDTH 9 0
BBX 9 10 0 5
BITMAP
014000
0BF400
1FFC00
3E3D00
7DAE00
BADF40
FBEF80
FFFF80
7FBF00
041400
ENDCHAR
STARTCHAR underscore
ENCODING 95
SWIDTH 428 0
DWIDTH 10 0
BBX 11 16 0 0
BITMAP
07FE00
2FFFD0
BFFFE0
FFFFF4
FFFFF4
FFFFF4
FFFFF4
FFFFF4
FFFFF4
FFFFF4
FAAAF4
F401F4
FFFFF4
BFFFE0
2FFFC0
06FE00
ENDCHAR
STARTCHAR grave
ENCODING 96
SWIDTH 308 0
DWIDTH 7 0
BBX 8 8 0 0
BITMAP
2FE0
BFF4
F8F8
BDBC
7E7D
2F7D
0FFD
06A4
ENDCHAR
STARTCHAR a
ENCODING 97
SWIDTH 578 0
DWIDTH 14 0
BBX 14 16 0 0
BITMAP
07FFF900
2F401F80
BFAA8BD0
FFFFCBE0
FFFFCBF0
FFAA8BF0
FE050BF0
FD7FCBF0
FD7FCBF0
FE154BF0
FF555FF0
FFFFFFF0
FFFFFFE0
BFFFFFD0
2FFFFF80
06FFF900
ENDCHAR
STARTCHAR b
ENCODING 98
SWIDTH 578 0
DWIDTH 14 0
BBX 14 16 0 0
BITMAP
07FFF900
2E000F80
BE2A87D0
FE3FD7E0
FE3FD7F0
FE000BF0
FE2A9BF0
FE3FD7F0
FE3FD7F0
FE1547F0
FE555FF0
FFFFFFF0
FFFFFFE0
BFFFFFD0
2FFFFF80
06FFF900
ENDCHAR
STARTCHAR c
ENCODING 99
SWIDTH 578 0
DWIDTH 14 0
BBX 14 16 0 0
BITMAP
07FFF900
2F401F80
BE2AAFD0
FE3FFFE0
FE3FFFF0
FE3FFFF0
FE3FFFF0
FE3FFFF0
FE3FFFF0
FE155FF0
FF955FF0
FFFFFFF0
FFFFFFE0
BFFFFFD0
2FFFFF80
06FFF900
ENDCHAR
STARTCHAR d
ENCODING 100
SWIDTH 578 0
DWIDTH 14 0
BBX 14 16 0 0
BITMAP
07FFF900
2F000780
BF2AA3D0
FF3FF2E0
FF3FF2F0
FF3FF2F0
FF3FF2F0
FF3FF2F0
FF3FF2F0
FF1553F0
FF555BF0
FFFFFFF0
FFFFFFE0
BFFFFFD0
2FFFFF80
06FFF900
ENDCHAR
STARTCHAR e
ENCODING 101
SWIDTH 578 0
DWIDTH 14 0
BBX 14 16 0 0
BITMAP
07FFF900
2F401F80
BE2A8BD0
FE7FCBE0
FE2A8BF0
FE155BF0
FE7FFFF0
FE7FFFF0
FE3FFFF0
FF001FF0
FFEAAFF0
FFFFFFF0
FFFFFFE0
BFFFFFD0
2FFFFF80
06FFF900
ENDCHAR
STARTCHAR f
ENCODING 102
SWIDTH 578 0
DWIDTH 14 0
BBX 14 16 0 0
BITMAP
07FFF900
2F800B80
BF8AAFD0
FF8FFFE0
FF8FFFF0
FF801FF0
FF8AAFF0
FF8FFFF0
FF8FFFF0
FF8FFFF0
FF9FFFF0
FFFFFFF0
FFFFFFE0
BFFFFFD0
2FFFFF80
06FFF900
ENDCHAR
STARTCHAR g
ENCODING 103
SWIDTH 578 0
DWIDTH 14 0
BBX 14 16 0 0
BITMAP
07FFF900
2F800B80
BF1AABD0
FF2FFFE0
FF2FFFF0
FF2FABF0
FF2E03F0
FF2FF3F0
FF2FF3F0
FF1553F0
FF955BF0
FFFFFFF0
FFFFFFE0
BFFFFFD0
2FFFFF80
06FFF900
ENDCHAR
STARTCHAR h
ENCODING 104
SWIDTH 578 0
DWIDTH 14 0
BBX 14 16 0 0
BITMAP
07FFF900
2F3FF280
BF3FF2D0
FF3FF2E0
FF3FF2F0
FF0002F0
FF2AA2F0
FF3FF2F0
FF3FF2F0
FF3FF2F0
FF7FF7F0
FFFFFFF0
FFFFFFE0
BFFFFFD0
2FFFFF80
06FFF900
ENDCHAR
STARTCHAR i
ENCODING 105
SWIDTH 578 0
DWIDTH 14 0
BBX 14 16 0 0
BITMAP
07FFF900
2F400380
BFA8ABD0
FFFCBFE0
FFFCBFF0
FFFCBFF0
FFFCBFF0
FFFCBFF0
FFFCBFF0
FF9457F0
FF5557F0
FFFFFFF0
FFFFFFE0
BFFFFFD0
2FFFFF80
06FFF900
ENDCHAR
STARTCHAR j
ENCODING 106
SWIDTH 578 0
DWIDTH 14 0
BBX 14 16 0 0
BITMAP
07FFF900
2FFF2F80
BFFF2FD0
FFFF2FE0
FFFF2FF0
FFFF2FF0
FFFF2FF0
FFFF2FF0
FFFF2FF0
FFE52FF0
FFE5BFF0
FFFFFFF0
FFFFFFE0
BFFFFFD0
2FFFFF80
06FFF900
ENDCHAR
STARTCHAR k
ENCODING 107
SWIDTH 578 0
DWIDTH 14 0
BBX 14 16 0 0
BITMAP
07FFF900
2F8FF280
BF8FC7D0
FF8F1FE0
FF887FF0
FF80FFF0
FF84BFF0
FF8E2FF0
FF8F4BF0
FF8FD3F0
FFDFF7F0
FFFFFFF0
FFFFFFE0
BFFFFFD0
2FFFFF80
06FFF900
ENDCHAR
STARTCHAR l
ENCODING 108
SWIDTH 578 0
DWIDTH 14 0
BBX 14 16 0 0
BITMAP
07FFF900
2FDBFF80
BFDBFFD0
FFDBFFE0
FFDBFFF0
FFDBFFF0
FFDBFFF0
FFDBFFF0
FFDBFFF0
FFD55FF0
FFD55FF0
FFFFFFF0
FFFFFFE0
BFFFFFD0
2FFFFF80
06FFF900
ENDCHAR
STARTCHAR m
ENCODING 109
SWIDTH 578 0
DWIDTH 14 0
BBX 14 16 0 0
BITMAP
07FFF900
2D010280
BCA4A5D0
FCB8F5E0
FCB8F5F0
FCB8F5F0
FCB8F5F0
FCBEF5F0
FCBFF5F0
FCBFF5F0
FDBFFAF0
FFFFFFF0
FFFFFFE0
BFFFFFD0
2FFFFF80
06FFF900
ENDCHAR
STARTCHAR n
ENCODING 110
SWIDTH 578 0
DWIDTH 14 0
BBX 14 16 0 0
BITMAP
07FFF900
2F400B80
BE2A93D0
FE3FE3E0
FE3FE3F0
FE3FE3F0
FE3FE3F0
FE3FE3F0
FE3FE3F0
FE3FE3F0
FF7FE7F0
FFFFFFF0
FFFFFFE0
BFFFFFD0
2FFFFF80
06FFF900
ENDCHAR
STARTCHAR o
ENCODING 111
SWIDTH 578 0
DWIDTH 14 0
BBX 14 16 0 0
BITMAP
07FFF900
2F400780
BF2AA3D0
FE3FF3E0
FE3FF3F0
FE3FF3F0
FE3FF3F0
FE3FF3F0
FE3FF3F0
FF1553F0
FF955BF0
FFFFFFF0
FFFFFFE0
BFFFFFD0
2FFFFF80
06FFF900
ENDCHAR
STARTCHAR p
ENCODING 112
SWIDTH 578 0
DWIDTH 14 0
BBX 14 16 0 0
BITMAP
07FFF900
2F400B80
BF5A93D0
FF5FE3E0
FF5FE3F0
FF5FE3F0
FF4007F0
FF5ABFF0
FF5FFFF0
FF5FFFF0
FFAFFFF0
FFFFFFF0
FFFFFFE0
BFFFFFD0
2FFFFF80
06FFF900
ENDCHAR
STARTCHAR q
ENCODING 113
SWIDTH 578 0
DWIDTH 14 0
BBX 14 16 0 0
BITMAP
07FFF900
2F400780
BF2AA3D0
FF3FF2E0
FF3FF2F0
FF3FF2F0
FF3FF2F0
FF3FF2F0
FF3DB2F0
FF1413F0
FF951BF0
FFFF5FF0
FFFFEFE0
BFFFFFD0
2FFFFF80
06FFF900
ENDCHAR
STARTCHAR r
ENCODING 114
SWIDTH 578 0
DWIDTH 14 0
BBX 14 16 0 0
BITMAP
07FFF900
2F001F80
BF2A8BD0
FF2FDBE0
FF2FDBF0
FF1A5FF0
FF051FF0
FF2FDBF0
FF2FD7F0
FF2FD7F0
FF6FEBF0
FFFFFFF0
FFFFFFE0
BFFFFFD0
2FFFFF80
06FFF900
ENDCHAR
STARTCHAR s
ENCODING 115
SWIDTH 578 0
DWIDTH 14 0
BBX 14 16 0 0
BITMAP
07FFF900
2F800B80
BF1AAFD0
FF2FFFE0
FF2FFFF0
FF401BF0
FFEA93F0
FFFFE3F0
FFFFE3F0
FF9557F0
FF955BF0
FFFFFFF0
FFFFFFE0
BFFFFFD0
2FFFFF80
06FFF900
ENDCHAR
STARTCHAR t
ENCODING 116
SWIDTH 578 0
DWIDTH 14 0
BBX 14 16 0 0
BITMAP
07FFF900
2F400380
BFA8ABD0
FFFCBFE0
FFFCBFF0
FFFCBFF0
FFFCBFF0
FFFCBFF0
FFFCBFF0
FFFCBFF0
FFFDFFF0
FFFFFFF0
FFFFFFE0
BFFFFFD0
2FFFFF80
06FFF900
ENDCHAR
STARTCHAR u
ENCODING 117
SWIDTH 578 0
DWIDTH 14 0
BBX 14 16 0 0
BITMAP
07FFF900
2E3FF380
BE3FF3D0
FE3FF3E0
FE3FF3F0
FE3FF3F0
FE3FF3F0
FE3FF3F0
FE3FE3F0
FF1553F0
FF955BF0
FFFFFFF0
FFFFFFE0
BFFFFFD0
2FFFFF80
06FFF900
ENDCHAR
STARTCHAR v
ENCODING 118
SWIDTH 578 0
DWIDTH 14 0
BBX 14 16 0 0
BITMAP
07FFF900
2E3FE380
BF2FD7D0
FF5FC7E0
FF4FCBF0
FF8F8FF0
FFCB5FF0
FFD72FF0
FFE32FF0
FFF13FF0
FFF9BFF0
FFFFFFF0
FFFFFFE0
BFFFFFD0
2FFFFF80
06FFF900
ENDCHAR
STARTCHAR w
ENCODING 119
SWIDTH 578 0
DWIDTH 14 0
BBX 14 16 0 0
BITMAP
07FFF900
28F9F980
B8F4F5D0
F8F4B5E0
FCB0B5F0
FCB172F0
FCA272F0
FD6632F0
FD5623F0
FD0713F0
FF5F9BF0
FFFFFFF0
FFFFFFE0
BFFFFFD0
2FFFFF80
06FFF900
ENDCHAR
STARTCHAR x
ENCODING 120
SWIDTH 578 0
DWIDTH 14 0
BBX 14 16 0 0
BITMAP
07FFF900
2F6FE380
BF4FD7D0
FFCB8FE0
FFE22FF0
FFF47FF0
FFF03FF0
FFE31FF0
FFCB8BF0
FF5FD7F0
FF7FF7F0
FFFFFFF0
FFFFFFE0
BFFFFFD0
2FFFFF80
06FFF900
ENDCHAR
STARTCHAR y
ENCODING 121
SWIDTH 578 0
DWIDTH 14 0
BBX 14 16 0 0
BITMAP
07FFF900
2F1FD380
BF8FCBD0
FFCB8FE0
FFD75FF0
FFE23FF0
FFF47FF0
FFF8BFF0
FFFCFFF0
FFFCFFF0
FFFDFFF0
FFFFFFF0
FFFFFFE0
BFFFFFD0
2FFFFF80
06FFF900
ENDCHAR
STARTCHAR z
ENCODING 122
SWIDTH 578 0
DWIDTH 14 0
BBX 14 16 0 0
BITMAP
07FFF900
2F800F80
BFEA4FD0
FFFF2FE0
FFFD7FF0
FFF8BFF0
FFF5FFF0
FFE3FFF0
FFCBFFF0
FF855BF0
FF955BF0
FFFFFFF0
FFFFFFE0
BFFFFFD0
2FFFFF80
06FFF900
ENDCHAR
STARTCHAR braceleft
ENCODING 123
SWIDTH 484 0
DWIDTH 12 0
BBX 12 16 0 0
BITMAP
07FA90
2F81F4
BF5FFD
FF6FFE
FF6FFE
FA2FFE
F02FFE
FF2FFE
FF6FFE
FF6FFE
FF5AFE
FF91FE
FFFFFE
BFFFFD
2FFFF4
06FF90
ENDCHAR
STARTCHAR bar
ENCODING 124
SWIDTH 484 0
DWIDTH 12 0
BBX 12 16 0 0
BITMAP
07DB90
2FDBF4
BFDBFD
FFDBFE
FFDBFE
FFDBFE
FFDBFE
FFDBFE
FFDBFE
FFDBFE
FFDBFE
FFEBFE
FFFFFE
BFFFFD
2FFFF4
06FF90
ENDCHAR
STARTCHAR braceright
ENCODING 125
SWIDTH 484 0
DWIDTH 12 0
BBX 12 16 0 0
BITMAP
06AF90
2F03F4
BFF2FD
FFF6FE
FFF6FE
FFF5AE
FFF41E
FFF6FE
FFF6FE
FFF6FE
FFA2FE
FF07FE
FFFFFE
BFFFFD
2FFFF4
06FF90
ENDCHAR
STARTCHAR asciitilde
ENCODING 126
SWIDTH 578 0
DWIDTH 14 0
BBX 14 16 0 0
BITMAP
07FFF900
2FFFFF80
BFFFFFD0
FFEFEBE0
FF018BF0
FE795FF0
FFFFFFF0
FFFFFFF0
FFFFFFF0
FFFFFFF0
FFFFFFF0
FFFFFFF0
FFFFFFE0
BFFFFFD0
2FFFFF80
06FFF900
ENDCHAR
STARTCHAR uni00A0
ENCODING 160
SWIDTH 151 0
DWIDTH 4 0
BBX 1 1 0 0
BITMAP
00
ENDCHAR
STARTCHAR exclamdown
ENCODING 161
SWIDTH 424 0
DWIDTH 10 0
BBX 11 16 0 0
BITMAP
07FE00
2F9FC0
BFEFE0
FFDFF0
FF9FF4
FF9FF4
FF9FF4
FF9FF4
FF9FF4
FF9FF4
FFDFF4
FFFFF4
FFFFF0
BFFFE0
2FFFC0
06FA00
ENDCHAR
STARTCHAR cent
ENCODING 162
SWIDTH 578 0
DWIDTH 14 0
BBX 14 16 0 0
BITMAP
07FEF900
2FF9FF80
BFD06FD0
FF54AFE0
FF59FFF0
FF69FFF0
FF69FFF0
FF69FFF0
FF59FFF0
FF801FF0
FFF9BFF0
FFF9FFF0
FFFFFFE0
BFFFFFD0
2FFFFF80
06FFF900
ENDCHAR
STARTCHAR sterling
ENCODING 163
SWIDTH 578 0
DWIDTH 14 0
BBX 14 16 0 0
BITMAP
07FFF900
2FE02F80
BFC64FD0
FFCB9FE0
FFCBFFF0
FF86BFF0
FF857FF0
FFCBFFF0
FFCBFFF0
FFC56FF0
FFD55FF0
FFFFFFF0
FFFFFFE0
BFFFFFD0
2FFFFF80
06FFF900
ENDCHAR
STARTCHAR currency
ENCODING 164
SWIDTH 578 0
DWIDTH 14 0
BBX 14 16 0 0
BITMAP
07FFF900
2F7FE780
BF400BD0
FF9FCBE0
FF9FCBF0
FF9FCBF0
FF9FCBF0
FF400BF0
FF6EE7F0
FFFFFFF0
FFFFFFF0
FFFFFFF0
FFFFFFE0
BFFFFFD0
2FFFFF80
06FFF900
ENDCHAR
STARTCHAR yen
ENCODING 165
SWIDTH 578 0
DWIDTH 14 0
BBX 14 16 0 0
BITMAP
07FFF900
2E3FCB80
BF1F8FD0
FF8F5FE0
FFCA3FF0
FFD57FF0
FFE0BFF0
FF802FF0
FF906FF0
FFE5BFF0
FFFAFFF0
FFFFFFF0
FFFFFFE0
BFFFFFD0
2FFFFF80
06FFF900
ENDCHAR
STARTCHAR brokenbar
ENCODING 166
SWIDTH 484 0
DWIDTH 12 0
BBX 12 16 0 0
BITMAP
07FF90
2FDBF4
BFDBFD
FFDBFE
FFDBFE
FFFFFE
FFEBFE
FFDBFE
FFDBFE
FFDBFE
FFDBFE
FFFFFE
FFFFFE
BFFFFD
2FFFF4
06FF90
ENDCHAR
STARTCHAR section
ENCODING 167
SWIDTH 578 0
DWIDTH 14 0
BBX 14 16 0 0
BITMAP
07FFF900
2F900B80
BF6FEFD0
FF6FFFE0
FF45BFF0
FFCA2FF0
FFCF6FF0
FFD52FF0
FFFA8FF0
FFFFDBF0
FFAA8FF0
FF556FF0
FFFFFFE0
BFFFFFD0
2FFFFF80
06FFF900
ENDCHAR
STARTCHAR dieresis
ENCODING 168
SWIDTH 388 0
DWIDTH 9 0
BBX 10 7 0 0
BITMAP
0AF900
7FFF40
BFFFC0
F5D7D0
FAE7D0
7FFF80
1AA900
ENDCHAR
STARTCHAR copyright
ENCODING 169
SWIDTH 578 0
DWIDTH 14 0
BBX 14 16 0 0
BITMAP
07FFF900
2F955F80
BD7FE7D0
F9D029E0
F7CFFEB0
E7CFFF70
EBCFFF70
E7CFFF70
F7CFFEB0
F9E569F0
FD7FE7F0
FF955FF0
FFFFFFE0
BFFFFFD0
2FFFFF80
06FFF900
ENDCHAR
STARTCHAR ordfeminine
ENCODING 170
SWIDTH 578 0
DWIDTH 14 0
BBX 14 16 0 0
BITMAP
07FFF900
2FD01F80
BFEA8BD0
FFFFCBE0
FFEA8BF0
FF810BF0
FF5FCBF0
FF5A8BF0
FF801FF0
FFFFFFF0
FFFFFFF0
FFFFFFF0
FFFFFFE0
BFFFFFD0
2FFFFF80
06FFF900
ENDCHAR
STARTCHAR guillemotleft
ENCODING 171
SWIDTH 578 0
DWIDTH 14 0
BBX 14 16 0 0
BITMAP
07FFF900
2FFFFF80
BFF7DFD0
FFE76FE0
FFDE7FF0
FF6DFFF0
FE76FFF0
FF79FFF0
FF9DBFF0
FFDB7FF0
FFF7DFF0
FFFFFFF0
FFFFFFE0
BFFFFFD0
2FFFFF80
06FFF900
ENDCHAR
STARTCHAR uni00AD
ENCODING 173
SWIDTH 428 0
DWIDTH 10 0
BBX 11 16 0 0
BITMAP
07FE00
2FFFD0
BFFFE0
FFFFF4
FC02F4
FEABF4
FFFFF4
FFFFF4
FFFFF4
FFFFF4
FFFFF4
FFFFF4
FFFFF4
BFFFE0
2FFFC0
06FE00
ENDCHAR
STARTCHAR registered
ENCODING 174
SWIDTH 578 0
DWIDTH 14 0
BBX 14 16 0 0
BITMAP
07FFF900
2F955F80
BD7FE7D0
F9C029E0
F7CF9EB0
E7CF9F70
EBC07F70
E7CF9F70
F7CF9EB0
F9DFD9F0
FD7FE7F0
FF955FF0
FFFFFFE0
BFFFFFD0
2FFFFF80
06FFF900
ENDCHAR
STARTCHAR macron
ENCODING 175
SWIDTH 428 0
DWIDTH 10 0
BBX 11 7 0 0
BITMAP
0AFE00
3FFFD0
BFFFF0
F957F4
FD57F4
BFFFE0
2FFF80
ENDCHAR
STARTCHAR degree
ENCODING 176
SWIDTH 428 0
DWIDTH 10 0
BBX 11 16 0 0
BITMAP
07FE00
2E57D0
BCA2E0
FCF6F4
FD03F4
FFFFF4
FFFFF4
FFFFF4
FFFFF4
FFFFF4
FFFFF4
FFFFF4
FFFFF4
BFFFE0
2FFFC0
06FE00
ENDCHAR
STARTCHAR plusminus
ENCODING 177
SWIDTH 428 0
DWIDTH 10 0
BBX 11 16 0 0
BITMAP
07FE00
2F8FD0
BF8FE0
F945F4
F945F4
FF8FF4
FF9FF4
FEABF4
FC02F4
FFFFF4
FFFFF4
FFFFF4
FFFFF4
BFFFE0
2FFFC0
06FE00
ENDCHAR
STARTCHAR uni00B2
ENCODING 178
SWIDTH 578 0
DWIDTH 14 0
BBX 14 16 0 0
BITMAP
07FFF900
2FD02F80
BF8A5FD0
FFFA1FE0
FFC17FF0
FF8FFFF0
FF803FF0
FFEABFF0
FFFFFFF0
FFFFFFF0
FFFFFFF0
FFFFFFF0
FFFFFFE0
BFFFFFD0
2FFFFF80
06FFF900
ENDCHAR
STARTCHAR uni00B3
ENCODING 179
SWIDTH 578 0
DWIDTH 14 0
BBX 14 16 0 0
BITMAP
07FFF900
2FD01F80
BFDA8BD0
FFFE4BE0
FFF94BF0
FFDFCBF0
FFC00FF0
FFFABFF0
FFFFFFF0
FFFFFFF0
FFFFFFF0
FFFFFFF0
FFFFFFE0
BFFFFFD0
2FFFFF80
06FFF900
ENDCHAR
STARTCHAR acute
ENCODING 180
SWIDTH 308 0
DWIDTH 7 0
BBX 8 8 0 0
BITMAP
1BE4
3FFD
7D7D
BCBC
B9F8
F6F0
FFD0
2A80
ENDCHAR
STARTCHAR uni00B5
ENCODING 181
SWIDTH 578 0
DWIDTH 14 0
BBX 14 16 0 0
BITMAP
07FFF900
2D7FE780
BD7FE7D0
FD7FE7E0
FD7FE7F0
FD7FE7F0
FD7FE7F0
FD7FE7F0
FD7FE7F0
FD1547F0
FD155FF0
FD7FFFF0
FFFFFFE0
BFFFFFD0
2FFFFF80
06FFF900
ENDCHAR
STARTCHAR paragraph
ENCODING 182
SWIDTH 578 0
DWIDTH 14 0
BBX 14 16 0 0
BITMAP
07FFF900
2F955F80
BE009FD0
FE009FE0
FE009FF0
FF009FF0
FFF99FF0
FFFD9FF0
FFFD9FF0
FFFD9FF0
FFFEEFF0
FFFFFFF0
FFFFFFE0
BFFFFFD0
2FFFFF80
06FFF900
ENDCHAR
STARTCHAR periodcentered
ENCODING 183
SWIDTH 428 0
DWIDTH 10 0
BBX 11 16 0 0
BITMAP
07FE00
2FFFD0
BFFFE0
FFFFF4
FF4FF4
FFAFF4
FFFFF4
FFFFF4
FFFFF4
FFFFF4
FFFFF4
FFFFF4
FFFFF4
BFFFE0
2FFFC0
06FE00
ENDCHAR
STARTCHAR cedilla
ENCODING 184
SWIDTH 101 0
DWIDTH 2 0
BBX 3 4 0 -4
BITMAP
64
D0
E4
64
ENDCHAR
STARTCHAR uni00B9
ENCODING 185
SWIDTH 578 0
DWIDTH 14 0
BBX 14 16 0 0
BITMAP
07FFF900
2FE0FF80
BFD4FFD0
FFF8FFE0
FFF8FFF0
FFF8FFF0
FFF8FFF0
FFFEFFF0
FFFFFFF0
FFFFFFF0
FFFFFFF0
FFFFFFF0
FFFFFFE0
BFFFFFD0
2FFFFF80
06FFF900
ENDCHAR
STARTCHAR ordmasculine
ENCODING 186
SWIDTH 578 0
DWIDTH 14 0
BBX 14 16 0 0
BITMAP
07FFF900
2F800B80
BF5A93D0
FF6FE3E0
FF6FE3F0
FF6FE3F0
FF5FE3F0
FF5A93F0
FF800BF0
FFFFFFF0
FFFFFFF0
FFFFFFF0
FFFFFFE0
BFFFFFD0
2FFFFF80
06FFF900
ENDCHAR
STARTCHAR guillemotright
ENCODING 187
SWIDTH 578 0
DWIDTH 14 0
BBX 14 16 0 0
BITMAP
07FFF900
2FFFFF80
BF7DFFD0
FFADBFE0
FFDB7FF0
FFF79FF0
FFF9DBF0
FFF6DFF0
FFEB6FF0
FF9E7FF0
FF7DFFF0
FFFFFFF0
FFFFFFE0
BFFFFFD0
2FFFFF80
06FFF900
ENDCHAR
STARTCHAR onequarter
ENCODING 188
SWIDTH 578 0
DWIDTH 14 0
BBX 14 16 0 0
BITMAP
06FFF900
2478FF80
B575FFD0
FD72FFE0
FD73FFF0
FD6279F0
FD5675F0
FE8A75F0
FFCA25B0
FF8F4020
FFAFF5F0
FFFFF9F0
FFFFFFE0
BFFFFFD0
2FFFFF80
06FFF900
ENDCHAR
STARTCHAR onehalf
ENCODING 189
SWIDTH 578 0
DWIDTH 14 0
BBX 14 16 0 0
BITMAP
06FFF900
2478FF80
B575FFD0
FD72FFE0
FD7396F0
FD6214B0
FD57BD70
FE8B40B0
FFCA2FF0
FF8E15F0
FFAF55F0
FFFFFFF0
FFFFFFE0
BFFFFFD0
2FFFFF80
06FFF900
ENDCHAR
STARTCHAR threequarters
ENCODING 190
SWIDTH 578 0
DWIDTH 14 0
BBX 14 16 0 0
BITMAP
06FFF900
2478FF80
B575FFD0
FD72FFE0
FD7395F0
FD621530
FD57FE30
FE8BD070
FFCBBE30
FF8E1530
FFAF55B0
FFFFFFF0
FFFFFFE0
BFFFFFD0
2FFFFF80
06FFF900
ENDCHAR
STARTCHAR questiondown
ENCODING 191
SWIDTH 578 0
DWIDTH 14 0
BBX 14 16 0 0
BITMAP
07FFF900
2FFDBF80
BFFEFFD0
FFFDBFE0
FFF9BFF0
FF85FFF0
FF6FFFF0
FF6FFFF0
FF6FEBF0
FF955BF0
FFEAAFF0
FFFFFFF0
FFFFFFE0
BFFFFFD0
2FFFFF80
06FFF900
ENDCHAR
STARTCHAR Agrave
ENCODING 192
SWIDTH 578 0
DWIDTH 14 0
BBX 14 23 0 0
BITMAP
02FE0000
0BFF8000
0BCBC000
07D7D000
03F3D000
01F6E000
00BFE000
07FFF900
2F901F80
BF5A8BD0
FF5FCBE0
FF2FD7F0
FF2FD7F0
FF0007F0
FE2FD7F0
FE3FE3F0
FE3FE3F0
FE7FF7F0
FFFFFFF0
FFFFFFE0
BFFFFFD0
2FFFFF80
06FFF900
ENDCHAR
STARTCHAR Aacute
ENCODING 193
SWIDTH 578 0
DWIDTH 14 0
BBX 14 23 0 0
BITMAP
000BF800
002FFE00
003E3E00
007D7D00
007CFC00
00B9F400
00BFE000
07FFF900
2F901F80
BF5A8BD0
FF5FCBE0
FF2FD7F0
FF2FD7F0
FF0007F0
FE2FD7F0
FE3FE3F0
FE3FE3F0
FE7FF7F0
FFFFFFF0
FFFFFFE0
BFFFFFD0
2FFFFF80
06FFF900
ENDCHAR
STARTCHAR Acircumflex
ENCODING 194
SWIDTH 578 0
DWIDTH 14 0
BBX 14 24 0 0
BITMAP
00064000
003FE000
00BEF000
00F5F800
01F6BC00
02E77D00
03EB7E00
03FFFD00
07FFFD00
2F901F80
BF5A8BD0
FF5FCBE0
FF2FD7F0
FF2FD7F0
FF0007F0
FE2FD7F0
FE3FE3F0
FE3FE3F0
FE7FF7F0
FFFFFFF0
FFFFFFE0
BFFFFFD0
2FFFFF80
06FFF900
ENDCHAR
STARTCHAR Atilde
ENCODING 195
SWIDTH 578 0
DWIDTH 14 0
BBX 14 23 0 0
BITMAP
001A9000
01FFF800
07FFFE00
0BFFFF40
0FFFEF40
0B815F40
07AE6F00
0BFFFE00
2F901F80
BF5A8BD0
FF5FCBE0
FF2FD7F0
FF2FD7F0
FF0007F0
FE2FD7F0
FE3FE3F0
FE3FE3F0
FE7FF7F0
FFFFFFF0
FFFFFFE0
BFFFFFD0
2FFFFF80
06FFF900
ENDCHAR
STARTCHAR Adieresis
ENCODING 196
SWIDTH 578 0
DWIDTH 14 0
BBX 14 22 0 0
BITMAP
006FA000
01FFFC00
03FFFE00
07CB2F00
07DB6F00
02FFFD00
07FFFD00
2F901F80
BF5A8BD0
FF5FCBE0
FF2FD7F0
FF2FD7F0
FF0007F0
FE2FD7F0
FE3FE3F0
FE3FE3F0
FE7FF7F0
FFFFFFF0
FFFFFFE0
BFFFFFD0
2FFFFF80
06FFF900
ENDCHAR
STARTCHAR Aring
ENCODING 197
SWIDTH 578 0
DWIDTH 14 0
BBX 14 23 0 0
BITMAP
00054000
00BFF000
02FAFC00
03D53D00
07DF7E00
07D53E00
03FAFD00
07FFFD00
2F901F80
BF5A8BD0
FF5FCBE0
FF2FD7F0
FF2FD7F0
FF0007F0
FE2FD7F0
FE3FE3F0
FE3FE3F0
FE7FF7F0
FFFFFFF0
FFFFFFE0
BFFFFFD0
2FFFFF80
06FFF900
ENDCHAR
STARTCHAR AE
ENCODING 198
SWIDTH 578 0
DWIDTH 14 0
BBX 14 16 0 0
BITMAP
07FFF900
2F400380
BE28ABD0
FE38FFE0
FE38FFF0
FD7857F0
FD78ABF0
FD78FFF0
FC00FFF0
FCB857F0
FDFD57F0
FFFFFFF0
FFFFFFE0
BFFFFFD0
2FFFFF80
06FFF900
ENDCHAR
STARTCHAR Ccedilla
ENCODING 199
SWIDTH 578 0
DWIDTH 14 0
BBX 14 16 0 0
BITMAP
07FFF900
2F401F80
BE2AAFD0
FE3FFFE0
FE3FFFF0
FE3FFFF0
FE3FFFF0
FE3FFFF0
FE3FFFF0
FE155FF0
FF945FF0
FFE1FFF0
FFDBFFE0
BFD1FFD0
2FFAFF80
06FFF900
ENDCHAR
STARTCHAR Egrave
ENCODING 200
SWIDTH 578 0
DWIDTH 14 0
BBX 14 23 0 0
BITMAP
01FE4000
07FF8000
0BD7C000
07E3D000
02F2E000
00FAF000
00BFE000
07FFF900
2F800B80
BF8AAFD0
FF8FFFE0
FF8FFFF0
FF855FF0
FF8AAFF0
FF8FFFF0
FF8FFFF0
FF855BF0
FF955BF0
FFFFFFF0
FFFFFFE0
BFFFFFD0
2FFFFF80
06FFF900
ENDCHAR
STARTCHAR Eacute
ENCODING 201
SWIDTH 578 0
DWIDTH 14 0
BBX 14 23 0 0
BITMAP
000BF800
001FFE00
002F2F00
003E7E00
007DBC00
007DF800
007FF000
07FFF900
2F800B80
BF8AAFD0
FF8FFFE0
FF8FFFF0
FF855FF0
FF8AAFF0
FF8FFFF0
FF8FFFF0
FF855BF0
FF955BF0
FFFFFFF0
FFFFFFE0
BFFFFFD0
2FFFFF80
06FFF900
ENDCHAR
STARTCHAR Ecircumflex
ENCODING 202
SWIDTH 578 0
DWIDTH 14 0
BBX 14 24 0 0
BITMAP
00064000
002FE000
007EF400
00B9B800
01F67D00
02F77E00
02EBAE00
02FFFE00
07FFFE00
2F800B80
BF8AAFD0
FF8FFFE0
FF8FFFF0
FF855FF0
FF8AAFF0
FF8FFFF0
FF8FFFF0
FF855BF0
FF955BF0
FFFFFFF0
FFFFFFE0
BFFFFFD0
2FFFFF80
06FFF900
ENDCHAR
STARTCHAR Edieresis
ENCODING 203
SWIDTH 578 0
DWIDTH 14 0
BBX 14 22 0 0
BITMAP
002BE400
01FFFD00
03FFFF00
03D75F40
03EBAF00
02FFFE00
07FFFD00
2F800B80
BF8AAFD0
FF8FFFE0
FF8FFFF0
FF855FF0
FF8AAFF0
FF8FFFF0
FF8FFFF0
FF855BF0
FF955BF0
FFFFFFF0
FFFFFFE0
BFFFFFD0
2FFFFF80
06FFF900
ENDCHAR
STARTCHAR Igrave
ENCODING 204
SWIDTH 578 0
DWIDTH 14 0
BBX 14 23 0 0
BITMAP
01BE4000
07FFC000
07D7D000
03E3E000
02F6E000
00F9F000
007FF000
07FFF900
2F400380
BFA8ABD0
FFFCBFE0
FFFCBFF0
FFFCBFF0
FFFCBFF0
FFFCBFF0
FFFCBFF0
FF9457F0
FF5557F0
FFFFFFF0
FFFFFFE0
BFFFFFD0
2FFFFF80
06FFF900
ENDCHAR
STARTCHAR Iacute
ENCODING 205
SWIDTH 578 0
DWIDTH 14 0
BBX 14 23 0 0
BITMAP
0007F800
001FFF00
002F2F00
003E3E00
003DBD00
007DF800
007FF000
07FFF900
2F400380
BFA8ABD0
FFFCBFE0
FFFCBFF0
FFFCBFF0
FFFCBFF0
FFFCBFF0
FFFCBFF0
FF9457F0
FF5557F0
FFFFFFF0
FFFFFFE0
BFFFFFD0
2FFFFF80
06FFF900
ENDCHAR
STARTCHAR Icircumflex
ENCODING 206
SWIDTH 578 0
DWIDTH 14 0
BBX 14 24 0 0
BITMAP
00064000
002FF000
007EF400
00B9BC00
00F67D00
01F76E00
02EBAF00
02FFFE00
07FFFE00
2F400380
BFA8ABD0
FFFCBFE0
FFFCBFF0
FFFCBFF0
FFFCBFF0
FFFCBFF0
FFFCBFF0
FF9457F0
FF5557F0
FFFFFFF0
FFFFFFE0
BFFFFFD0
2FFFFF80
06FFF900
ENDCHAR
STARTCHAR Idieresis
ENCODING 207
SWIDTH 578 0
DWIDTH 14 0
BBX 14 22 0 0
BITMAP
002BE400
01FFFD00
02FFFF00
03D75F40
03EBAF40
01FFFE00
07FFFD00
2F400380
BFA8ABD0
FFFCBFE0
FFFCBFF0
FFFCBFF0
FFFCBFF0
FFFCBFF0
FFFCBFF0
FF9457F0
FF5557F0
FFFFFFF0
FFFFFFE0
BFFFFFD0
2FFFFF80
06FFF900
ENDCHAR
STARTCHAR Eth
ENCODING 208
SWIDTH 578 0
DWIDTH 14 0
BBX 14 16 0 0
BITMAP
07FFF900
2F000780
BF2AA3D0
FF3FF2E0
FF3FF2F0
FD1FF2F0
FE2FF2F0
FF3FF2F0
FF3FF2F0
FF1553F0
FF555BF0
FFFFFFF0
FFFFFFE0
BFFFFFD0
2FFFFF80
06FFF900
ENDCHAR
STARTCHAR Ntilde
ENCODING 209
SWIDTH 578 0
DWIDTH 14 0
BBX 14 23 0 0
BITMAP
006A9000
02FFF800
07FFFE00
0FFFFF00
0FFFBF40
0F412F00
0BAEBE00
0BFFFE00
2F400B80
BE2A93D0
FE3FE3E0
FE3FE3F0
FE3FE3F0
FE3FE3F0
FE3FE3F0
FE3FE3F0
FE3FE3F0
FF7FE7F0
FFFFFFF0
FFFFFFE0
BFFFFFD0
2FFFFF80
06FFF900
ENDCHAR
STARTCHAR Ograve
ENCODING 210
SWIDTH 578 0
DWIDTH 14 0
BBX 14 23 0 0
BITMAP
01FE0000
07FF8000
0BD7C000
07E7D000
02F3E000
01FAE000
00BFE000
07FFF900
2F400780
BF2AA3D0
FE3FF3E0
FE3FF3F0
FE3FF3F0
FE3FF3F0
FE3FF3F0
FE3FF3F0
FF1553F0
FF955BF0
FFFFFFF0
FFFFFFE0
BFFFFFD0
2FFFFF80
06FFF900
ENDCHAR
STARTCHAR Oacute
ENCODING 211
SWIDTH 578 0
DWIDTH 14 0
BBX 14 23 0 0
BITMAP
000BF800
001FFE00
002E3F00
003E7E00
007DBC00
007DF400
007FF000
07FFF900
2F400780
BF2AA3D0
FE3FF3E0
FE3FF3F0
FE3FF3F0
FE3FF3F0
FE3FF3F0
FE3FF3F0
FF1553F0
FF955BF0
FFFFFFF0
FFFFFFE0
BFFFFFD0
2FFFFF80
06FFF900
ENDCHAR
STARTCHAR Ocircumflex
ENCODING 212
SWIDTH 578 0
DWIDTH 14 0
BBX 14 24 0 0
BITMAP
00064000
003FE000
007EF400
00F9B800
01F67C00
02E77D00
03EBAE00
02FFFE00
07FFFD00
2F400780
BF2AA3D0
FE3FF3E0
FE3FF3F0
FE3FF3F0
FE3FF3F0
FE3FF3F0
FE3FF3F0
FF1553F0
FF955BF0
FFFFFFF0
FFFFFFE0
BFFFFFD0
2FFFFF80
06FFF900
ENDCHAR
STARTCHAR Otilde
ENCODING 213
SWIDTH 578 0
DWIDTH 14 0
BBX 14 23 0 0
BITMAP
001A9000
01FFFD00
03FFFF00
0BFFFF40
0BFFEF80
0BC14F80
07EEAF40
07FFFF00
2F400780
BF2AA3D0
FE3FF3E0
FE3FF3F0
FE3FF3F0
FE3FF3F0
FE3FF3F0
FE3FF3F0
FF1553F0
FF955BF0
FFFFFFF0
FFFFFFE0
BFFFFFD0
2FFFFF80
06FFF900
ENDCHAR
STARTCHAR Odieresis
ENCODING 214
SWIDTH 578 0
DWIDTH 14 0
BBX 14 22 0 0
BITMAP
002FA000
01FFFD00
03FFFF00
07C75F00
03DBAF00
02FFFE00
07FFFD00
2F400780
BF2AA3D0
FE3FF3E0
FE3FF3F0
FE3FF3F0
FE3FF3F0
FE3FF3F0
FE3FF3F0
FF1553F0
FF955BF0
FFFFFFF0
FFFFFFE0
BFFFFFD0
2FFFFF80
06FFF900
ENDCHAR
STARTCHAR multiply
ENCODING 215
SWIDTH 578 0
DWIDTH 14 0
BBX 14 16 0 0
BITMAP
07FFF900
2FFFFF80
BFFFFFD0
FFEFEFE0
FFE62FF0
FFF4BFF0
FFF17FF0
FFDBAFF0
FFFFFFF0
FFFFFFF0
FFFFFFF0
FFFFFFF0
FFFFFFE0
BFFFFFD0
2FFFFF80
06FFF900
ENDCHAR
STARTCHAR Oslash
ENCODING 216
SWIDTH 578 0
DWIDTH 14 0
BBX 14 16 0 0
BITMAP
07FFF900
2F400B80
BE2A83D0
FE3F53E0
FE3E63F0
FE3CA3F0
FE35E3F0
FE23E3F0
FE0BE3F0
FE0553F0
FF955BF0
FFFFFFF0
FFFFFFE0
BFFFFFD0
2FFFFF80
06FFF900
ENDCHAR
STARTCHAR Ugrave
ENCODING 217
SWIDTH 578 0
DWIDTH 14 0
BBX 14 23 0 0
BITMAP
01FE4000
07FF8000
0BD7C000
07E3D000
02F2E000
00FAF000
00BFE000
07FFF900
2E3FF380
BE3FF3D0
FE3FF3E0
FE3FF3F0
FE3FF3F0
FE3FF3F0
FE3FF3F0
FE3FE3F0
FF1553F0
FF955BF0
FFFFFFF0
FFFFFFE0
BFFFFFD0
2FFFFF80
06FFF900
ENDCHAR
STARTCHAR Uacute
ENCODING 218
SWIDTH 578 0
DWIDTH 14 0
BBX 14 23 0 0
BITMAP
000BF800
001FFE00
002F2F00
003E7E00
007DBC00
007DF800
007FF000
07FFF900
2E3FF380
BE3FF3D0
FE3FF3E0
FE3FF3F0
FE3FF3F0
FE3FF3F0
FE3FF3F0
FE3FE3F0
FF1553F0
FF955BF0
FFFFFFF0
FFFFFFE0
BFFFFFD0
2FFFFF80
06FFF900
ENDCHAR
STARTCHAR Ucircumflex
ENCODING 219
SWIDTH 578 0
DWIDTH 14 0
BBX 14 24 0 0
BITMAP
00064000
002FE000
007EF400
00B9B800
01F67D00
02F77E00
02EBAE00
02FFFE00
07FFFE00
2E3FF380
BE3FF3D0
FE3FF3E0
FE3FF3F0
FE3FF3F0
FE3FF3F0
FE3FF3F0
FE3FE3F0
FF1553F0
FF955BF0
FFFFFFF0
FFFFFFE0
BFFFFFD0
2FFFFF80
06FFF900
ENDCHAR
STARTCHAR Udieresis
ENCODING 220
SWIDTH 578 0
DWIDTH 14 0
BBX 14 22 0 0
BITMAP
002BE400
01FFFD00
03FFFF00
03D75F40
03EBAF00
02FFFE00
07FFFD00
2E3FF380
BE3FF3D0
FE3FF3E0
FE3FF3F0
FE3FF3F0
FE3FF3F0
FE3FF3F0
FE3FE3F0
FF1553F0
FF955BF0
FFFFFFF0
FFFFFFE0
BFFFFFD0
2FFFFF80
06FFF900
ENDCHAR
STARTCHAR Yacute
ENCODING 221
SWIDTH 578 0
DWIDTH 14 0
BBX 14 23 0 0
BITMAP
000BF800
001FFE00
002E2F00
003E7E00
007DBC00
007DF800
007FF000
07FFF900
2F1FD380
BF8FCBD0
FFCB8FE0
FFD75FF0
FFE23FF0
FFF47FF0
FFF8BFF0
FFFCFFF0
FFFCFFF0
FFFDFFF0
FFFFFFF0
FFFFFFE0
BFFFFFD0
2FFFFF80
06FFF900
ENDCHAR
STARTCHAR Thorn
ENCODING 222
SWIDTH 578 0
DWIDTH 14 0
BBX 14 16 0 0
BITMAP
07AFF900
2F5FFF80
BF5AAFD0
FF4007E0
FF5FE3F0
FF5FE3F0
FF5A93F0
FF400BF0
FF5FFFF0
FF5FFFF0
FFAFFFF0
FFFFFFF0
FFFFFFE0
BFFFFFD0
2FFFFF80
06FFF900
ENDCHAR
STARTCHAR germandbls
ENCODING 223
SWIDTH 578 0
DWIDTH 14 0
BBX 14 16 0 0
BITMAP
07FFF900
2F401F80
BE2A8BD0
FE3FD7E0
FE3FCBF0
FE3F0BF0
FE3FE3F0
FE3FF3F0
FE3FE3F0
FE3953F0
FE795BF0
FFFFFFF0
FFFFFFE0
BFFFFFD0
2FFFFF80
06FFF900
ENDCHAR
STARTCHAR agrave
ENCODING 224
SWIDTH 578 0
DWIDTH 14 0
BBX 14 23 0 0
BITMAP
01FE0000
07FF8000
0BD7C000
07E3D000
02F3E000
00FAF000
00BFE000
07FFF900
2F401F80
BFAA8BD0
FFFFCBE0
FFFFCBF0
FFAA8BF0
FE050BF0
FD7FCBF0
FD7FCBF0
FE154BF0
FF555FF0
FFFFFFF0
FFFFFFE0
BFFFFFD0
2FFFFF80
06FFF900
ENDCHAR
STARTCHAR aacute
ENCODING 225
SWIDTH 578 0
DWIDTH 14 0
BBX 14 23 0 0
BITMAP
000BF800
001FFE00
002F2F00
003E7E00
007DBC00
007DF800
007FF000
07FFF900
2F401F80
BFAA8BD0
FFFFCBE0
FFFFCBF0
FFAA8BF0
FE050BF0
FD7FCBF0
FD7FCBF0
FE154BF0
FF555FF0
FFFFFFF0
FFFFFFE0
BFFFFFD0
2FFFFF80
06FFF900
ENDCHAR
STARTCHAR acircumflex
ENCODING 226
SWIDTH 578 0
DWIDTH 14 0
BBX 14 24 0 0
BITMAP
00064000
003FE000
007EF400
00B9B800
01F67C00
02F77E00
02EBAE00
02FFFE00
07FFFD00
2F401F80
BFAA8BD0
FFFFCBE0
FFFFCBF0
FFAA8BF0
FE050BF0
FD7FCBF0
FD7FCBF0
FE154BF0
FF555FF0
FFFFFFF0
FFFFFFE0
BFFFFFD0
2FFFFF80
06FFF900
ENDCHAR
STARTCHAR atilde
ENCODING 227
SWIDTH 578 0
DWIDTH 14 0
BBX 14 23 0 0
BITMAP
001A9000
01FFFD00
03FFFF00
07FFFF40
0BFFEF80
0BC14F80
07EEAF40
07FFFF00
2F401F80
BFAA8BD0
FFFFCBE0
FFFFCBF0
FFAA8BF0
FE050BF0
FD7FCBF0
FD7FCBF0
FE154BF0
FF555FF0
FFFFFFF0
FFFFFFE0
BFFFFFD0
2FFFFF80
06FFF900
ENDCHAR
STARTCHAR adieresis
ENCODING 228
SWIDTH 578 0
DWIDTH 14 0
BBX 14 22 0 0
BITMAP
002BE400
01FFFD00
03FFFF00
03D75F40
03DBAF00
02FFFE00
07FFFD00
2F401F80
BFAA8BD0
FFFFCBE0
FFFFCBF0
FFAA8BF0
FE050BF0
FD7FCBF0
FD7FCBF0
FE154BF0
FF555FF0
FFFFFFF0
FFFFFFE0
BFFFFFD0
2FFFFF80
06FFF900
ENDCHAR
STARTCHAR aring
ENCODING 229
SWIDTH 578 0
DWIDTH 14 0
BBX 14 23 0 0
BITMAP
00054000
007FF400
01FAFC00
02E52E00
03DB6E00
03E52E00
02FABE00
07FFFE00
2F401F80
BFAA8BD0
FFFFCBE0
FFFFCBF0
FFAA8BF0
FE050BF0
FD7FCBF0
FD7FCBF0
FE154BF0
FF555FF0
FFFFFFF0
FFFFFFE0
BFFFFFD0
2FFFFF80
06FFF900
ENDCHAR
STARTCHAR ae
ENCODING 230
SWIDTH 578 0
DWIDTH 14 0
BBX 14 16 0 0
BITMAP
07FFF900
2F400380
BE28ABD0
FE38FFE0
FE38FFF0
FD7857F0
FD78ABF0
FD78FFF0
FC00FFF0
FCB857F0
FDFD57F0
FFFFFFF0
FFFFFFE0
BFFFFFD0
2FFFFF80
06FFF900
ENDCHAR
STARTCHAR ccedilla
ENCODING 231
SWIDTH 578 0
DWIDTH 14 0
BBX 14 16 0 0
BITMAP
07FFF900
2F401F80
BE2AAFD0
FE3FFFE0
FE3FFFF0
FE3FFFF0
FE3FFFF0
FE3FFFF0
FE3FFFF0
FE155FF0
FF945FF0
FFE1FFF0
FFDBFFE0
BFD6FFD0
2FFAFF80
06FFF900
ENDCHAR
STARTCHAR egrave
ENCODING 232
SWIDTH 578 0
DWIDTH 14 0
BBX 14 23 0 0
BITMAP
01FE0000
07FF8000
0BCBC000
07E7D000
02F3E000
01FAE000
00BFE000
07FFF900
2F401F80
BE2A8BD0
FE7FCBE0
FE2A8BF0
FE155BF0
FE7FFFF0
FE7FFFF0
FE3FFFF0
FF001FF0
FFEAAFF0
FFFFFFF0
FFFFFFE0
BFFFFFD0
2FFFFF80
06FFF900
ENDCHAR
STARTCHAR eacute
ENCODING 233
SWIDTH 578 0
DWIDTH 14 0
BBX 14 23 0 0
BITMAP
000BF400
002FFD00
003E3E00
007DBD00
00BCF800
00BAF400
00BFE000
07FFF900
2F401F80
BE2A8BD0
FE7FCBE0
FE2A8BF0
FE155BF0
FE7FFFF0
FE7FFFF0
FE3FFFF0
FF001FF0
FFEAAFF0
FFFFFFF0
FFFFFFE0
BFFFFFD0
2FFFFF80
06FFF900
ENDCHAR
STARTCHAR ecircumflex
ENCODING 234
SWIDTH 578 0
DWIDTH 14 0
BBX 14 24 0 0
BITMAP
001A4000
007FD000
00FFE000
01F5F400
02E5B800
03DA7C00
07DF7D00
07FFFC00
07FFFD00
2F401F80
BE2A8BD0
FE7FCBE0
FE2A8BF0
FE155BF0
FE7FFFF0
FE7FFFF0
FE3FFFF0
FF001FF0
FFEAAFF0
FFFFFFF0
FFFFFFE0
BFFFFFD0
2FFFFF80
06FFF900
ENDCHAR
STARTCHAR edieresis
ENCODING 235
SWIDTH 578 0
DWIDTH 14 0
BBX 14 22 0 0
BITMAP
006F9000
02FFF800
0BFFFD00
0B8E3E00
0B9E7D00
07FFFC00
07FFFD00
2F401F80
BE2A8BD0
FE7FCBE0
FE2A8BF0
FE155BF0
FE7FFFF0
FE7FFFF0
FE3FFFF0
FF001FF0
FFEAAFF0
FFFFFFF0
FFFFFFE0
BFFFFFD0
2FFFFF80
06FFF900
ENDCHAR
STARTCHAR igrave
ENCODING 236
SWIDTH 578 0
DWIDTH 14 0
BBX 14 23 0 0
BITMAP
01BE4000
07FF8000
07D7C000
07E3D000
02F6E000
00FAF000
007FE000
07FFF900
2F400380
BFA8ABD0
FFFCBFE0
FFFCBFF0
FFFCBFF0
FFFCBFF0
FFFCBFF0
FFFCBFF0
FF9457F0
FF5557F0
FFFFFFF0
FFFFFFE0
BFFFFFD0
2FFFFF80
06FFF900
ENDCHAR
STARTCHAR iacute
ENCODING 237
SWIDTH 578 0
DWIDTH 14 0
BBX 14 23 0 0
BITMAP
000BF800
001FFE00
002F2F00
003E7E00
007DBD00
007DF800
007FF000
07FFF900
2F400380
BFA8ABD0
FFFCBFE0
FFFCBFF0
FFFCBFF0
FFFCBFF0
FFFCBFF0
FFFCBFF0
FF9457F0
FF5557F0
FFFFFFF0
FFFFFFE0
BFFFFFD0
2FFFFF80
06FFF900
ENDCHAR
STARTCHAR icircumflex
ENCODING 238
SWIDTH 578 0
DWIDTH 14 0
BBX 14 24 0 0
BITMAP
00064000
002FE000
007EF400
00B9B800
01F67D00
02F77E00
02EBAE00
02FFFE00
07FFFE00
2F400380
BFA8ABD0
FFFCBFE0
FFFCBFF0
FFFCBFF0
FFFCBFF0
FFFCBFF0
FFFCBFF0
FF9457F0
FF5557F0
FFFFFFF0
FFFFFFE0
BFFFFFD0
2FFFFF80
06FFF900
ENDCHAR
STARTCHAR idieresis
ENCODING 239
SWIDTH 578 0
DWIDTH 14 0
BBX 14 22 0 0
BITMAP
002BE400
01FFFD00
03FFFF00
03D75F40
03EBAF00
02FFFE00
07FFFD00
2F400380
BFA8ABD0
FFFCBFE0
FFFCBFF0
FFFCBFF0
FFFCBFF0
FFFCBFF0
FFFCBFF0
FF9457F0
FF5557F0
FFFFFFF0
FFFFFFE0
BFFFFFD0
2FFFFF80
06FFF900
ENDCHAR
STARTCHAR eth
ENCODING 240
SWIDTH 578 0
DWIDTH 14 0
BBX 14 16 0 0
BITMAP
07FFF900
2F000780
BF2AA3D0
FF3FF2E0
FF3FF2F0
FD1FF2F0
FE2FF2F0
FF3FF2F0
FF3FF2F0
FF1553F0
FF555BF0
FFFFFFF0
FFFFFFE0
BFFFFFD0
2FFFFF80
06FFF900
ENDCHAR
STARTCHAR ntilde
ENCODING 241
SWIDTH 578 0
DWIDTH 14 0
BBX 14 23 0 0
BITMAP
006A9000
02FFF800
07FFFE00
0FFFFF00
0FFFBF40
0F412F00
0BBEBE00
0BFFFE00
2F400B80
BE2A93D0
FE3FE3E0
FE3FE3F0
FE3FE3F0
FE3FE3F0
FE3FE3F0
FE3FE3F0
FE3FE3F0
FF7FE7F0
FFFFFFF0
FFFFFFE0
BFFFFFD0
2FFFFF80
06FFF900
ENDCHAR
STARTCHAR oacute
ENCODING 243
SWIDTH 578 0
DWIDTH 14 0
BBX 14 23 0 0
BITMAP
000BF400
002FFD00
003E3E00
007DBD00
00BCF800
00B9F400
00BFE000
07FFF900
2F400780
BF2AA3D0
FE3FF3E0
FE3FF3F0
FE3FF3F0
FE3FF3F0
FE3FF3F0
FE3FF3F0
FF1553F0
FF955BF0
FFFFFFF0
FFFFFFE0
BFFFFFD0
2FFFFF80
06FFF900
ENDCHAR
STARTCHAR ocircumflex
ENCODING 244
SWIDTH 578 0
DWIDTH 14 0
BBX 14 24 0 0
BITMAP
00064000
002FE000
007EF400
00B9B800
01F67D00
02F77E00
02EBAE00
02FFFE00
07FFFE00
2F400780
BF2AA3D0
FE3FF3E0
FE3FF3F0
FE3FF3F0
FE3FF3F0
FE3FF3F0
FE3FF3F0
FF1553F0
FF955BF0
FFFFFFF0
FFFFFFE0
BFFFFFD0
2FFFFF80
06FFF900
ENDCHAR
STARTCHAR otilde
ENCODING 245
SWIDTH 578 0
DWIDTH 14 0
BBX 14 23 0 0
BITMAP
001A9000
01FFFC00
03FFFF00
0BFFFF40
0BFFEF80
0B815F40
07AE6F00
07FFFF00
2F400780
BF2AA3D0
FE3FF3E0
FE3FF3F0
FE3FF3F0
FE3FF3F0
FE3FF3F0
FE3FF3F0
FF1553F0
FF955BF0
FFFFFFF0
FFFFFFE0
BFFFFFD0
2FFFFF80
06FFF900
ENDCHAR
STARTCHAR odieresis
ENCODING 246
SWIDTH 578 0
DWIDTH 14 0
BBX 14 22 0 0
BITMAP
002BE400
01FFFD00
03FFFF00
03D75F40
03EBAF00
02FFFE00
07FFFD00
2F400780
BF2AA3D0
FE3FF3E0
FE3FF3F0
FE3FF3F0
FE3FF3F0
FE3FF3F0
FE3FF3F0
FF1553F0
FF955BF0
FFFFFFF0
FFFFFFE0
BFFFFFD0
2FFFFF80
06FFF900
ENDCHAR
STARTCHAR divide
ENCODING 247
SWIDTH 428 0
DWIDTH 10 0
BBX 11 16 0 0
BITMAP
07FE00
2FFFD0
BF4FE0
FFAFF4
FC02F4
FEABF4
FF4FF4
FFAFF4
FFFFF4
FFFFF4
FFFFF4
FFFFF4
FFFFF4
BFFFE0
2FFFC0
06FE00
ENDCHAR
STARTCHAR oslash
ENCODING 248
SWIDTH 578 0
DWIDTH 14 0
BBX 14 16 0 0
BITMAP
07FFF900
2F400B80
BE2A83D0
FE3F53E0
FE3E63F0
FE3CA3F0
FE35E3F0
FE23E3F0
FE0BE3F0
FE0553F0
FF955BF0
FFFFFFF0
FFFFFFE0
BFFFFFD0
2FFFFF80
06FFF900
ENDCHAR
STARTCHAR ugrave
ENCODING 249
SWIDTH 578 0
DWIDTH 14 0
BBX 14 23 0 0
BITMAP
01BE4000
07FF8000
07D7C000
07E3D000
02F6E000
00FAF000
007FE000
07FFF900
2E3FF380
BE3FF3D0
FE3FF3E0
FE3FF3F0
FE3FF3F0
FE3FF3F0
FE3FF3F0
FE3FE3F0
FF1553F0
FF955BF0
FFFFFFF0
FFFFFFE0
BFFFFFD0
2FFFFF80
06FFF900
ENDCHAR
STARTCHAR uacute
ENCODING 250
SWIDTH 578 0
DWIDTH 14 0
BBX 14 23 0 0
BITMAP
000BF800
001FFE00
002F2F00
003E7E00
007DBD00
007DF800
007FF000
07FFF900
2E3FF380
BE3FF3D0
FE3FF3E0
FE3FF3F0
FE3FF3F0
FE3FF3F0
FE3FF3F0
FE3FE3F0
FF1553F0
FF955BF0
FFFFFFF0
FFFFFFE0
BFFFFFD0
2FFFFF80
06FFF900
ENDCHAR
STARTCHAR ucircumflex
ENCODING 251
SWIDTH 578 0
DWIDTH 14 0
BBX 14 24 0 0
BITMAP
00064000
002FE000
007EF400
00B9B800
01F67D00
02F77E00
02EBAE00
02FFFE00
07FFFE00
2E3FF380
BE3FF3D0
FE3FF3E0
FE3FF3F0
FE3FF3F0
FE3FF3F0
FE3FF3F0
FE3FE3F0
FF1553F0
FF955BF0
FFFFFFF0
FFFFFFE0
BFFFFFD0
2FFFFF80
06FFF900
ENDCHAR
STARTCHAR udieresis
ENCODING 252
SWIDTH 578 0
DWIDTH 14 0
BBX 14 22 0 0
BITMAP
002BE400
01FFFD00
03FFFF00
03D75F40
03EBAF00
02FFFE00
07FFFD00
2E3FF380
BE3FF3D0
FE3FF3E0
FE3FF3F0
FE3FF3F0
FE3FF3F0
FE3FF3F0
FE3FE3F0
FF1553F0
FF955BF0
FFFFFFF0
FFFFFFE0
BFFFFFD0
2FFFFF80
06FFF900
ENDCHAR
STARTCHAR yacute
ENCODING 253
SWIDTH 578 0
DWIDTH 14 0
BBX 14 23 0 0
BITMAP
000BF800
001FFE00
002E2F00
003E7E00
007DBC00
007DF800
007FF000
07FFF900
2F1FD380
BF8FCBD0
FFCB8FE0
FFD75FF0
FFE23FF0
FFF47FF0
FFF8BFF0
FFFCFFF0
FFFCFFF0
FFFDFFF0
FFFFFFF0
FFFFFFE0
BFFFFFD0
2FFFFF80
06FFF900
ENDCHAR
STARTCHAR thorn
ENCODING 254
SWIDTH 578 0
DWIDTH 14 0
BBX 14 16 0 0
BITMAP
07AFF900
2F5FFF80
BF5AAFD0
FF4007E0
FF5FE3F0
FF5FE3F0
FF5A93F0
FF400BF0
FF5FFFF0
FF5FFFF0
FFAFFFF0
FFFFFFF0
FFFFFFE0
BFFFFFD0
2FFFFF80
06FFF900
ENDCHAR
STARTCHAR ydieresis
ENCODING 255
SWIDTH 578 0
DWIDTH 14 0
BBX 14 22 0 0
BITMAP
002FE000
01FFFD00
03FFFF00
07C75F40
03DBAF00
02FFFE00
07FFFD00
2F1FD380
BF8FCBD0
FFCB8FE0
FFD75FF0
FFE23FF0
FFF47FF0
FFF8BFF0
FFFCFFF0
FFFCFFF0
FFFDFFF0
FFFFFFF0
FFFFFFE0
BFFFFFD0
2FFFFF80
06FFF900
ENDCHAR
STARTCHAR Amacron
ENCODING 256
SWIDTH 578 0
DWIDTH 14 0
BBX 14 22 0 0
BITMAP
006FE400
02FFFD00
0BFFFF40
0FD56F40
0BD56F40
07FFFF00
07FFFE00
2F901F80
BF5A8BD0
FF5FCBE0
FF2FD7F0
FF2FD7F0
FF0007F0
FE2FD7F0
FE3FE3F0
FE3FE3F0
FE7FF7F0
FFFFFFF0
FFFFFFE0
BFFFFFD0
2FFFFF80
06FFF900
ENDCHAR
STARTCHAR amacron
ENCODING 257
SWIDTH 578 0
DWIDTH 14 0
BBX 14 22 0 0
BITMAP
006FE400
02FFFE00
07FFFF40
0BD56F80
0BE56F80
07FFFF40
07FFFE00
2F401F80
BFAA8BD0
FFFFCBE0
FFFFCBF0
FFAA8BF0
FE050BF0
FD7FCBF0
FD7FCBF0
FE154BF0
FF555FF0
FFFFFFF0
FFFFFFE0
BFFFFFD0
2FFFFF80
06FFF900
ENDCHAR
STARTCHAR Abreve
ENCODING 258
SWIDTH 578 0
DWIDTH 14 0
BBX 14 22 0 0
BITMAP
006FE400
02FFFD00
0BFFFF40
0FEFAF40
0BD52F40
07FABF00
07FFFE00
2F901F80
BF5A8BD0
FF5FCBE0
FF2FD7F0
FF2FD7F0
FF0007F0
FE2FD7F0
FE3FE3F0
FE3FE3F0
FE7FF7F0
FFFFFFF0
FFFFFFE0
BFFFFFD0
2FFFFF80
06FFF900
ENDCHAR
STARTCHAR abreve
ENCODING 259
SWIDTH 578 0
DWIDTH 14 0
BBX 14 22 0 0
BITMAP
006FE400
02FFFE00
07FFFF40
0BEBAF80
0BE55F80
07FABF40
07FFFE00
2F401F80
BFAA8BD0
FFFFCBE0
FFFFCBF0
FFAA8BF0
FE050BF0
FD7FCBF0
FD7FCBF0
FE154BF0
FF555FF0
FFFFFFF0
FFFFFFE0
BFFFFFD0
2FFFFF80
06FFF900
ENDCHAR
STARTCHAR Aogonek
ENCODING 260
SWIDTH 578 0
DWIDTH 14 0
BBX 14 16 0 0
BITMAP
07FFF900
2F901F80
BF5A8BD0
FF5FCBE0
FF2FD7F0
FF2FD7F0
FF0007F0
FE2FD7F0
FE3FE3F0
FE3FE3F0
FE7FE3F0
FFFFCBF0
FFFF9FE0
BFFF87D0
2FFFEB80
06FFF900
ENDCHAR
STARTCHAR aogonek
ENCODING 261
SWIDTH 578 0
DWIDTH 14 0
BBX 14 16 0 0
BITMAP
07FFF900
2F401F80
BFAA8BD0
FFFFCBE0
FFFFCBF0
FFAA8BF0
FE050BF0
FD7FCBF0
FD7FCBF0
FE154BF0
FF545FF0
FFF5FFF0
FFE3FFE0
BFF1FFD0
2FFAFF80
06FFF900
ENDCHAR
STARTCHAR Cacute
ENCODING 262
SWIDTH 578 0
DWIDTH 14 0
BBX 14 23 0 0
BITMAP
0007F800
001FFF00
002F2F00
003E3E00
003DBD00
007DF800
007FF000
07FFF900
2F401F80
BE2AAFD0
FE3FFFE0
FE3FFFF0
FE3FFFF0
FE3FFFF0
FE3FFFF0
FE3FFFF0
FE155FF0
FF955FF0
FFFFFFF0
FFFFFFE0
BFFFFFD0
2FFFFF80
06FFF900
ENDCHAR
STARTCHAR cacute
ENCODING 263
SWIDTH 578 0
DWIDTH 14 0
BBX 14 23 0 0
BITMAP
000BF800
001FFE00
002F2F00
003E7E00
007DBC00
007DF800
007FF000
07FFF900
2F401F80
BE2AAFD0
FE3FFFE0
FE3FFFF0
FE3FFFF0
FE3FFFF0
FE3FFFF0
FE3FFFF0
FE155FF0
FF955FF0
FFFFFFF0
FFFFFFE0
BFFFFFD0
2FFFFF80
06FFF900
ENDCHAR
STARTCHAR Ccircumflex
ENCODING 264
SWIDTH 578 0
DWIDTH 14 0
BBX 14 24 0 0
BITMAP
00064000
003FE000
00BEF000
00F5F800
01F67C00
02E73D00
03EBBE00
03FFFD00
07FFFD00
2F401F80
BE2AAFD0
FE3FFFE0
FE3FFFF0
FE3FFFF0
FE3FFFF0
FE3FFFF0
FE3FFFF0
FE155FF0
FF955FF0
FFFFFFF0
FFFFFFE0
BFFFFFD0
2FFFFF80
06FFF900
ENDCHAR
STARTCHAR ccircumflex
ENCODING 265
SWIDTH 578 0
DWIDTH 14 0
BBX 14 24 0 0
BITMAP
00064000
003FE000
00BEF000
00F5F800
01F6BC00
02E77D00
03EB7E00
03FFFD00
07FFFD00
2F401F80
BE2AAFD0
FE3FFFE0
FE3FFFF0
FE3FFFF0
FE3FFFF0
FE3FFFF0
FE3FFFF0
FE155FF0
FF955FF0
FFFFFFF0
FFFFFFE0
BFFFFFD0
2FFFFF80
06FFF900
ENDCHAR
STARTCHAR Cdotaccent
ENCODING 266
SWIDTH 578 0
DWIDTH 14 0
BBX 14 22 0 0
BITMAP
01BF9000
07FFF800
0FFFFE00
1FF6FF00
1FF6FF00
0FFFFE00
0FFFFE00
2F401F80
BE2AAFD0
FE3FFFE0
FE3FFFF0
FE3FFFF0
FE3FFFF0
FE3FFFF0
FE3FFFF0
FE155FF0
FF955FF0
FFFFFFF0
FFFFFFE0
BFFFFFD0
2FFFFF80
06FFF900
ENDCHAR
STARTCHAR cdotaccent
ENCODING 267
SWIDTH 578 0
DWIDTH 14 0
BBX 14 22 0 0
BITMAP
00BFE000
07FFFD00
0FFFFF00
1FF5FF00
0FF5FF00
0FFFFE00
0BFFFE00
2F401F80
BE2AAFD0
FE3FFFE0
FE3FFFF0
FE3FFFF0
FE3FFFF0
FE3FFFF0
FE3FFFF0
FE155FF0
FF955FF0
FFFFFFF0
FFFFFFE0
BFFFFFD0
2FFFFF80
06FFF900
ENDCHAR
STARTCHAR Ccaron
ENCODING 268
SWIDTH 578 0
DWIDTH 14 0
BBX 14 23 0 0
BITMAP
01A6A400
07FFFC00
07DE7C00
07DDBC00
03E9F800
02F5F400
01FFF000
07FFF900
2F401F80
BE2AAFD0
FE3FFFE0
FE3FFFF0
FE3FFFF0
FE3FFFF0
FE3FFFF0
FE3FFFF0
FE155FF0
FF955FF0
FFFFFFF0
FFFFFFE0
BFFFFFD0
2FFFFF80
06FFF900
ENDCHAR
STARTCHAR ccaron
ENCODING 269
SWIDTH 578 0
DWIDTH 14 0
BBX 14 23 0 0
BITMAP
01A9A400
03FFFC00
07DF7D00
03DA7D00
03F5BC00
02F5F800
01FFF400
07FFFD00
2F401F80
BE2AAFD0
FE3FFFE0
FE3FFFF0
FE3FFFF0
FE3FFFF0
FE3FFFF0
FE3FFFF0
FE155FF0
FF955FF0
FFFFFFF0
FFFFFFE0
BFFFFFD0
2FFFFF80
06FFF900
ENDCHAR
STARTCHAR Dcaron
ENCODING 270
SWIDTH 578 0
DWIDTH 14 0
BBX 14 23 0 0
BITMAP
01A6A400
07FFFC00
07DF7D00
07DABC00
03E5FC00
02F5F800
01FFF400
07FFF900
2F000780
BF2AA3D0
FF3FF2E0
FF3FF2F0
FF3FF2F0
FF3FF2F0
FF3FF2F0
FF3FF2F0
FF1553F0
FF555BF0
FFFFFFF0
FFFFFFE0
BFFFFFD0
2FFFFF80
06FFF900
ENDCHAR
STARTCHAR dcaron
ENCODING 271
SWIDTH 578 0
DWIDTH 14 0
BBX 14 16 0 0
BITMAP
07FFF900
2C002180
BCAA55D0
FCFF56E0
FCFF5FF0
FCFF5FF0
FCFF5FF0
FCFF5FF0
FCFF5FF0
FC551FF0
FD557FF0
FFFFFFF0
FFFFFFE0
BFFFFFD0
2FFFFF80
06FFF900
ENDCHAR
STARTCHAR Dcroat
ENCODING 272
SWIDTH 578 0
DWIDTH 14 0
BBX 14 16 0 0
BITMAP
07FFF900
2F000780
BF2AA3D0
FF3FF2E0
FE2FF2F0
F407F2F0
FE3FF2F0
FF3FF2F0
FF3FF2F0
FF1553F0
FF555BF0
FFFFFFF0
FFFFFFE0
BFFFFFD0
2FFFFF80
06FFF900
ENDCHAR
STARTCHAR dcroat
ENCODING 273
SWIDTH 578 0
DWIDTH 14 0
BBX 14 16 0 0
BITMAP
07FFF900
2F000780
BF2AA3D0
FF3FF2E0
FE2FF2F0
F407F2F0
FE3FF2F0
FF3FF2F0
FF3FF2F0
FF1553F0
FF555BF0
FFFFFFF0
FFFFFFE0
BFFFFFD0
2FFFFF80
06FFF900
ENDCHAR
STARTCHAR Emacron
ENCODING 274
SWIDTH 578 0
DWIDTH 14 0
BBX 14 22 0 0
BITMAP
006FE400
02FFFE00
07FFFF40
0BD56F80
0BE56F80
03FFFF40
07FFFE00
2F800B80
BF8AAFD0
FF8FFFE0
FF8FFFF0
FF855FF0
FF8AAFF0
FF8FFFF0
FF8FFFF0
FF855BF0
FF955BF0
FFFFFFF0
FFFFFFE0
BFFFFFD0
2FFFFF80
06FFF900
ENDCHAR
STARTCHAR emacron
ENCODING 275
SWIDTH 578 0
DWIDTH 14 0
BBX 14 22 0 0
BITMAP
00BFE000
07FFFD00
0FFFFE00
1F957F00
0F957F00
0BFFFE00
0BFFFD00
2F401F80
BE2A8BD0
FE7FCBE0
FE2A8BF0
FE155BF0
FE7FFFF0
FE7FFFF0
FE3FFFF0
FF001FF0
FFEAAFF0
FFFFFFF0
FFFFFFE0
BFFFFFD0
2FFFFF80
06FFF900
ENDCHAR
STARTCHAR Ebreve
ENCODING 276
SWIDTH 578 0
DWIDTH 14 0
BBX 14 22 0 0
BITMAP
006FE400
02FFFE00
07FFFF40
0BEBAF80
0BE15F80
03FABF40
07FFFE00
2F800B80
BF8AAFD0
FF8FFFE0
FF8FFFF0
FF855FF0
FF8AAFF0
FF8FFFF0
FF8FFFF0
FF855BF0
FF955BF0
FFFFFFF0
FFFFFFE0
BFFFFFD0
2FFFFF80
06FFF900
ENDCHAR
STARTCHAR ebreve
ENCODING 277
SWIDTH 578 0
DWIDTH 14 0
BBX 14 22 0 0
BITMAP
00BFE000
07FFFD00
0FFFFE00
1FEFBF00
0FC53F00
0BFAFE00
0BFFFD00
2F401F80
BE2A8BD0
FE7FCBE0
FE2A8BF0
FE155BF0
FE7FFFF0
FE7FFFF0
FE3FFFF0
FF001FF0
FFEAAFF0
FFFFFFF0
FFFFFFE0
BFFFFFD0
2FFFFF80
06FFF900
ENDCHAR
STARTCHAR Edotaccent
ENCODING 278
SWIDTH 578 0
DWIDTH 14 0
BBX 14 22 0 0
BITMAP
006FE400
02FFFE00
07FFFF40
0BF9BF80
0BF9BF80
07FFFF40
07FFFF00
2F800B80
BF8AAFD0
FF8FFFE0
FF8FFFF0
FF855FF0
FF8AAFF0
FF8FFFF0
FF8FFFF0
FF855BF0
FF955BF0
FFFFFFF0
FFFFFFE0
BFFFFFD0
2FFFFF80
06FFF900
ENDCHAR
STARTCHAR edotaccent
ENCODING 279
SWIDTH 578 0
DWIDTH 14 0
BBX 14 22 0 0
BITMAP
00BFE000
07FFFD00
0FFFFE00
1FF6FF00
0FF5FF00
0FFFFE00
0BFFFE00
2F401F80
BE2A8BD0
FE7FCBE0
FE2A8BF0
FE155BF0
FE7FFFF0
FE7FFFF0
FE3FFFF0
FF001FF0
FFEAAFF0
FFFFFFF0
FFFFFFE0
BFFFFFD0
2FFFFF80
06FFF900
ENDCHAR
STARTCHAR Eogonek
ENCODING 280
SWIDTH 578 0
DWIDTH 14 0
BBX 14 16 0 0
BITMAP
07FFF900
2F800B80
BF8AAFD0
FF8FFFE0
FF8FFFF0
FF855FF0
FF8AAFF0
FF8FFFF0
FF8FFFF0
FF855BF0
FF9547F0
FFFF9FF0
FFFF2FE0
BFFF5BD0
2FFFEB80
06FFF900
ENDCHAR
STARTCHAR eogonek
ENCODING 281
SWIDTH 578 0
DWIDTH 14 0
BBX 14 16 0 0
BITMAP
07FFF900
2F401F80
BE2A8BD0
FE7FCBE0
FE2A8BF0
FE155BF0
FE7FFFF0
FE7FFFF0
FE3FFFF0
FF001FF0
FFE96FF0
FFF5FFF0
FFF6FFE0
BFF87FD0
2FFFFF80
06FFF900
ENDCHAR
STARTCHAR Ecaron
ENCODING 282
SWIDTH 578 0
DWIDTH 14 0
BBX 14 23 0 0
BITMAP
00A9A800
02FFFE00
02EBAF00
02F77E00
01F67E00
00F8BD00
00BFFC00
07FFFD00
2F800B80
BF8AAFD0
FF8FFFE0
FF8FFFF0
FF855FF0
FF8AAFF0
FF8FFFF0
FF8FFFF0
FF855BF0
FF955BF0
FFFFFFF0
FFFFFFE0
BFFFFFD0
2FFFFF80
06FFF900
ENDCHAR
STARTCHAR ecaron
ENCODING 283
SWIDTH 578 0
DWIDTH 14 0
BBX 14 23 0 0
BITMAP
01A6A400
07FFFC00
07DF7D00
07DABC00
03E5FC00
02F5F800
01FFF400
07FFF900
2F401F80
BE2A8BD0
FE7FCBE0
FE2A8BF0
FE155BF0
FE7FFFF0
FE7FFFF0
FE3FFFF0
FF001FF0
FFEAAFF0
FFFFFFF0
FFFFFFE0
BFFFFFD0
2FFFFF80
06FFF900
ENDCHAR
STARTCHAR Gcircumflex
ENCODING 284
SWIDTH 578 0
DWIDTH 14 0
BBX 14 24 0 0
BITMAP
00064000
007FD000
00BEF000
00F5F400
02F6BC00
03EB7D00
03DF7D00
03FFFD00
07FFFD00
2F800B80
BF1AABD0
FF2FFFE0
FF2FFFF0
FF2FABF0
FF2E03F0
FF2FF3F0
FF2FF3F0
FF1553F0
FF955BF0
FFFFFFF0
FFFFFFE0
BFFFFFD0
2FFFFF80
06FFF900
ENDCHAR
STARTCHAR gcircumflex
ENCODING 285
SWIDTH 578 0
DWIDTH 14 0
BBX 14 24 0 0
BITMAP
00064000
007FD000
00BEF000
00F5F400
02F6BC00
03EB7D00
03DF7D00
03FFFD00
07FFFD00
2F800B80
BF1AABD0
FF2FFFE0
FF2FFFF0
FF2FABF0
FF2E03F0
FF2FF3F0
FF2FF3F0
FF1553F0
FF955BF0
FFFFFFF0
FFFFFFE0
BFFFFFD0
2FFFFF80
06FFF900
ENDCHAR
STARTCHAR Gbreve
ENCODING 286
SWIDTH 578 0
DWIDTH 14 0
BBX 14 22 0 0
BITMAP
006FE400
03FFFD00
0BFFFF00
0FEFAF40
0FD52F40
0BFABF00
07FFFE00
2F800B80
BF1AABD0
FF2FFFE0
FF2FFFF0
FF2FABF0
FF2E03F0
FF2FF3F0
FF2FF3F0
FF1553F0
FF955BF0
FFFFFFF0
FFFFFFE0
BFFFFFD0
2FFFFF80
06FFF900
ENDCHAR
STARTCHAR gbreve
ENCODING 287
SWIDTH 578 0
DWIDTH 14 0
BBX 14 22 0 0
BITMAP
00BFE000
07FFFD00
0FFFFE00
1FEFBF00
0FC53F00
0BFAFE00
0BFFFD00
2F800B80
BF1AABD0
FF2FFFE0
FF2FFFF0
FF2FABF0
FF2E03F0
FF2FF3F0
FF2FF3F0
FF1553F0
FF955BF0
FFFFFFF0
FFFFFFE0
BFFFFFD0
2FFFFF80
06FFF900
ENDCHAR
STARTCHAR Gdotaccent
ENCODING 288
SWIDTH 578 0
DWIDTH 14 0
BBX 14 22 0 0
BITMAP
00BFE000
07FFFD00
0FFFFE00
1FF6FF00
0FF5FF00
0FFFFE00
0BFFFE00
2F800B80
BF1AABD0
FF2FFFE0
FF2FFFF0
FF2FABF0
FF2E03F0
FF2FF3F0
FF2FF3F0
FF1553F0
FF955BF0
FFFFFFF0
FFFFFFE0
BFFFFFD0
2FFFFF80
06FFF900
ENDCHAR
STARTCHAR gdotaccent
ENCODING 289
SWIDTH 578 0
DWIDTH 14 0
BBX 14 22 0 0
BITMAP
00BFE000
07FFFD00
0FFFFE00
1FF6FF00
0FF5FF00
0FFFFE00
0BFFFE00
2F800B80
BF1AABD0
FF2FFFE0
FF2FFFF0
FF2FABF0
FF2E03F0
FF2FF3F0
FF2FF3F0
FF1553F0
FF955BF0
FFFFFFF0
FFFFFFE0
BFFFFFD0
2FFFFF80
06FFF900
ENDCHAR
STARTCHAR Gcommaaccent
ENCODING 290
SWIDTH 578 0
DWIDTH 14 0
BBX 14 16 0 0
BITMAP
07FFF900
2F800B80
BF1AABD0
FF2FFFE0
FF2FFFF0
FF2FABF0
FF2E03F0
FF2FF3F0
FF2FF3F0
FF1553F0
FF955BF0
FFFEBFF0
FFF87FE0
BFFDBFD0
2FFEFF80
06FFF900
ENDCHAR
STARTCHAR gcommaaccent
ENCODING 291
SWIDTH 578 0
DWIDTH 14 0
BBX 14 16 0 0
BITMAP
07FFF900
2F800B80
BF1AABD0
FF2FFFE0
FF2FFFF0
FF2FABF0
FF2E03F0
FF2FF3F0
FF2FF3F0
FF1553F0
FF955BF0
FFFEBFF0
FFF87FE0
BFFDBFD0
2FFEFF80
06FFF900
ENDCHAR
STARTCHAR Hcircumflex
ENCODING 292
SWIDTH 578 0
DWIDTH 14 0
BBX 14 24 0 0
BITMAP
00064000
003FE000
00BEF000
00F5F800
01F6BC00
02E77D00
03EF7E00
03FFFD00
07FFFD00
2F3FF280
BF3FF2D0
FF3FF2E0
FF3FF2F0
FF0002F0
FF2AA2F0
FF3FF2F0
FF3FF2F0
FF3FF2F0
FF7FF7F0
FFFFFFF0
FFFFFFE0
BFFFFFD0
2FFFFF80
06FFF900
ENDCHAR
STARTCHAR hcircumflex
ENCODING 293
SWIDTH 578 0
DWIDTH 14 0
BBX 14 24 0 0
BITMAP
00064000
003FE000
00BEF000
00F5F800
01F67C00
02E73D00
03EBAE00
03FFFD00
07FFFD00
2F3FF280
BF3FF2D0
FF3FF2E0
FF3FF2F0
FF0002F0
FF2AA2F0
FF3FF2F0
FF3FF2F0
FF3FF2F0
FF7FF7F0
FFFFFFF0
FFFFFFE0
BFFFFFD0
2FFFFF80
06FFF900
ENDCHAR
STARTCHAR Hbar
ENCODING 294
SWIDTH 578 0
DWIDTH 14 0
BBX 14 22 0 0
BITMAP
006FE400
03FFFD00
0BFFFF00
0FD57F40
0FD57F40
0BFFFF00
07FFFE00
2F3FF280
BF3FF2D0
FF3FF2E0
FF3FF2F0
FF0002F0
FF2AA2F0
FF3FF2F0
FF3FF2F0
FF3FF2F0
FF7FF7F0
FFFFFFF0
FFFFFFE0
BFFFFFD0
2FFFFF80
06FFF900
ENDCHAR
STARTCHAR hbar
ENCODING 295
SWIDTH 578 0
DWIDTH 14 0
BBX 14 16 0 0
BITMAP
07FFF900
2F3FF280
BE2AA2D0
FE1551E0
FF3FF2F0
FF0002F0
FF2AA2F0
FF3FF2F0
FF3FF2F0
FF3FF2F0
FF7FF7F0
FFFFFFF0
FFFFFFE0
BFFFFFD0
2FFFFF80
06FFF900
ENDCHAR
STARTCHAR Itilde
ENCODING 296
SWIDTH 578 0
DWIDTH 14 0
BBX 14 23 0 0
BITMAP
001A9000
00FFFD00
03FFFF40
07FFFF80
0BFFEF80
07C14F80
03EEAF40
07FFFF00
2F400380
BFA8ABD0
FFFCBFE0
FFFCBFF0
FFFCBFF0
FFFCBFF0
FFFCBFF0
FFFCBFF0
FF9457F0
FF5557F0
FFFFFFF0
FFFFFFE0
BFFFFFD0
2FFFFF80
06FFF900
ENDCHAR
STARTCHAR itilde
ENCODING 297
SWIDTH 578 0
DWIDTH 14 0
BBX 14 23 0 0
BITMAP
001A9000
01FFFD00
03FFFF00
07FFFF80
0BFFEF80
0BC14F80
07EEAF40
07FFFF00
2F400380
BFA8ABD0
FFFCBFE0
FFFCBFF0
FFFCBFF0
FFFCBFF0
FFFCBFF0
FFFCBFF0
FF9457F0
FF5557F0
FFFFFFF0
FFFFFFE0
BFFFFFD0
2FFFFF80
06FFF900
ENDCHAR
STARTCHAR Imacron
ENCODING 298
SWIDTH 578 0
DWIDTH 14 0
BBX 14 22 0 0
BITMAP
006FE400
02FFFE00
07FFFF40
0BD56F80
0BE56F80
07FFFF40
07FFFE00
2F400380
BFA8ABD0
FFFCBFE0
FFFCBFF0
FFFCBFF0
FFFCBFF0
FFFCBFF0
FFFCBFF0
FF9457F0
FF5557F0
FFFFFFF0
FFFFFFE0
BFFFFFD0
2FFFFF80
06FFF900
ENDCHAR
STARTCHAR imacron
ENCODING 299
SWIDTH 578 0
DWIDTH 14 0
BBX 14 22 0 0
BITMAP
006FE400
02FFFE00
07FFFF40
0BD56F80
0BD56F80
07FFFF00
07FFFE00
2F400380
BFA8ABD0
FFFCBFE0
FFFCBFF0
FFFCBFF0
FFFCBFF0
FFFCBFF0
FFFCBFF0
FF9457F0
FF5557F0
FFFFFFF0
FFFFFFE0
BFFFFFD0
2FFFFF80
06FFF900
ENDCHAR
STARTCHAR Ibreve
ENCODING 300
SWIDTH 578 0
DWIDTH 14 0
BBX 14 22 0 0
BITMAP
006FE400
02FFFE00
07FFFF80
0BEBEF80
07E15F80
03FABF40
07FFFF00
2F400380
BFA8ABD0
FFFCBFE0
FFFCBFF0
FFFCBFF0
FFFCBFF0
FFFCBFF0
FFFCBFF0
FF9457F0
FF5557F0
FFFFFFF0
FFFFFFE0
BFFFFFD0
2FFFFF80
06FFF900
ENDCHAR
STARTCHAR ibreve
ENCODING 301
SWIDTH 578 0
DWIDTH 14 0
BBX 14 22 0 0
BITMAP
006FE400
02FFFE00
07FFFF40
0BEBAF80
0BE15F80
03FABF40
07FFFE00
2F400380
BFA8ABD0
FFFCBFE0
FFFCBFF0
FFFCBFF0
FFFCBFF0
FFFCBFF0
FFFCBFF0
FF9457F0
FF5557F0
FFFFFFF0
FFFFFFE0
BFFFFFD0
2FFFFF80
06FFF900
ENDCHAR
STARTCHAR Iogonek
ENCODING 302
SWIDTH 578 0
DWIDTH 14 0
BBX 14 16 0 0
BITMAP
07FFF900
2F400380
BFA8ABD0
FFFCBFE0
FFFCBFF0
FFFCBFF0
FFFCBFF0
FFFCBFF0
FFFCBFF0
FF9457F0
FF5553F0
FFFFCBF0
FFFF5FE0
BFFF87D0
2FFFEB80
06FFF900
ENDCHAR
STARTCHAR iogonek
ENCODING 303
SWIDTH 578 0
DWIDTH 14 0
BBX 14 16 0 0
BITMAP
07FFF900
2F400380
BFA8ABD0
FFFCBFE0
FFFCBFF0
FFFCBFF0
FFFCBFF0
FFFCBFF0
FFFCBFF0
FF9457F0
FF5553F0
FFFFCBF0
FFFF9FE0
BFFF87D0
2FFFEB80
06FFF900
ENDCHAR
STARTCHAR Idotaccent
ENCODING 304
SWIDTH 578 0
DWIDTH 14 0
BBX 14 22 0 0
BITMAP
006FE400
03FFFD00
0BFFFF00
0FF9FF40
0FF9FF40
0BFFFF00
0BFFFF00
2F400380
BFA8ABD0
FFFCBFE0
FFFCBFF0
FFFCBFF0
FFFCBFF0
FFFCBFF0
FFFCBFF0
FF9457F0
FF5557F0
FFFFFFF0
FFFFFFE0
BFFFFFD0
2FFFFF80
06FFF900
ENDCHAR
STARTCHAR dotlessi
ENCODING 305
SWIDTH 578 0
DWIDTH 14 0
BBX 14 16 0 0
BITMAP
07FFF900
2F400380
BFA8ABD0
FFFCBFE0
FFFCBFF0
FFFCBFF0
FFFCBFF0
FFFCBFF0
FFFCBFF0
FF9457F0
FF5557F0
FFFFFFF0
FFFFFFE0
BFFFFFD0
2FFFFF80
06FFF900
ENDCHAR
STARTCHAR IJ
ENCODING 306
SWIDTH 578 0
DWIDTH 14 0
BBX 14 16 0 0
BITMAP
07FFF900
2003F580
BA2BF5D0
FF3FF5E0
FF3FF5F0
FF3FF5F0
FF3FF5F0
FF3FF5F0
FF3FF5F0
F91751F0
F55657F0
FFFFFFF0
FFFFFFE0
BFFFFFD0
2FFFFF80
06FFF900
ENDCHAR
STARTCHAR ij
ENCODING 307
SWIDTH 578 0
DWIDTH 14 0
BBX 14 16 0 0
BITMAP
07FFF900
2003F580
BA2BF5D0
FF3FF5E0
FF3FF5F0
FF3FF5F0
FF3FF5F0
FF3FF5F0
FF3FF5F0
F91751F0
F55657F0
FFFFFFF0
FFFFFFE0
BFFFFFD0
2FFFFF80
06FFF900
ENDCHAR
STARTCHAR Jcircumflex
ENCODING 308
SWIDTH 578 0
DWIDTH 14 0
BBX 14 24 0 0
BITMAP
00064000
003FE000
007EF400
00F9B800
01F67C00
02E77D00
03EBAE00
02FFFE00
07FFFD00
2FFF2F80
BFFF2FD0
FFFF2FE0
FFFF2FF0
FFFF2FF0
FFFF2FF0
FFFF2FF0
FFFF2FF0
FFE52FF0
FFE5BFF0
FFFFFFF0
FFFFFFE0
BFFFFFD0
2FFFFF80
06FFF900
ENDCHAR
STARTCHAR jcircumflex
ENCODING 309
SWIDTH 578 0
DWIDTH 14 0
BBX 14 24 0 0
BITMAP
00064000
003FE000
007EF400
00F9B800
01F67C00
02E77D00
03EBAE00
02FFFE00
07FFFD00
2FFF2F80
BFFF2FD0
FFFF2FE0
FFFF2FF0
FFFF2FF0
FFFF2FF0
FFFF2FF0
FFFF2FF0
FFE52FF0
FFE5BFF0
FFFFFFF0
FFFFFFE0
BFFFFFD0
2FFFFF80
06FFF900
ENDCHAR
STARTCHAR Kcommaaccent
ENCODING 310
SWIDTH 578 0
DWIDTH 14 0
BBX 14 16 0 0
BITMAP
07FFF900
2F8FF280
BF8FC7D0
FF8F1FE0
FF887FF0
FF80FFF0
FF84BFF0
FF8E2FF0
FF8F4BF0
FF8FD3F0
FFDFF7F0
FFFEBFF0
FFF87FE0
BFFDBFD0
2FFEFF80
06FFF900
ENDCHAR
STARTCHAR kcommaaccent
ENCODING 311
SWIDTH 578 0
DWIDTH 14 0
BBX 14 16 0 0
BITMAP
07FFF900
2F8FF280
BF8FC7D0
FF8F1FE0
FF887FF0
FF80FFF0
FF84BFF0
FF8E2FF0
FF8F4BF0
FF8FD3F0
FFDFF7F0
FFFEBFF0
FFF87FE0
BFFDBFD0
2FFEFF80
06FFF900
ENDCHAR
STARTCHAR kgreenlandic
ENCODING 312
SWIDTH 578 0
DWIDTH 14 0
BBX 14 16 0 0
BITMAP
07FFF900
2F8FF280
BF8FC7D0
FF8F1FE0
FF887FF0
FF80FFF0
FF84BFF0
FF8E2FF0
FF8F4BF0
FF8FD3F0
FFDFF7F0
FFFFFFF0
FFFFFFE0
BFFFFFD0
2FFFFF80
06FFF900
ENDCHAR
STARTCHAR Lacute
ENCODING 313
SWIDTH 578 0
DWIDTH 14 0
BBX 14 23 0 0
BITMAP
002FD000
00BFF400
00F8F800
01F6F400
02F3E000
02EBD000
02FF8000
07FFF900
2FDBFF80
BFDBFFD0
FFDBFFE0
FFDBFFF0
FFDBFFF0
FFDBFFF0
FFDBFFF0
FFDBFFF0
FFD55FF0
FFD55FF0
FFFFFFF0
FFFFFFE0
BFFFFFD0
2FFFFF80
06FFF900
ENDCHAR
STARTCHAR lacute
ENCODING 314
SWIDTH 578 0
DWIDTH 14 0
BBX 14 23 0 0
BITMAP
002FD000
00BFF400
00F8F800
01F6F400
02F3E000
02EBD000
02FF8000
07FFF900
2FDBFF80
BFDBFFD0
FFDBFFE0
FFDBFFF0
FFDBFFF0
FFDBFFF0
FFDBFFF0
FFDBFFF0
FFD55FF0
FFD55FF0
FFFFFFF0
FFFFFFE0
BFFFFFD0
2FFFFF80
06FFF900
ENDCHAR
STARTCHAR Lcommaaccent
ENCODING 315
SWIDTH 578 0
DWIDTH 14 0
BBX 14 16 0 0
BITMAP
07FFF900
2FDBFF80
BFDBFFD0
FFDBFFE0
FFDBFFF0
FFDBFFF0
FFDBFFF0
FFDBFFF0
FFDBFFF0
FFD55FF0
FFD55FF0
FFFEBFF0
FFF87FE0
BFFDBFD0
2FFEFF80
06FFF900
ENDCHAR
STARTCHAR lcommaaccent
ENCODING 316
SWIDTH 578 0
DWIDTH 14 0
BBX 14 16 0 0
BITMAP
07FFF900
2FDBFF80
BFDBFFD0
FFDBFFE0
FFDBFFF0
FFDBFFF0
FFDBFFF0
FFDBFFF0
FFDBFFF0
FFD55FF0
FFD55FF0
FFFEBFF0
FFF87FE0
BFFDBFD0
2FFEFF80
06FFF900
ENDCHAR
STARTCHAR Lcaron
ENCODING 317
SWIDTH 578 0
DWIDTH 14 0
BBX 14 16 0 0
BITMAP
07FFF900
2FDB0F80
BFDB5FD0
FFDBAFE0
FFDBFFF0
FFDBFFF0
FFDBFFF0
FFDBFFF0
FFDBFFF0
FFD55FF0
FFD55FF0
FFFFFFF0
FFFFFFE0
BFFFFFD0
2FFFFF80
06FFF900
ENDCHAR
STARTCHAR lcaron
ENCODING 318
SWIDTH 578 0
DWIDTH 14 0
BBX 14 16 0 0
BITMAP
07FFF900
2FDB0F80
BFDB5FD0
FFDBAFE0
FFDBFFF0
FFDBFFF0
FFDBFFF0
FFDBFFF0
FFDBFFF0
FFD55FF0
FFD55FF0
FFFFFFF0
FFFFFFE0
BFFFFFD0
2FFFFF80
06FFF900
ENDCHAR
STARTCHAR Ldot
ENCODING 319
SWIDTH 578 0
DWIDTH 14 0
BBX 14 16 0 0
BITMAP
07FFF900
2FDBFF80
BFDBFFD0
FFDBFFE0
FFDA3FF0
FFDABFF0
FFDBFFF0
FFDBFFF0
FFDBFFF0
FFD55FF0
FFD55FF0
FFFFFFF0
FFFFFFE0
BFFFFFD0
2FFFFF80
06FFF900
ENDCHAR
STARTCHAR ldot
ENCODING 320
SWIDTH 578 0
DWIDTH 14 0
BBX 14 16 0 0
BITMAP
07FFF900
2FDBFF80
BFDBFFD0
FFDBFFE0
FFDA3FF0
FFDABFF0
FFDBFFF0
FFDBFFF0
FFDBFFF0
FFD55FF0
FFD55FF0
FFFFFFF0
FFFFFFE0
BFFFFFD0
2FFFFF80
06FFF900
ENDCHAR
STARTCHAR Lslash
ENCODING 321
SWIDTH 578 0
DWIDTH 14 0
BBX 14 16 0 0
BITMAP
07FFF900
2FDBFF80
BFDBFFD0
FFDBFFE0
FFD5FFF0
FF87FFF0
FF5BFFF0
FFDBFFF0
FFDBFFF0
FFD55FF0
FFD55FF0
FFFFFFF0
FFFFFFE0
BFFFFFD0
2FFFFF80
06FFF900
ENDCHAR
STARTCHAR lslash
ENCODING 322
SWIDTH 578 0
DWIDTH 14 0
BBX 14 16 0 0
BITMAP
07FFF900
2FDBFF80
BFDBFFD0
FFDBFFE0
FFD5FFF0
FF87FFF0
FF5BFFF0
FFDBFFF0
FFDBFFF0
FFD55FF0
FFD55FF0
FFFFFFF0
FFFFFFE0
BFFFFFD0
2FFFFF80
06FFF900
ENDCHAR
STARTCHAR Nacute
ENCODING 323
SWIDTH 578 0
DWIDTH 14 0
BBX 14 23 0 0
BITMAP
000BF400
002FFD00
003E3E00
007DBD00
00BCF800
00BAF400
00BFE000
07FFF900
2F400B80
BE2A93D0
FE3FE3E0
FE3FE3F0
FE3FE3F0
FE3FE3F0
FE3FE3F0
FE3FE3F0
FE3FE3F0
FF7FE7F0
FFFFFFF0
FFFFFFE0
BFFFFFD0
2FFFFF80
06FFF900
ENDCHAR
STARTCHAR nacute
ENCODING 324
SWIDTH 578 0
DWIDTH 14 0
BBX 14 23 0 0
BITMAP
000BF400
002FFD00
003E3E00
007DBD00
00BCF800
00BAF400
00BFE000
07FFF900
2F400B80
BE2A93D0
FE3FE3E0
FE3FE3F0
FE3FE3F0
FE3FE3F0
FE3FE3F0
FE3FE3F0
FE3FE3F0
FF7FE7F0
FFFFFFF0
FFFFFFE0
BFFFFFD0
2FFFFF80
06FFF900
ENDCHAR
STARTCHAR Ncommaaccent
ENCODING 325
SWIDTH 578 0
DWIDTH 14 0
BBX 14 16 0 0
BITMAP
07FFF900
2F400B80
BE2A93D0
FE3FE3E0
FE3FE3F0
FE3FE3F0
FE3FE3F0
FE3FE3F0
FE3FE3F0
FE3FE3F0
FF7FE7F0
FFFEBFF0
FFF87FE0
BFFDBFD0
2FFEFF80
06FFF900
ENDCHAR
STARTCHAR ncommaaccent
ENCODING 326
SWIDTH 578 0
DWIDTH 14 0
BBX 14 16 0 0
BITMAP
07FFF900
2F400B80
BE2A93D0
FE3FE3E0
FE3FE3F0
FE3FE3F0
FE3FE3F0
FE3FE3F0
FE3FE3F0
FE3FE3F0
FF7FE7F0
FFFEBFF0
FFF87FE0
BFFDBFD0
2FFEFF80
06FFF900
ENDCHAR
STARTCHAR Ncaron
ENCODING 327
SWIDTH 578 0
DWIDTH 14 0
BBX 14 23 0 0
BITMAP
01A6A400
07FFFC00
07DF7D00
07DABC00
03E5FC00
02F5F800
01FFF400
07FFF900
2F400B80
BE2A93D0
FE3FE3E0
FE3FE3F0
FE3FE3F0
FE3FE3F0
FE3FE3F0
FE3FE3F0
FE3FE3F0
FF7FE7F0
FFFFFFF0
FFFFFFE0
BFFFFFD0
2FFFFF80
06FFF900
ENDCHAR
STARTCHAR ncaron
ENCODING 328
SWIDTH 578 0
DWIDTH 14 0
BBX 14 23 0 0
BITMAP
01A6A400
07FFFC00
07DF7D00
07DABC00
03E5FC00
02F5F800
01FFF400
07FFF900
2F400B80
BE2A93D0
FE3FE3E0
FE3FE3F0
FE3FE3F0
FE3FE3F0
FE3FE3F0
FE3FE3F0
FE3FE3F0
FF7FE7F0
FFFFFFF0
FFFFFFE0
BFFFFFD0
2FFFFF80
06FFF900
ENDCHAR
STARTCHAR napostrophe
ENCODING 329
SWIDTH 578 0
DWIDTH 14 0
BBX 14 16 0 0
BITMAP
07FFF900
2F400B80
922A93D0
E23FE3E0
E63FE3F0
FE3FE3F0
FE3FE3F0
FE3FE3F0
FE3FE3F0
FE3FE3F0
FF7FE7F0
FFFFFFF0
FFFFFFE0
BFFFFFD0
2FFFFF80
06FFF900
ENDCHAR
STARTCHAR Eng
ENCODING 330
SWIDTH 578 0
DWIDTH 14 0
BBX 14 16 0 0
BITMAP
07FFF900
2F400B80
BE2A93D0
FE3FE3E0
FE3FE3F0
FE3FE3F0
FE3FE3F0
FE3FE3F0
FE3FE3F0
FE3FE3F0
FF7FE3F0
FFFFE3F0
FFFFD3E0
BFFC07D0
2FFFFF80
06FFF900
ENDCHAR
STARTCHAR eng
ENCODING 331
SWIDTH 578 0
DWIDTH 14 0
BBX 14 16 0 0
BITMAP
07FFF900
2F400B80
BE2A93D0
FE3FE3E0
FE3FE3F0
FE3FE3F0
FE3FE3F0
FE3FE3F0
FE3FE3F0
FE3FE3F0
FF7FE3F0
FFFFE3F0
FFFFD3E0
BFFC07D0
2FFFFF80
06FFF900
ENDCHAR
STARTCHAR Omacron
ENCODING 332
SWIDTH 578 0
DWIDTH 14 0
BBX 14 22 0 0
BITMAP
006FE400
02FFFE00
07FFFF40
0BD56F80
0BE56F80
07FFFF40
07FFFE00
2F400780
BF2AA3D0
FE3FF3E0
FE3FF3F0
FE3FF3F0
FE3FF3F0
FE3FF3F0
FE3FF3F0
FF1553F0
FF955BF0
FFFFFFF0
FFFFFFE0
BFFFFFD0
2FFFFF80
06FFF900
ENDCHAR
STARTCHAR omacron
ENCODING 333
SWIDTH 578 0
DWIDTH 14 0
BBX 14 22 0 0
BITMAP
006FE400
02FFFE00
07FFFF40
0BD56F80
0BE56F80
07FFFF40
07FFFE00
2F400780
BF2AA3D0
FE3FF3E0
FE3FF3F0
FE3FF3F0
FE3FF3F0
FE3FF3F0
FE3FF3F0
FF1553F0
FF955BF0
FFFFFFF0
FFFFFFE0
BFFFFFD0
2FFFFF80
06FFF900
ENDCHAR
STARTCHAR Obreve
ENCODING 334
SWIDTH 578 0
DWIDTH 14 0
BBX 14 22 0 0
BITMAP
006FE400
02FFFE00
07FFFF40
0BEBAF80
0BD52F80
07FABF40
07FFFE00
2F400780
BF2AA3D0
FE3FF3E0
FE3FF3F0
FE3FF3F0
FE3FF3F0
FE3FF3F0
FE3FF3F0
FF1553F0
FF955BF0
FFFFFFF0
FFFFFFE0
BFFFFFD0
2FFFFF80
06FFF900
ENDCHAR
STARTCHAR obreve
ENCODING 335
SWIDTH 578 0
DWIDTH 14 0
BBX 14 22 0 0
BITMAP
006FE400
02FFFE00
07FFFF40
0BEBAF80
0BD52F80
07FABF40
07FFFE00
2F400780
BF2AA3D0
FE3FF3E0
FE3FF3F0
FE3FF3F0
FE3FF3F0
FE3FF3F0
FE3FF3F0
FF1553F0
FF955BF0
FFFFFFF0
FFFFFFE0
BFFFFFD0
2FFFFF80
06FFF900
ENDCHAR
STARTCHAR Ohungarumlaut
ENCODING 336
SWIDTH 578 0
DWIDTH 14 0
BBX 14 24 0 0
BITMAP
00004500
000BFF80
001FFFC0
002F79E0
007DB7E0
00B9DBC0
01F7DF40
00FFFE00
07FFFD00
2F400780
BF2AA3D0
FE3FF3E0
FE3FF3F0
FE3FF3F0
FE3FF3F0
FE3FF3F0
FE3FF3F0
FF1553F0
FF955BF0
FFFFFFF0
FFFFFFE0
BFFFFFD0
2FFFFF80
06FFF900
ENDCHAR
STARTCHAR ohungarumlaut
ENCODING 337
SWIDTH 578 0
DWIDTH 14 0
BBX 14 24 0 0
BITMAP
00004500
000BFF80
001FFFC0
002F79E0
007DB7E0
00B9DBC0
01F7DF40
00FFFE00
07FFFD00
2F400780
BF2AA3D0
FE3FF3E0
FE3FF3F0
FE3FF3F0
FE3FF3F0
FE3FF3F0
FE3FF3F0
FF1553F0
FF955BF0
FFFFFFF0
FFFFFFE0
BFFFFFD0
2FFFFF80
06FFF900
ENDCHAR
STARTCHAR OE
ENCODING 338
SWIDTH 578 0
DWIDTH 14 0
BBX 14 16 0 0
BITMAP
07FFF900
2D010280
B8A8ABD0
F8FCFFE0
F8FCFFF0
F8FC57F0
F8FC6BF0
F8FCBFF0
F8FCBFF0
F85456F0
FE5556F0
FFFFFFF0
FFFFFFE0
BFFFFFD0
2FFFFF80
06FFF900
ENDCHAR
STARTCHAR oe
ENCODING 339
SWIDTH 578 0
DWIDTH 14 0
BBX 14 16 0 0
BITMAP
07FFF900
2D010280
B8A8ABD0
F8FCFFE0
F8FCFFF0
F8FC57F0
F8FC6BF0
F8FCBFF0
F8FCBFF0
F85456F0
FE5556F0
FFFFFFF0
FFFFFFE0
BFFFFFD0
2FFFFF80
06FFF900
ENDCHAR
STARTCHAR Racute
ENCODING 340
SWIDTH 578 0
DWIDTH 14 0
BBX 14 23 0 0
BITMAP
000BF400
002FFD00
003E3E00
007DBD00
00BCF800
00BAF400
00BFE000
07FFF900
2F001F80
BF2A8BD0
FF2FDBE0
FF2FDBF0
FF1A5FF0
FF051FF0
FF2FDBF0
FF2FD7F0
FF2FD7F0
FF6FEBF0
FFFFFFF0
FFFFFFE0
BFFFFFD0
2FFFFF80
06FFF900
ENDCHAR
STARTCHAR racute
ENCODING 341
SWIDTH 578 0
DWIDTH 14 0
BBX 14 23 0 0
BITMAP
000BF400
002FFD00
003E3E00
007DBD00
00BCF800
00BAF400
00BFE000
07FFF900
2F001F80
BF2A8BD0
FF2FDBE0
FF2FDBF0
FF1A5FF0
FF051FF0
FF2FDBF0
FF2FD7F0
FF2FD7F0
FF6FEBF0
FFFFFFF0
FFFFFFE0
BFFFFFD0
2FFFFF80
06FFF900
ENDCHAR
STARTCHAR Rcommaaccent
ENCODING 342
SWIDTH 578 0
DWIDTH 14 0
BBX 14 16 0 0
BITMAP
07FFF900
2F001F80
BF2A8BD0
FF2FDBE0
FF2FDBF0
FF1A5FF0
FF051FF0
FF2FDBF0
FF2FD7F0
FF2FD7F0
FF6FEBF0
FFFEBFF0
FFF87FE0
BFFDBFD0
2FFEFF80
06FFF900
ENDCHAR
STARTCHAR rcommaaccent
ENCODING 343
SWIDTH 578 0
DWIDTH 14 0
BBX 14 16 0 0
BITMAP
07FFF900
2F001F80
BF2A8BD0
FF2FDBE0
FF2FDBF0
FF1A5FF0
FF051FF0
FF2FDBF0
FF2FD7F0
FF2FD7F0
FF6FEBF0
FFFEBFF0
FFF87FE0
BFFDBFD0
2FFEFF80
06FFF900
ENDCHAR
STARTCHAR Rcaron
ENCODING 344
SWIDTH 578 0
DWIDTH 14 0
BBX 14 23 0 0
BITMAP
01A6A400
07FFFC00
07DF7D00
07DABC00
03E5FC00
02F5F800
01FFF400
07FFF900
2F001F80
BF2A8BD0
FF2FDBE0
FF2FDBF0
FF1A5FF0
FF051FF0
FF2FDBF0
FF2FD7F0
FF2FD7F0
FF6FEBF0
FFFFFFF0
FFFFFFE0
BFFFFFD0
2FFFFF80
06FFF900
ENDCHAR
STARTCHAR rcaron
ENCODING 345
SWIDTH 578 0
DWIDTH 14 0
BBX 14 23 0 0
BITMAP
01A6A400
07FFFC00
07DF7D00
07DABC00
03E5FC00
02F5F800
01FFF400
07FFF900
2F001F80
BF2A8BD0
FF2FDBE0
FF2FDBF0
FF1A5FF0
FF051FF0
FF2FDBF0
FF2FD7F0
FF2FD7F0
FF6FEBF0
FFFFFFF0
FFFFFFE0
BFFFFFD0
2FFFFF80
06FFF900
ENDCHAR
STARTCHAR Sacute
ENCODING 346
SWIDTH 578 0
DWIDTH 14 0
BBX 14 23 0 0
BITMAP
0007F800
001FFF00
002F2F00
002E3E00
003DBD00
007DF800
007FF000
07FFF900
2F800B80
BF1AAFD0
FF2FFFE0
FF2FFFF0
FF401BF0
FFEA93F0
FFFFE3F0
FFFFE3F0
FF9557F0
FF955BF0
FFFFFFF0
FFFFFFE0
BFFFFFD0
2FFFFF80
06FFF900
ENDCHAR
STARTCHAR sacute
ENCODING 347
SWIDTH 578 0
DWIDTH 14 0
BBX 14 23 0 0
BITMAP
0007F800
001FFF00
002F2F00
002E3E00
003DBD00
007DF800
007FF000
07FFF900
2F800B80
BF1AAFD0
FF2FFFE0
FF2FFFF0
FF401BF0
FFEA93F0
FFFFE3F0
FFFFE3F0
FF9557F0
FF955BF0
FFFFFFF0
FFFFFFE0
BFFFFFD0
2FFFFF80
06FFF900
ENDCHAR
STARTCHAR Scircumflex
ENCODING 348
SWIDTH 578 0
DWIDTH 14 0
BBX 14 24 0 0
BITMAP
00064000
002FF000
007EF400
00B9BC00
00F67D00
01F36E00
02EBAF00
02FFFE00
07FFFE00
2F800B80
BF1AAFD0
FF2FFFE0
FF2FFFF0
FF401BF0
FFEA93F0
FFFFE3F0
FFFFE3F0
FF9557F0
FF955BF0
FFFFFFF0
FFFFFFE0
BFFFFFD0
2FFFFF80
06FFF900
ENDCHAR
STARTCHAR scircumflex
ENCODING 349
SWIDTH 578 0
DWIDTH 14 0
BBX 14 24 0 0
BITMAP
00064000
002FF000
007EF400
00B9BC00
00F67D00
01F36E00
02EBAF00
02FFFE00
07FFFE00
2F800B80
BF1AAFD0
FF2FFFE0
FF2FFFF0
FF401BF0
FFEA93F0
FFFFE3F0
FFFFE3F0
FF9557F0
FF955BF0
FFFFFFF0
FFFFFFE0
BFFFFFD0
2FFFFF80
06FFF900
ENDCHAR
STARTCHAR Scedilla
ENCODING 350
SWIDTH 578 0
DWIDTH 14 0
BBX 14 16 0 0
BITMAP
07FFF900
2F800B80
BF1AAFD0
FF2FFFE0
FF2FFFF0
FF401BF0
FFEA93F0
FFFFE3F0
FFFFE3F0
FF9557F0
FF945BF0
FFF4FFF0
FFE7FFE0
BFE1FFD0
2FFAFF80
06FFF900
ENDCHAR
STARTCHAR scedilla
ENCODING 351
SWIDTH 578 0
DWIDTH 14 0
BBX 14 16 0 0
BITMAP
07FFF900
2F800B80
BF1AAFD0
FF2FFFE0
FF2FFFF0
FF401BF0
FFEA93F0
FFFFE3F0
FFFFE3F0
FF9557F0
FF945BF0
FFF4FFF0
FFE7FFE0
BFE1FFD0
2FFAFF80
06FFF900
ENDCHAR
STARTCHAR Scaron
ENCODING 352
SWIDTH 578 0
DWIDTH 14 0
BBX 14 23 0 0
BITMAP
0069A900
01FFFE00
02F7AF00
01F76F00
01FA7E00
00FC7D00
00BFFC00
07FFFD00
2F800B80
BF1AAFD0
FF2FFFE0
FF2FFFF0
FF401BF0
FFEA93F0
FFFFE3F0
FFFFE3F0
FF9557F0
FF955BF0
FFFFFFF0
FFFFFFE0
BFFFFFD0
2FFFFF80
06FFF900
ENDCHAR
STARTCHAR scaron
ENCODING 353
SWIDTH 578 0
DWIDTH 14 0
BBX 14 23 0 0
BITMAP
0069A900
01FFFE00
02F7AF00
01F76F00
01FA7E00
00FC7D00
00BFFC00
07FFFD00
2F800B80
BF1AAFD0
FF2FFFE0
FF2FFFF0
FF401BF0
FFEA93F0
FFFFE3F0
FFFFE3F0
FF9557F0
FF955BF0
FFFFFFF0
FFFFFFE0
BFFFFFD0
2FFFFF80
06FFF900
ENDCHAR
STARTCHAR Tcommaaccent
ENCODING 354
SWIDTH 578 0
DWIDTH 14 0
BBX 14 16 0 0
BITMAP
07FFF900
2F400380
BFA8ABD0
FFFCBFE0
FFFCBFF0
FFFCBFF0
FFFCBFF0
FFFCBFF0
FFFCBFF0
FFFCBFF0
FFFDFFF0
FFFEBFF0
FFF87FE0
BFFDBFD0
2FFEFF80
06FFF900
ENDCHAR
STARTCHAR tcommaaccent
ENCODING 355
SWIDTH 578 0
DWIDTH 14 0
BBX 14 16 0 0
BITMAP
07FFF900
2F400380
BFA8ABD0
FFFCBFE0
FFFCBFF0
FFFCBFF0
FFFCBFF0
FFFCBFF0
FFFCBFF0
FFFCBFF0
FFFDFFF0
FFFEBFF0
FFF87FE0
BFFDBFD0
2FFEFF80
06FFF900
ENDCHAR
STARTCHAR Tcaron
ENCODING 356
SWIDTH 578 0
DWIDTH 14 0
BBX 14 23 0 0
BITMAP
00A9A800
02FFFE00
03EBAE00
02F73E00
02F67D00
01F8BC00
00FFF800
07FFFD00
2F400380
BFA8ABD0
FFFCBFE0
FFFCBFF0
FFFCBFF0
FFFCBFF0
FFFCBFF0
FFFCBFF0
FFFCBFF0
FFFDFFF0
FFFFFFF0
FFFFFFE0
BFFFFFD0
2FFFFF80
06FFF900
ENDCHAR
STARTCHAR tcaron
ENCODING 357
SWIDTH 578 0
DWIDTH 14 0
BBX 14 16 0 0
BITMAP
07FFF900
2F400380
BFA8ABD0
FFFC93E0
FFFCA3F0
FFFCABF0
FFFCBFF0
FFFCBFF0
FFFCBFF0
FFFCBFF0
FFFDFFF0
FFFFFFF0
FFFFFFE0
BFFFFFD0
2FFFFF80
06FFF900
ENDCHAR
STARTCHAR Tbar
ENCODING 358
SWIDTH 578 0
DWIDTH 14 0
BBX 14 16 0 0
BITMAP
07FFF900
2F400380
BFA8ABD0
FFFCBFE0
FFFCBFF0
FFE46FF0
FFE46FF0
FFFCBFF0
FFFCBFF0
FFFCBFF0
FFFDFFF0
FFFFFFF0
FFFFFFE0
BFFFFFD0
2FFFFF80
06FFF900
ENDCHAR
STARTCHAR tbar
ENCODING 359
SWIDTH 578 0
DWIDTH 14 0
BBX 14 16 0 0
BITMAP
07FFF900
2F400380
BFA8ABD0
FFFCBFE0
FFFCBFF0
FFE46FF0
FFE46FF0
FFFCBFF0
FFFCBFF0
FFFCBFF0
FFFDFFF0
FFFFFFF0
FFFFFFE0
BFFFFFD0
2FFFFF80
06FFF900
ENDCHAR
STARTCHAR Utilde
ENCODING 360
SWIDTH 578 0
DWIDTH 14 0
BBX 14 23 0 0
BITMAP
001A9000
01FFFD00
03FFFF00
07FFFF80
0BFFEF80
0BC14F80
07EEAF40
07FFFF00
2E3FF380
BE3FF3D0
FE3FF3E0
FE3FF3F0
FE3FF3F0
FE3FF3F0
FE3FF3F0
FE3FE3F0
FF1553F0
FF955BF0
FFFFFFF0
FFFFFFE0
BFFFFFD0
2FFFFF80
06FFF900
ENDCHAR
STARTCHAR utilde
ENCODING 361
SWIDTH 578 0
DWIDTH 14 0
BBX 14 23 0 0
BITMAP
001A9000
01FFFD00
03FFFF00
07FFFF80
0BFFEF80
0BC14F80
07EEAF40
07FFFF00
2E3FF380
BE3FF3D0
FE3FF3E0
FE3FF3F0
FE3FF3F0
FE3FF3F0
FE3FF3F0
FE3FE3F0
FF1553F0
FF955BF0
FFFFFFF0
FFFFFFE0
BFFFFFD0
2FFFFF80
06FFF900
ENDCHAR
STARTCHAR Umacron
ENCODING 362
SWIDTH 578 0
DWIDTH 14 0
BBX 14 22 0 0
BITMAP
006FE400
02FFFE00
07FFFF40
0BD56F80
0BE56F80
03FFFF40
07FFFE00
2E3FF380
BE3FF3D0
FE3FF3E0
FE3FF3F0
FE3FF3F0
FE3FF3F0
FE3FF3F0
FE3FE3F0
FF1553F0
FF955BF0
FFFFFFF0
FFFFFFE0
BFFFFFD0
2FFFFF80
06FFF900
ENDCHAR
STARTCHAR umacron
ENCODING 363
SWIDTH 578 0
DWIDTH 14 0
BBX 14 22 0 0
BITMAP
006FE400
02FFFE00
07FFFF40
0BD56F80
0BE56F80
03FFFF40
07FFFE00
2E3FF380
BE3FF3D0
FE3FF3E0
FE3FF3F0
FE3FF3F0
FE3FF3F0
FE3FF3F0
FE3FE3F0
FF1553F0
FF955BF0
FFFFFFF0
FFFFFFE0
BFFFFFD0
2FFFFF80
06FFF900
ENDCHAR
STARTCHAR Ubreve
ENCODING 364
SWIDTH 578 0
DWIDTH 14 0
BBX 14 22 0 0
BITMAP
006FE400
02FFFE00
07FFFF40
0BEBAF80
0BE15F80
03FABF40
07FFFE00
2E3FF380
BE3FF3D0
FE3FF3E0
FE3FF3F0
FE3FF3F0
FE3FF3F0
FE3FF3F0
FE3FE3F0
FF1553F0
FF955BF0
FFFFFFF0
FFFFFFE0
BFFFFFD0
2FFFFF80
06FFF900
ENDCHAR
STARTCHAR ubreve
ENCODING 365
SWIDTH 578 0
DWIDTH 14 0
BBX 14 22 0 0
BITMAP
006FE400
02FFFE00
07FFFF40
0BEBAF80
0BE15F80
03FABF40
07FFFE00
2E3FF380
BE3FF3D0
FE3FF3E0
FE3FF3F0
FE3FF3F0
FE3FF3F0
FE3FF3F0
FE3FE3F0
FF1553F0
FF955BF0
FFFFFFF0
FFFFFFE0
BFFFFFD0
2FFFFF80
06FFF900
ENDCHAR
STARTCHAR Uring
ENCODING 366
SWIDTH 578 0
DWIDTH 14 0
BBX 14 23 0 0
BITMAP
00054000
007FF400
01FAFD00
02E52E00
03DB6F00
03E52F00
02FABE00
07FFFE00
2E3FF380
BE3FF3D0
FE3FF3E0
FE3FF3F0
FE3FF3F0
FE3FF3F0
FE3FF3F0
FE3FE3F0
FF1553F0
FF955BF0
FFFFFFF0
FFFFFFE0
BFFFFFD0
2FFFFF80
06FFF900
ENDCHAR
STARTCHAR uring
ENCODING 367
SWIDTH 578 0
DWIDTH 14 0
BBX 14 23 0 0
BITMAP
00054000
007FF400
01FAFD00
02E52E00
03DB6F00
03E52F00
02FABE00
07FFFE00
2E3FF380
BE3FF3D0
FE3FF3E0
FE3FF3F0
FE3FF3F0
FE3FF3F0
FE3FF3F0
FE3FE3F0
FF1553F0
FF955BF0
FFFFFFF0
FFFFFFE0
BFFFFFD0
2FFFFF80
06FFF900
ENDCHAR
STARTCHAR Uhungarumlaut
ENCODING 368
SWIDTH 581 0
DWIDTH 14 0
BBX 14 24 0 0
BITMAP
00004500
0007FF80
000FFFC0
002F39E0
007DB7E0
00BDEBC0
00F7DF40
00FFFE00
07FFFE00
2E3FF380
BE3FF3D0
FE3FF3E0
FE3FF3F0
FE3FF3F0
FE3FF3F0
FE3FF3F0
FE3FE3F0
FF1553F0
FF955BF0
FFFFFFF0
FFFFFFE0
BFFFFFD0
2FFFFF80
06FFF900
ENDCHAR
STARTCHAR uhungarumlaut
ENCODING 369
SWIDTH 582 0
DWIDTH 14 0
BBX 14 24 0 0
BITMAP
00004100
0007FF80
000FFFC0
002F39E0
007DB7E0
00BDEBC0
00F7DF40
00FFFE00
07FFFE00
2E3FF380
BE3FF3D0
FE3FF3E0
FE3FF3F0
FE3FF3F0
FE3FF3F0
FE3FF3F0
FE3FE3F0
FF1553F0
FF955BF0
FFFFFFF0
FFFFFFE0
BFFFFFD0
2FFFFF80
06FFF900
ENDCHAR
STARTCHAR Uogonek
ENCODING 370
SWIDTH 578 0
DWIDTH 14 0
BBX 14 16 0 0
BITMAP
07FFF900
2E3FF380
BE3FF3D0
FE3FF3E0
FE3FF3F0
FE3FF3F0
FE3FF3F0
FE3FF3F0
FE3FE3F0
FF1553F0
FF951BF0
FFF8BFF0
FFF6FFE0
BFF87FD0
2FFEBF80
06FFF900
ENDCHAR
STARTCHAR uogonek
ENCODING 371
SWIDTH 578 0
DWIDTH 14 0
BBX 14 16 0 0
BITMAP
07FFF900
2E3FF380
BE3FF3D0
FE3FF3E0
FE3FF3F0
FE3FF3F0
FE3FF3F0
FE3FF3F0
FE3FF3F0
FF1553F0
FF951BF0
FFF8BFF0
FFF6FFE0
BFF87FD0
2FFEBF80
06FFF900
ENDCHAR
STARTCHAR Wcircumflex
ENCODING 372
SWIDTH 578 0
DWIDTH 14 0
BBX 14 24 0 0
BITMAP
00064000
003FE000
00BEF000
00F5F400
01F6BC00
03EB7D00
03EF7D00
03FFFD00
07FFFD00
28F9F980
B8F4F5D0
F8F4B5E0
FCB0B5F0
FCB172F0
FCA272F0
FD6632F0
FD5623F0
FD0713F0
FF5F9BF0
FFFFFFF0
FFFFFFE0
BFFFFFD0
2FFFFF80
06FFF900
ENDCHAR
STARTCHAR wcircumflex
ENCODING 373
SWIDTH 578 0
DWIDTH 14 0
BBX 14 24 0 0
BITMAP
00064000
003FE000
00BEF000
00F5F400
01F6BC00
03EB7D00
03EF7D00
03FFFD00
07FFFD00
28F9F980
B8F4F5D0
F8F4B5E0
FCB0B5F0
FCB172F0
FCA272F0
FD6632F0
FD5623F0
FD0713F0
FF5F9BF0
FFFFFFF0
FFFFFFE0
BFFFFFD0
2FFFFF80
06FFF900
ENDCHAR
STARTCHAR Ycircumflex
ENCODING 374
SWIDTH 578 0
DWIDTH 14 0
BBX 14 24 0 0
BITMAP
00064000
003FE000
007EF400
00F9B800
01F67C00
02F77D00
02EBAE00
02FFFE00
07FFFD00
2F1FD380
BF8FCBD0
FFCB8FE0
FFD75FF0
FFE23FF0
FFF47FF0
FFF8BFF0
FFFCFFF0
FFFCFFF0
FFFDFFF0
FFFFFFF0
FFFFFFE0
BFFFFFD0
2FFFFF80
06FFF900
ENDCHAR
STARTCHAR ycircumflex
ENCODING 375
SWIDTH 578 0
DWIDTH 14 0
BBX 14 24 0 0
BITMAP
00064000
003FE000
007EF400
00F9B800
01F67C00
02F77D00
02EBAE00
02FFFE00
07FFFD00
2F1FD380
BF8FCBD0
FFCB8FE0
FFD75FF0
FFE23FF0
FFF47FF0
FFF8BFF0
FFFCFFF0
FFFCFFF0
FFFDFFF0
FFFFFFF0
FFFFFFE0
BFFFFFD0
2FFFFF80
06FFF900
ENDCHAR
STARTCHAR Ydieresis
ENCODING 376
SWIDTH 578 0
DWIDTH 14 0
BBX 14 22 0 0
BITMAP
002FE000
01FFFD00
03FFFF00
07C75F40
03DBAF00
02FFFE00
07FFFD00
2F1FD380
BF8FCBD0
FFCB8FE0
FFD75FF0
FFE23FF0
FFF47FF0
FFF8BFF0
FFFCFFF0
FFFCFFF0
FFFDFFF0
FFFFFFF0
FFFFFFE0
BFFFFFD0
2FFFFF80
06FFF900
ENDCHAR
STARTCHAR Zacute
ENCODING 377
SWIDTH 578 0
DWIDTH 14 0
BBX 14 23 0 0
BITMAP
001FE000
007FFC00
00BCBC00
00B8F800
00F6F400
01F7E000
00FFC000
07FFF900
2F800F80
BFEA4FD0
FFFF2FE0
FFFD7FF0
FFF8BFF0
FFF5FFF0
FFE3FFF0
FFCBFFF0
FF855BF0
FF955BF0
FFFFFFF0
FFFFFFE0
BFFFFFD0
2FFFFF80
06FFF900
ENDCHAR
STARTCHAR zacute
ENCODING 378
SWIDTH 578 0
DWIDTH 14 0
BBX 14 23 0 0
BITMAP
001FE000
007FFC00
00BCBC00
00B8F800
00F6F400
01F7E000
00FFC000
07FFF900
2F800F80
BFEA4FD0
FFFF2FE0
FFFD7FF0
FFF8BFF0
FFF5FFF0
FFE3FFF0
FFCBFFF0
FF855BF0
FF955BF0
FFFFFFF0
FFFFFFE0
BFFFFFD0
2FFFFF80
06FFF900
ENDCHAR
STARTCHAR Zdotaccent
ENCODING 379
SWIDTH 578 0
DWIDTH 14 0
BBX 14 22 0 0
BITMAP
00BFE000
07FFFD00
0FFFFE00
1FF6FF00
0FF5FF00
0FFFFE00
0BFFFE00
2F800F80
BFEA4FD0
FFFF2FE0
FFFD7FF0
FFF8BFF0
FFF5FFF0
FFE3FFF0
FFCBFFF0
FF855BF0
FF955BF0
FFFFFFF0
FFFFFFE0
BFFFFFD0
2FFFFF80
06FFF900
ENDCHAR
STARTCHAR zdotaccent
ENCODING 380
SWIDTH 578 0
DWIDTH 14 0
BBX 14 22 0 0
BITMAP
00BFE000
07FFFD00
0FFFFE00
1FF6FF00
0FF5FF00
0FFFFE00
0BFFFE00
2F800F80
BFEA4FD0
FFFF2FE0
FFFD7FF0
FFF8BFF0
FFF5FFF0
FFE3FFF0
FFCBFFF0
FF855BF0
FF955BF0
FFFFFFF0
FFFFFFE0
BFFFFFD0
2FFFFF80
06FFF900
ENDCHAR
STARTCHAR Zcaron
ENCODING 381
SWIDTH 578 0
DWIDTH 14 0
BBX 14 23 0 0
BITMAP
01A9A400
03FFFD00
03DF7D00
03EA7D00
02F6BC00
01F5F800
00FFF400
07FFFD00
2F800F80
BFEA4FD0
FFFF2FE0
FFFD7FF0
FFF8BFF0
FFF5FFF0
FFE3FFF0
FFCBFFF0
FF855BF0
FF955BF0
FFFFFFF0
FFFFFFE0
BFFFFFD0
2FFFFF80
06FFF900
ENDCHAR
STARTCHAR zcaron
ENCODING 382
SWIDTH 578 0
DWIDTH 14 0
BBX 14 23 0 0
BITMAP
01A9A400
03FFFD00
03DF7D00
03EA7D00
02F6BC00
01F5F800
00FFF400
07FFFD00
2F800F80
BFEA4FD0
FFFF2FE0
FFFD7FF0
FFF8BFF0
FFF5FFF0
FFE3FFF0
FFCBFFF0
FF855BF0
FF955BF0
FFFFFFF0
FFFFFFE0
BFFFFFD0
2FFFFF80
06FFF900
ENDCHAR
STARTCHAR longs
ENCODING 383
SWIDTH 578 0
DWIDTH 14 0
BBX 14 16 0 0
BITMAP
07FFF900
2FFABF80
BF855FD0
FF2FDBE0
FE7FF3F0
FEBDF3F0
FE7DF7F0
FF6DDBF0
FFEDEFF0
FFFDFFF0
FFFFFFF0
FFFFFFF0
FFFFFFE0
BFFFFFD0
2FFFFF80
06FFF900
ENDCHAR
STARTCHAR florin
ENCODING 402
SWIDTH 578 0
DWIDTH 14 0
BBX 14 16 0 0
BITMAP
07FFF900
2FF82F80
BFF2BFD0
FFF3FFE0
FFF3FFF0
FF917FF0
FFE2BFF0
FFF3FFF0
FFF3FFF0
FFF3FFF0
FFF3FFF0
FFE3FFF0
FF0BFFE0
BFFFFFD0
2FFFFF80
06FFF900
ENDCHAR
STARTCHAR uni01CD
ENCODING 461
SWIDTH 578 0
DWIDTH 14 0
BBX 14 23 0 0
BITMAP
00A9A800
02FFFD00
03EB6E00
02E73E00
02F67D00
01F8FC00
00FFF800
07FFFD00
2F901F80
BF5A8BD0
FF5FCBE0
FF2FD7F0
FF2FD7F0
FF0007F0
FE2FD7F0
FE3FE3F0
FE3FE3F0
FE7FF7F0
FFFFFFF0
FFFFFFE0
BFFFFFD0
2FFFFF80
06FFF900
ENDCHAR
STARTCHAR uni01CE
ENCODING 462
SWIDTH 578 0
DWIDTH 14 0
BBX 14 23 0 0
BITMAP
00A9A800
02FFFE00
02EBAF00
02F77E00
01F67E00
00F8BD00
00BFFC00
07FFFD00
2F401F80
BFAA8BD0
FFFFCBE0
FFFFCBF0
FFAA8BF0
FE050BF0
FD7FCBF0
FD7FCBF0
FE154BF0
FF555FF0
FFFFFFF0
FFFFFFE0
BFFFFFD0
2FFFFF80
06FFF900
ENDCHAR
STARTCHAR uni01CF
ENCODING 463
SWIDTH 578 0
DWIDTH 14 0
BBX 14 23 0 0
BITMAP
0069A800
01FFFE00
02E7AF00
01F76F00
01FA7E00
00FCBD00
00BFFC00
07FFFD00
2F400380
BFA8ABD0
FFFCBFE0
FFFCBFF0
FFFCBFF0
FFFCBFF0
FFFCBFF0
FFFCBFF0
FF9457F0
FF5557F0
FFFFFFF0
FFFFFFE0
BFFFFFD0
2FFFFF80
06FFF900
ENDCHAR
STARTCHAR uni01D0
ENCODING 464
SWIDTH 578 0
DWIDTH 14 0
BBX 14 23 0 0
BITMAP
00A9A800
01FFFE00
02E7AF00
02F36E00
01F67E00
00FCBD00
00BFFC00
07FFFD00
2F400380
BFA8ABD0
FFFCBFE0
FFFCBFF0
FFFCBFF0
FFFCBFF0
FFFCBFF0
FFFCBFF0
FF9457F0
FF5557F0
FFFFFFF0
FFFFFFE0
BFFFFFD0
2FFFFF80
06FFF900
ENDCHAR
STARTCHAR uni01D1
ENCODING 465
SWIDTH 578 0
DWIDTH 14 0
BBX 14 23 0 0
BITMAP
00A9A800
02FFFE00
02EBAE00
02F77E00
01F67D00
00F8BD00
00BFFC00
07FFFD00
2F400780
BF2AA3D0
FE3FF3E0
FE3FF3F0
FE3FF3F0
FE3FF3F0
FE3FF3F0
FE3FF3F0
FF1553F0
FF955BF0
FFFFFFF0
FFFFFFE0
BFFFFFD0
2FFFFF80
06FFF900
ENDCHAR
STARTCHAR uni01D3
ENCODING 467
SWIDTH 578 0
DWIDTH 14 0
BBX 14 23 0 0
BITMAP
00A9A800
02FFFE00
02EBAF00
02F77E00
01F67E00
00F8BD00
00BFFC00
07FFFD00
2E3FF380
BE3FF3D0
FE3FF3E0
FE3FF3F0
FE3FF3F0
FE3FF3F0
FE3FF3F0
FE3FE3F0
FF1553F0
FF955BF0
FFFFFFF0
FFFFFFE0
BFFFFFD0
2FFFFF80
06FFF900
ENDCHAR
STARTCHAR uni01D4
ENCODING 468
SWIDTH 578 0
DWIDTH 14 0
BBX 14 23 0 0
BITMAP
00A9A800
01FFFE00
02E7AF00
02F36E00
01F67E00
00FCBD00
00BFFC00
07FFFD00
2E3FF380
BE3FF3D0
FE3FF3E0
FE3FF3F0
FE3FF3F0
FE3FF3F0
FE3FF3F0
FE3FE3F0
FF1553F0
FF955BF0
FFFFFFF0
FFFFFFE0
BFFFFFD0
2FFFFF80
06FFF900
ENDCHAR
STARTCHAR uni0200
ENCODING 512
SWIDTH 578 0
DWIDTH 14 0
BBX 14 24 0 0
BITMAP
01440000
0BFF4000
0FFFC000
2DB3E000
2F79F400
0FADB800
07DF7C00
02FFFC00
07FFFD00
2F901F80
BF5A8BD0
FF5FCBE0
FF2FD7F0
FF2FD7F0
FF0007F0
FE2FD7F0
FE3FE3F0
FE3FE3F0
FE7FF7F0
FFFFFFF0
FFFFFFE0
BFFFFFD0
2FFFFF80
06FFF900
ENDCHAR
STARTCHAR uni0201
ENCODING 513
SWIDTH 578 0
DWIDTH 14 0
BBX 14 24 0 0
BITMAP
01440000
0BFF4000
0FFFC000
2DB3E000
2F79F400
0FADB800
07DF7C00
02FFFC00
07FFFD00
2F401F80
BFAA8BD0
FFFFCBE0
FFFFCBF0
FFAA8BF0
FE050BF0
FD7FCBF0
FD7FCBF0
FE154BF0
FF555FF0
FFFFFFF0
FFFFFFE0
BFFFFFD0
2FFFFF80
06FFF900
ENDCHAR
STARTCHAR uni0202
ENCODING 514
SWIDTH 578 0
DWIDTH 14 0
BBX 14 23 0 0
BITMAP
00050000
00BFF400
03FFFE00
0BFFFF40
0BE03F40
0BDB6F40
07FFFE00
07FFFD00
2F901F80
BF5A8BD0
FF5FCBE0
FF2FD7F0
FF2FD7F0
FF0007F0
FE2FD7F0
FE3FE3F0
FE3FE3F0
FE7FF7F0
FFFFFFF0
FFFFFFE0
BFFFFFD0
2FFFFF80
06FFF900
ENDCHAR
STARTCHAR uni0203
ENCODING 515
SWIDTH 578 0
DWIDTH 14 0
BBX 14 23 0 0
BITMAP
00050000
00BFF400
03FFFE00
0BFFFF40
0BE03F40
0BDB6F40
07FFFE00
07FFFD00
2F401F80
BFAA8BD0
FFFFCBE0
FFFFCBF0
FFAA8BF0
FE050BF0
FD7FCBF0
FD7FCBF0
FE154BF0
FF555FF0
FFFFFFF0
FFFFFFE0
BFFFFFD0
2FFFFF80
06FFF900
ENDCHAR
STARTCHAR uni0204
ENCODING 516
SWIDTH 578 0
DWIDTH 14 0
BBX 14 24 0 0
BITMAP
01440000
0BFF4000
0FFFC000
2DB3E000
2F79F400
0FADB800
07DF7C00
02FFFC00
07FFFD00
2F800B80
BF8AAFD0
FF8FFFE0
FF8FFFF0
FF855FF0
FF8AAFF0
FF8FFFF0
FF8FFFF0
FF855BF0
FF955BF0
FFFFFFF0
FFFFFFE0
BFFFFFD0
2FFFFF80
06FFF900
ENDCHAR
STARTCHAR uni0205
ENCODING 517
SWIDTH 578 0
DWIDTH 14 0
BBX 14 24 0 0
BITMAP
01440000
0BFF4000
0FFFC000
2DB3E000
2F79F400
0FADB800
07DF7C00
02FFFC00
07FFFD00
2F401F80
BE2A8BD0
FE7FCBE0
FE2A8BF0
FE155BF0
FE7FFFF0
FE7FFFF0
FE3FFFF0
FF001FF0
FFEAAFF0
FFFFFFF0
FFFFFFE0
BFFFFFD0
2FFFFF80
06FFF900
ENDCHAR
STARTCHAR uni0206
ENCODING 518
SWIDTH 578 0
DWIDTH 14 0
BBX 14 23 0 0
BITMAP
00050000
00BFF400
03FFFE00
0BFFFF40
0BE03F40
0BDB6F40
07FFFE00
07FFFD00
2F800B80
BF8AAFD0
FF8FFFE0
FF8FFFF0
FF855FF0
FF8AAFF0
FF8FFFF0
FF8FFFF0
FF855BF0
FF955BF0
FFFFFFF0
FFFFFFE0
BFFFFFD0
2FFFFF80
06FFF900
ENDCHAR
STARTCHAR uni0207
ENCODING 519
SWIDTH 578 0
DWIDTH 14 0
BBX 14 23 0 0
BITMAP
00050000
00BFF400
03FFFE00
0BFFFF40
0BE03F40
0BDB6F40
07FFFE00
07FFFD00
2F401F80
BE2A8BD0
FE7FCBE0
FE2A8BF0
FE155BF0
FE7FFFF0
FE7FFFF0
FE3FFFF0
FF001FF0
FFEAAFF0
FFFFFFF0
FFFFFFE0
BFFFFFD0
2FFFFF80
06FFF900
ENDCHAR
STARTCHAR uni0208
ENCODING 520
SWIDTH 578 0
DWIDTH 14 0
BBX 14 24 0 0
BITMAP
01440000
0BFF4000
0FFFC000
2DB3E000
2F79F400
0FADB800
07DF7C00
02FFFC00
07FFFD00
2F400380
BFA8ABD0
FFFCBFE0
FFFCBFF0
FFFCBFF0
FFFCBFF0
FFFCBFF0
FFFCBFF0
FF9457F0
FF5557F0
FFFFFFF0
FFFFFFE0
BFFFFFD0
2FFFFF80
06FFF900
ENDCHAR
STARTCHAR uni0209
ENCODING 521
SWIDTH 578 0
DWIDTH 14 0
BBX 14 24 0 0
BITMAP
01440000
0BFF4000
0FFFC000
2DB3E000
2F79F400
0FADB800
07DF7C00
02FFFC00
07FFFD00
2F400380
BFA8ABD0
FFFCBFE0
FFFCBFF0
FFFCBFF0
FFFCBFF0
FFFCBFF0
FFFCBFF0
FF9457F0
FF5557F0
FFFFFFF0
FFFFFFE0
BFFFFFD0
2FFFFF80
06FFF900
ENDCHAR
STARTCHAR uni020A
ENCODING 522
SWIDTH 578 0
DWIDTH 14 0
BBX 14 23 0 0
BITMAP
00050000
00BFF400
03FFFE00
0BFFFF40
0BE03F40
0BDB6F40
07FFFE00
07FFFD00
2F400380
BFA8ABD0
FFFCBFE0
FFFCBFF0
FFFCBFF0
FFFCBFF0
FFFCBFF0
FFFCBFF0
FF9457F0
FF5557F0
FFFFFFF0
FFFFFFE0
BFFFFFD0
2FFFFF80
06FFF900
ENDCHAR
STARTCHAR uni020B
ENCODING 523
SWIDTH 578 0
DWIDTH 14 0
BBX 14 23 0 0
BITMAP
00050000
00BFF400
03FFFE00
0BFFFF40
0BE03F40
0BDB6F40
07FFFE00
07FFFD00
2F400380
BFA8ABD0
FFFCBFE0
FFFCBFF0
FFFCBFF0
FFFCBFF0
FFFCBFF0
FFFCBFF0
FF9457F0
FF5557F0
FFFFFFF0
FFFFFFE0
BFFFFFD0
2FFFFF80
06FFF900
ENDCHAR
STARTCHAR uni020C
ENCODING 524
SWIDTH 578 0
DWIDTH 14 0
BBX 14 24 0 0
BITMAP
01440000
0BFF4000
0FFFC000
2DB3E000
2F79F400
0FADB800
07DF7C00
02FFFC00
07FFFD00
2F400780
BF2AA3D0
FE3FF3E0
FE3FF3F0
FE3FF3F0
FE3FF3F0
FE3FF3F0
FE3FF3F0
FF1553F0
FF955BF0
FFFFFFF0
FFFFFFE0
BFFFFFD0
2FFFFF80
06FFF900
ENDCHAR
STARTCHAR uni020D
ENCODING 525
SWIDTH 578 0
DWIDTH 14 0
BBX 14 24 0 0
BITMAP
01440000
0BFF4000
0FFFC000
2DB3E000
2F79F400
0FADB800
07DF7C00
02FFFC00
07FFFD00
2F400780
BF2AA3D0
FE3FF3E0
FE3FF3F0
FE3FF3F0
FE3FF3F0
FE3FF3F0
FE3FF3F0
FF1553F0
FF955BF0
FFFFFFF0
FFFFFFE0
BFFFFFD0
2FFFFF80
06FFF900
ENDCHAR
STARTCHAR uni020E
ENCODING 526
SWIDTH 578 0
DWIDTH 14 0
BBX 14 23 0 0
BITMAP
00050000
00BFF400
03FFFE00
0BFFFF40
0BE03F40
0BDB6F40
07FFFE00
07FFFD00
2F400780
BF2AA3D0
FE3FF3E0
FE3FF3F0
FE3FF3F0
FE3FF3F0
FE3FF3F0
FE3FF3F0
FF1553F0
FF955BF0
FFFFFFF0
FFFFFFE0
BFFFFFD0
2FFFFF80
06FFF900
ENDCHAR
STARTCHAR uni020F
ENCODING 527
SWIDTH 578 0
DWIDTH 14 0
BBX 14 23 0 0
BITMAP
00050000
00BFF400
03FFFE00
0BFFFF40
0BE03F40
0BDB6F40
07FFFE00
07FFFD00
2F400780
BF2AA3D0
FE3FF3E0
FE3FF3F0
FE3FF3F0
FE3FF3F0
FE3FF3F0
FE3FF3F0
FF1553F0
FF955BF0
FFFFFFF0
FFFFFFE0
BFFFFFD0
2FFFFF80
06FFF900
ENDCHAR
STARTCHAR uni0210
ENCODING 528
SWIDTH 578 0
DWIDTH 14 0
BBX 14 24 0 0
BITMAP
01440000
0BFF4000
0FFFC000
2DB3E000
2F79F400
0FADB800
07DF7C00
02FFFC00
07FFFD00
2F001F80
BF2A8BD0
FF2FDBE0
FF2FDBF0
FF1A5FF0
FF051FF0
FF2FDBF0
FF2FD7F0
FF2FD7F0
FF6FEBF0
FFFFFFF0
FFFFFFE0
BFFFFFD0
2FFFFF80
06FFF900
ENDCHAR
STARTCHAR uni0211
ENCODING 529
SWIDTH 578 0
DWIDTH 14 0
BBX 14 24 0 0
BITMAP
01440000
0BFF4000
0FFFC000
2DB3E000
2F79F400
0FADB800
07DF7C00
02FFFC00
07FFFD00
2F001F80
BF2A8BD0
FF2FDBE0
FF2FDBF0
FF1A5FF0
FF051FF0
FF2FDBF0
FF2FD7F0
FF2FD7F0
FF6FEBF0
FFFFFFF0
FFFFFFE0
BFFFFFD0
2FFFFF80
06FFF900
ENDCHAR
STARTCHAR uni0212
ENCODING 530
SWIDTH 578 0
DWIDTH 14 0
BBX 14 23 0 0
BITMAP
00050000
00BFF400
03FFFE00
0BFFFF40
0BE03F40
0BDB6F40
07FFFE00
07FFFD00
2F001F80
BF2A8BD0
FF2FDBE0
FF2FDBF0
FF1A5FF0
FF051FF0
FF2FDBF0
FF2FD7F0
FF2FD7F0
FF6FEBF0
FFFFFFF0
FFFFFFE0
BFFFFFD0
2FFFFF80
06FFF900
ENDCHAR
STARTCHAR uni0213
ENCODING 531
SWIDTH 578 0
DWIDTH 14 0
BBX 14 23 0 0
BITMAP
00050000
00BFF400
03FFFE00
0BFFFF40
0BE03F40
0BDB6F40
07FFFE00
07FFFD00
2F001F80
BF2A8BD0
FF2FDBE0
FF2FDBF0
FF1A5FF0
FF051FF0
FF2FDBF0
FF2FD7F0
FF2FD7F0
FF6FEBF0
FFFFFFF0
FFFFFFE0
BFFFFFD0
2FFFFF80
06FFF900
ENDCHAR
STARTCHAR uni0214
ENCODING 532
SWIDTH 578 0
DWIDTH 14 0
BBX 14 24 0 0
BITMAP
01440000
0BFF4000
0FFFC000
2DB3E000
2F79F400
0FADB800
07DF7C00
02FFFC00
07FFFD00
2E3FF380
BE3FF3D0
FE3FF3E0
FE3FF3F0
FE3FF3F0
FE3FF3F0
FE3FF3F0
FE3FE3F0
FF1553F0
FF955BF0
FFFFFFF0
FFFFFFE0
BFFFFFD0
2FFFFF80
06FFF900
ENDCHAR
STARTCHAR uni0215
ENCODING 533
SWIDTH 578 0
DWIDTH 14 0
BBX 14 24 0 0
BITMAP
01440000
0BFF4000
0FFFC000
2DB3E000
2F79F400
0FADB800
07DF7C00
02FFFC00
07FFFD00
2E3FF380
BE3FF3D0
FE3FF3E0
FE3FF3F0
FE3FF3F0
FE3FF3F0
FE3FF3F0
FE3FE3F0
FF1553F0
FF955BF0
FFFFFFF0
FFFFFFE0
BFFFFFD0
2FFFFF80
06FFF900
ENDCHAR
STARTCHAR uni0216
ENCODING 534
SWIDTH 578 0
DWIDTH 14 0
BBX 14 23 0 0
BITMAP
00050000
00BFF400
03FFFE00
0BFFFF40
0BE03F40
0BDB6F40
07FFFE00
07FFFD00
2E3FF380
BE3FF3D0
FE3FF3E0
FE3FF3F0
FE3FF3F0
FE3FF3F0
FE3FF3F0
FE3FE3F0
FF1553F0
FF955BF0
FFFFFFF0
FFFFFFE0
BFFFFFD0
2FFFFF80
06FFF900
ENDCHAR
STARTCHAR uni0217
ENCODING 535
SWIDTH 578 0
DWIDTH 14 0
BBX 14 23 0 0
BITMAP
00050000
00BFF400
03FFFE00
0BFFFF40
0BE03F40
0BDB6F40
07FFFE00
07FFFD00
2E3FF380
BE3FF3D0
FE3FF3E0
FE3FF3F0
FE3FF3F0
FE3FF3F0
FE3FF3F0
FE3FE3F0
FF1553F0
FF955BF0
FFFFFFF0
FFFFFFE0
BFFFFFD0
2FFFFF80
06FFF900
ENDCHAR
STARTCHAR uni0218
ENCODING 536
SWIDTH 578 0
DWIDTH 14 0
BBX 14 16 0 0
BITMAP
07FFF900
2F800B80
BF1AAFD0
FF2FFFE0
FF2FFFF0
FF401BF0
FFEA93F0
FFFFE3F0
FFFFE3F0
FF9557F0
FF955BF0
FFFABFF0
FFF8BFE0
BFFDFFD0
2FFEFF80
06FFF900
ENDCHAR
STARTCHAR uni0219
ENCODING 537
SWIDTH 578 0
DWIDTH 14 0
BBX 14 16 0 0
BITMAP
07FFF900
2F800B80
BF1AAFD0
FF2FFFE0
FF2FFFF0
FF401BF0
FFEA93F0
FFFFE3F0
FFFFE3F0
FF9557F0
FF955BF0
FFFABFF0
FFF8BFE0
BFFDFFD0
2FFEFF80
06FFF900
ENDCHAR
STARTCHAR uni021A
ENCODING 538
SWIDTH 578 0
DWIDTH 14 0
BBX 14 16 0 0
BITMAP
07FFF900
2F400380
BFA8ABD0
FFFCBFE0
FFFCBFF0
FFFCBFF0
FFFCBFF0
FFFCBFF0
FFFCBFF0
FFFCBFF0
FFFDFFF0
FFFEBFF0
FFF87FE0
BFFDBFD0
2FFEFF80
06FFF900
ENDCHAR
STARTCHAR uni021B
ENCODING 539
SWIDTH 578 0
DWIDTH 14 0
BBX 14 16 0 0
BITMAP
07FFF900
2F400380
BFA8ABD0
FFFCBFE0
FFFCBFF0
FFFCBFF0
FFFCBFF0
FFFCBFF0
FFFCBFF0
FFFCBFF0
FFFDFFF0
FFFEBFF0
FFF87FE0
BFFDBFD0
2FFEFF80
06FFF900
ENDCHAR
STARTCHAR circumflex
ENCODING 710
SWIDTH 355 0
DWIDTH 9 0
BBX 9 9 0 0
BITMAP
019000
0FF800
2FBC00
3D7E00
7DAF00
B9CF40
FADF80
FFFF40
6AA900
ENDCHAR
STARTCHAR caron
ENCODING 711
SWIDTH 355 0
DWIDTH 9 0
BBX 9 8 0 0
BITMAP
2A6A00
FFFF40
F6DF80
F9DF40
BDAF40
7D3F00
3FFE00
1AA900
ENDCHAR
STARTCHAR breve
ENCODING 728
SWIDTH 428 0
DWIDTH 10 0
BBX 11 7 0 0
BITMAP
0AFE00
3FFFD0
BFFFF0
FEFBF4
FC53F4
BFABE0
2FFF80
ENDCHAR
STARTCHAR dotaccent
ENCODING 729
SWIDTH 428 0
DWIDTH 10 0
BBX 11 7 0 0
BITMAP
0AFE00
3FFFD0
BFFFF0
FF9FF4
FF5FF4
BFFFF0
6AAA90
ENDCHAR
STARTCHAR ring
ENCODING 730
SWIDTH 368 0
DWIDTH 9 0
BBX 9 8 0 0
BITMAP
015000
1FFD00
7EBF40
B94B80
F6DBC0
F94BC0
BEAF80
7FFF00
ENDCHAR
STARTCHAR ogonek
ENCODING 731
SWIDTH 101 0
DWIDTH 2 0
BBX 3 4 0 -4
BITMAP
60
C0
E4
64
ENDCHAR
STARTCHAR tilde
ENCODING 732
SWIDTH 428 0
DWIDTH 10 0
BBX 11 8 0 0
BITMAP
01A900
1FFF80
7FFFE0
FFFFF0
FFFAF4
F811F4
BAE7F0
3FFFD0
ENDCHAR
STARTCHAR hungarumlaut
ENCODING 733
SWIDTH 419 0
DWIDTH 10 0
BBX 10 9 0 0
BITMAP
005100
07FF80
0FFFD0
2F39E0
3EB7F0
BDEBD0
FBDF80
FFFE00
6AA900
ENDCHAR
STARTCHAR uni030F
ENCODING 783
SWIDTH 419 0
DWIDTH 10 0
BBX 10 9 0 0
BITMAP
041000
2FFD00
7FFF00
B6CF80
BDE7C0
3EB7E0
1F7DF0
0BFFF0
02AA90
ENDCHAR
STARTCHAR mu
ENCODING 956
SWIDTH 578 0
DWIDTH 14 0
BBX 14 16 0 0
BITMAP
07FFF900
2E3FF380
BE3FF3D0
FE3FF3E0
FE3FF3F0
FE3FF3F0
FE3FF3F0
FE3FF3F0
FE3FE3F0
FE1553F0
FE155BF0
FFBFFFF0
FFFFFFE0
BFFFFFD0
2FFFFF80
06FFF900
ENDCHAR
STARTCHAR pi
ENCODING 960
SWIDTH 578 0
DWIDTH 14 0
BBX 14 16 0 0
BITMAP
07FFF900
2F955F80
BD7AE7D0
F9D529E0
F7CF6EB0
E7DFAF70
EB851F70
E79F9F70
F79FDEB0
F9AFE9F0
FD7FE7F0
FF955FF0
FFFFFFE0
BFFFFFD0
2FFFFF80
06FFF900
ENDCHAR
STARTCHAR uni1E60
ENCODING 7776
SWIDTH 578 0
DWIDTH 14 0
BBX 14 22 0 0
BITMAP
006FE400
02FFFE00
07FFFF80
07FDBF80
07FDBF80
07FFFF40
07FFFF00
2F800B80
BF1AAFD0
FF2FFFE0
FF2FFFF0
FF401BF0
FFEA93F0
FFFFE3F0
FFFFE3F0
FF9557F0
FF955BF0
FFFFFFF0
FFFFFFE0
BFFFFFD0
2FFFFF80
06FFF900
ENDCHAR
STARTCHAR uni1E8E
ENCODING 7822
SWIDTH 578 0
DWIDTH 14 0
BBX 14 22 0 0
BITMAP
006FE400
02FFFE00
07FFFF40
0BF9FF80
0BF9FF80
07FFFF40
07FFFF00
2F1FD380
BF8FCBD0
FFCB8FE0
FFD75FF0
FFE23FF0
FFF47FF0
FFF8BFF0
FFFCFFF0
FFFCFFF0
FFFDFFF0
FFFFFFF0
FFFFFFE0
BFFFFFD0
2FFFFF80
06FFF900
ENDCHAR
STARTCHAR uni1E8F
ENCODING 7823
SWIDTH 578 0
DWIDTH 14 0
BBX 14 22 0 0
BITMAP
006FE400
02FFFE00
07FFFF40
0BF9FF80
0BF9FF80
07FFFF40
07FFFF00
2F1FD380
BF8FCBD0
FFCB8FE0
FFD75FF0
FFE23FF0
FFF47FF0
FFF8BFF0
FFFCFFF0
FFFCFFF0
FFFDFFF0
FFFFFFF0
FFFFFFE0
BFFFFFD0
2FFFFF80
06FFF900
ENDCHAR
STARTCHAR uni1EBC
ENCODING 7868
SWIDTH 578 0
DWIDTH 14 0
BBX 14 23 0 0
BITMAP
001A9000
01FFFD00
03FFFF00
07FFFF80
0BFFEF80
0BC14F80
07EEAF40
07FFFF00
2F800B80
BF8AAFD0
FF8FFFE0
FF8FFFF0
FF855FF0
FF8AAFF0
FF8FFFF0
FF8FFFF0
FF855BF0
FF955BF0
FFFFFFF0
FFFFFFE0
BFFFFFD0
2FFFFF80
06FFF900
ENDCHAR
STARTCHAR uni1EF8
ENCODING 7928
SWIDTH 578 0
DWIDTH 14 0
BBX 14 23 0 0
BITMAP
001A9000
01FFFD00
03FFFF00
07FFFF40
0BFFEF80
0BC14F80
07EEAF40
07FFFF00
2F1FD380
BF8FCBD0
FFCB8FE0
FFD75FF0
FFE23FF0
FFF47FF0
FFF8BFF0
FFFCFFF0
FFFCFFF0
FFFDFFF0
FFFFFFF0
FFFFFFE0
BFFFFFD0
2FFFFF80
06FFF900
ENDCHAR
STARTCHAR uni1EF9
ENCODING 7929
SWIDTH 578 0
DWIDTH 14 0
BBX 14 23 0 0
BITMAP
001A9000
01FFFD00
03FFFF00
07FFFF40
0BFFEF80
0BC14F80
07EEAF40
07FFFF00
2F1FD380
BF8FCBD0
FFCB8FE0
FFD75FF0
FFE23FF0
FFF47FF0
FFF8BFF0
FFFCFFF0
FFFCFFF0
FFFDFFF0
FFFFFFF0
FFFFFFE0
BFFFFFD0
2FFFFF80
06FFF900
ENDCHAR
STARTCHAR endash
ENCODING 8211
SWIDTH 428 0
DWIDTH 10 0
BBX 11 16 0 0
BITMAP
07FE00
2FFFD0
BFFFE0
FFFFF4
FC02F4
FEABF4
FFFFF4
FFFFF4
FFFFF4
FFFFF4
FFFFF4
FFFFF4
FFFFF4
BFFFE0
2FFFC0
06FE00
ENDCHAR
STARTCHAR emdash
ENCODING 8212
SWIDTH 428 0
DWIDTH 10 0
BBX 11 16 0 0
BITMAP
07FE00
2FFFD0
BFFFE0
FFFFF4
000000
AAAAA4
FFFFF4
FFFFF4
FFFFF4
FFFFF4
FFFFF4
FFFFF4
FFFFF4
BFFFE0
2FFFC0
06FE00
ENDCHAR
STARTCHAR quoteleft
ENCODING 8216
SWIDTH 428 0
DWIDTH 10 0
BBX 11 16 0 0
BITMAP
07FE00
2FDFD0
BF5FE0
FF4FF4
FFFFF4
FFFFF4
FFFFF4
FFFFF4
FFFFF4
FFFFF4
FFFFF4
FFFFF4
FFFFF4
BFFFE0
2FFFC0
06FE00
ENDCHAR
STARTCHAR quoteright
ENCODING 8217
SWIDTH 428 0
DWIDTH 10 0
BBX 11 16 0 0
BITMAP
07FE00
2F4FD0
BF8FE0
FFDFF4
FFFFF4
FFFFF4
FFFFF4
FFFFF4
FFFFF4
FFFFF4
FFFFF4
FFFFF4
FFFFF4
BFFFE0
2FFFC0
06FE00
ENDCHAR
STARTCHAR quotesinglbase
ENCODING 8218
SWIDTH 428 0
DWIDTH 10 0
BBX 11 16 0 0
BITMAP
07FE00
2FFFD0
BFFFE0
FFFFF4
FFFFF4
FFFFF4
FFFFF4
FFFFF4
FFFFF4
FF5FF4
FF8FF4
FFDFF4
FFFFF4
BFFFE0
2FFFC0
06FE00
ENDCHAR
STARTCHAR quotedblleft
ENCODING 8220
SWIDTH 428 0
DWIDTH 10 0
BBX 11 16 0 0
BITMAP
07FE00
2EA7D0
BD57E0
FD13F4
FFFFF4
FFFFF4
FFFFF4
FFFFF4
FFFFF4
FFFFF4
FFFFF4
FFFFF4
FFFFF4
BFFFE0
2FFFC0
06FE00
ENDCHAR
STARTCHAR quotedblright
ENCODING 8221
SWIDTH 428 0
DWIDTH 10 0
BBX 11 16 0 0
BITMAP
07FE00
2D12D0
BE22E0
FF77F4
FFFFF4
FFFFF4
FFFFF4
FFFFF4
FFFFF4
FFFFF4
FFFFF4
FFFFF4
FFFFF4
BFFFE0
2FFFC0
06FE00
ENDCHAR
STARTCHAR quotedblbase
ENCODING 8222
SWIDTH 428 0
DWIDTH 10 0
BBX 11 16 0 0
BITMAP
07FE00
2FFFD0
BFFFE0
FFFFF4
FFFFF4
FFFFF4
FFFFF4
FFFFF4
FFFFF4
FE56F4
FE22F4
FF73F4
FFFFF4
BFFFE0
2FFFC0
06FE00
ENDCHAR
STARTCHAR dagger
ENCODING 8224
SWIDTH 578 0
DWIDTH 14 0
BBX 14 16 0 0
BITMAP
07FFF900
2FFCBF80
BFFCBFD0
FFD01FE0
FFF8BFF0
FFFCBFF0
FFFCBFF0
FFFCBFF0
FFFCBFF0
FFFCBFF0
FFFDFFF0
FFFFFFF0
FFFFFFE0
BFFFFFD0
2FFFFF80
06FFF900
ENDCHAR
STARTCHAR daggerdbl
ENCODING 8225
SWIDTH 578 0
DWIDTH 14 0
BBX 14 16 0 0
BITMAP
07FFF900
2FFCBF80
BFFCBFD0
FFD01FE0
FFF8BFF0
FFFCBFF0
FFFCBFF0
FFF8AFF0
FFD01FF0
FFFCBFF0
FFFDFFF0
FFFFFFF0
FFFFFFE0
BFFFFFD0
2FFFFF80
06FFF900
ENDCHAR
STARTCHAR bullet
ENCODING 8226
SWIDTH 578 0
DWIDTH 14 0
BBX 14 16 0 0
BITMAP
07FFF900
2FFFFF80
BF901FD0
FF0007E0
FF0003F0
FE0003F0
FE0003F0
FE0003F0
FF0007F0
FF800BF0
FFFABFF0
FFFFFFF0
FFFFFFE0
BFFFFFD0
2FFFFF80
06FFF900
ENDCHAR
STARTCHAR ellipsis
ENCODING 8230
SWIDTH 578 0
DWIDTH 14 0
BBX 14 16 0 0
BITMAP
07FFF900
2FFFFF80
BFFFFFD0
FFFFFFE0
FFFFFFF0
FFFFFFF0
FFFFFFF0
FFFFFFF0
FFFFFFF0
FD76DBF0
FDB6DBF0
FFFFFFF0
FFFFFFE0
BFFFFFD0
2FFFFF80
06FFF900
ENDCHAR
STARTCHAR perthousand
ENCODING 8240
SWIDTH 640 0
DWIDTH 15 0
BBX 16 16 0 0
BITMAP
07FFFF80
2AFBFFF4
8072FFFC
CE63FFFD
C457FFFD
E6CBFFFD
FF8D6E59
FF584851
FF65C8A1
FF380D05
FFFFBFFD
FFFFFFFD
FFFFFFFD
BFFFFFFC
2FFFFFF4
06FFFF80
ENDCHAR
STARTCHAR guilsinglleft
ENCODING 8249
SWIDTH 578 0
DWIDTH 14 0
BBX 14 16 0 0
BITMAP
07FFF900
2FFFFF80
BFFF6FD0
FFFE7FE0
FFF8FFF0
FFF2FFF0
FFD7FFF0
FFE3FFF0
FFF9FFF0
FFFD7FF0
FFFF2FF0
FFFFFFF0
FFFFFFE0
BFFFFFD0
2FFFFF80
06FFF900
ENDCHAR
STARTCHAR guilsinglright
ENCODING 8250
SWIDTH 578 0
DWIDTH 14 0
BBX 14 16 0 0
BITMAP
07FFF900
2FFFFF80
BFE7FFD0
FFF2FFE0
FFF8FFF0
FFFD7FF0
FFFF2FF0
FFFE3FF0
FFFCBFF0
FFF6FFF0
FFE7FFF0
FFFFFFF0
FFFFFFE0
BFFFFFD0
2FFFFF80
06FFF900
ENDCHAR
STARTCHAR fraction
ENCODING 8260
SWIDTH 428 0
DWIDTH 10 0
BBX 11 16 0 0
BITMAP
07FE00
2FDBD0
BFCBE0
FFCFF4
FF8FF4
FF9FF4
FF5FF4
FF6FF4
FF2FF4
FF3FF4
FE7FF4
FFFFF4
FFFFF4
BFFFE0
2FFFC0
06FE00
ENDCHAR
STARTCHAR Euro
ENCODING 8364
SWIDTH 578 0
DWIDTH 14 0
BBX 14 16 0 0
BITMAP
07FFF900
2F401F80
BE2AAFD0
FE3FFFE0
F401FFF0
FE2BFFF0
F915FFF0
F92AFFF0
FE3FFFF0
FE155FF0
FF955FF0
FFFFFFF0
FFFFFFE0
BFFFFFD0
2FFFFF80
06FFF900
ENDCHAR
STARTCHAR trademark
ENCODING 8482
SWIDTH 578 0
DWIDTH 14 0
BBX 14 16 0 0
BITMAP
07FFF900
2FFFFF80
BFFFFFD0
FFFFFFE0
FFFFFFF0
FD15CBF0
FF744BF0
FF751BF0
FFBBAFF0
FFFFFFF0
FFFFFFF0
FFFFFFF0
FFFFFFE0
BFFFFFD0
2FFFFF80
06FFF900
ENDCHAR
STARTCHAR product
ENCODING 8719
SWIDTH 578 0
DWIDTH 14 0
BBX 14 16 0 0
BITMAP
07FFF900
2F955F80
BD7FE7D0
F9E569E0
F7DBCEB0
E7DBCF70
EBDA8F70
E7D56F70
F7DBFEB0
F9DBF9F0
FD7FE7F0
FF955FF0
FFFFFFE0
BFFFFFD0
2FFFFF80
06FFF900
ENDCHAR
STARTCHAR minus
ENCODING 8722
SWIDTH 428 0
DWIDTH 10 0
BBX 11 16 0 0
BITMAP
07FE00
2FFFD0
BFFFE0
FFFFF4
FC02F4
FEABF4
FFFFF4
FFFFF4
FFFFF4
FFFFF4
FFFFF4
FFFFF4
FFFFF4
BFFFE0
2FFFC0
06FE00
ENDCHAR
STARTCHAR notequal
ENCODING 8800
SWIDTH 578 0
DWIDTH 14 0
BBX 14 16 0 0
BITMAP
07FFF900
2FFFFF80
BFFE3FD0
FE545FE0
FE545FF0
FFA1AFF0
FE000BF0
FFD7FFF0
FFEFFFF0
FFFFFFF0
FFFFFFF0
FFFFFFF0
FFFFFFE0
BFFFFFD0
2FFFFF80
06FFF900
ENDCHAR
STARTCHAR uni2706
ENCODING 9990
SWIDTH 578 0
DWIDTH 14 0
BBX 14 16 0 0
BITMAP
07FFF900
2FFDBF80
BFF9AFD0
FFEA5FE0
FF8A5FF0
FF17EFF0
FF1FFFF0
FF4FFFF0
FF87FFF0
FFD16FF0
FFF44FF0
FFFE6FF0
FFFFFFE0
BFFFFFD0
2FFFFF80
06FFF900
ENDCHAR
STARTCHAR uni2708
ENCODING 9992
SWIDTH 578 0
DWIDTH 14 0
BBX 14 16 0 0
BITMAP
06555900
20198180
400B0010
40060010
42861810
40BAE010
401F8010
40060010
40060010
40060010
40010010
40000010
800A0020
400F4050
24050180
06555900
ENDCHAR
STARTCHAR uniF6D6
ENCODING 63190
SWIDTH 419 0
DWIDTH 10 0
BBX 10 9 0 0
BITMAP
041000
2FFD00
7FFF00
B6CF80
BDE7C0
3EB7E0
1F7DF0
0BFFF0
02AA90
ENDCHAR
STARTCHAR uFFFF2
ENCODING 1048562
SWIDTH 578 0
DWIDTH 14 0
BBX 14 16 0 0
BITMAP
06555900
20010180
40060010
40060010
400A0010
401F8010
40BAE010
42861810
40060010
400B0010
40158010
40000010
800A0020
400F4050
24050180
06555900
ENDCHAR
STARTCHAR uFFFF3
ENCODING 1048563
SWIDTH 578 0
DWIDTH 14 0
BBX 14 16 0 0
BITMAP
06555900
20020180
40038010
4013A010
40777010
401FD010
400B4010
401FD010
40777010
4013A010
40038010
40020010
80000020
40000050
24000180
06555900
ENDCHAR
STARTCHAR uFFFF4
ENCODING 1048564
SWIDTH 578 0
DWIDTH 14 0
BBX 14 16 0 0
BITMAP
07FFF900
2FFFFF80
BFFDFFD0
FFDDAFE0
FF6DDBF0
FE7DF7F0
FEBEF3F0
FE7FF3F0
FF6FDBF0
FFD52FF0
FFFAFFF0
FFFFFFF0
FFFFFFE0
BFFFFFD0
2FFFFF80
06FFF900
ENDCHAR
STARTCHAR uFFFF5
ENCODING 1048565
SWIDTH 578 0
DWIDTH 14 0
BBX 14 16 0 0
BITMAP
07FFF900
2FE67F80
BFF4FFD0
FFF9FFE0
FD79E7F0
FF451FF0
FFE07FF0
FFF9FFF0
FFF9FFF0
FFF9FFF0
FFFEFFF0
FFFFFFF0
FFF5FFE0
BFF0BFD0
2FFAFF80
06FFF900
ENDCHAR
STARTCHAR uFFFF6
ENCODING 1048566
SWIDTH 578 0
DWIDTH 14 0
BBX 14 16 0 0
BITMAP
07FFF900
2FFEFF80
BFF9FFD0
FFF9FFE0
FFF5FFF0
FFE07FF0
FF451FF0
FD7AE7F0
FFFAFFF0
FFF5FFF0
FFEA7FF0
FFFFFFF0
FFF5FFE0
BFF0BFD0
2FFAFF80
06FFF900
ENDCHAR
STARTCHAR uFFFF8
ENCODING 1048568
SWIDTH 578 0
DWIDTH 14 0
BBX 14 16 0 0
BITMAP
07FFF900
2FFFFF80
BFE0BFD0
FFD97FE0
FFD56FF0
FF555FF0
FF74DFF0
FE209BF0
FE000BF0
FF000BF0
FF801FF0
FFFABFF0
FFF5FFE0
BFF0FFD0
2FFAFF80
06FFF900
ENDCHAR
STARTCHAR uFFFF9
ENCODING 1048569
SWIDTH 578 0
DWIDTH 14 0
BBX 14 16 0 0
BITMAP
06555900
20000180
40020010
40225010
40922410
41820810
41410C10
41800C10
40902410
402AD010
40050010
40000010
80000020
40000050
24000180
06555900
ENDCHAR
STARTCHAR uFFFFB
ENCODING 1048571
SWIDTH 578 0
DWIDTH 14 0
BBX 14 16 0 0
BITMAP
07FFF900
2FFAFF80
BFF8BFD0
FF696FE0
FF852FF0
FFE0BFF0
FFE0FFF0
FF843FF0
FF695FF0
FFF87FF0
FFF9FFF0
FFFBFFF0
FFFFFFE0
BFFFFFD0
2FFFFF80
06FFF900
ENDCHAR
STARTCHAR uFFFFC
ENCODING 1048572
SWIDTH 578 0
DWIDTH 14 0
BBX 14 16 0 0
BITMAP
07FFF900
2FE5BF80
BE0547D0
F5AAB4E0
FA554AF0
FEA5A7F0
FF8A5FF0
FFF9FFF0
FFF4FFF0
FFFEFFF0
FFFFFFF0
FFFFFFF0
FFFFFFE0
BFFFFFD0
2FFFFF80
06FFF900
ENDCHAR
STARTCHAR uFFFFD
ENCODING 1048573
SWIDTH 578 0
DWIDTH 14 0
BBX 14 16 0 0
BITMAP
07FFF900
2FFAFF80
BF802FD0
FF000FE0
FE000BF0
FE104BF0
FF74DBF0
FF555FF0
FF852FF0
FFE57FF0
FFE57FF0
FFFAFFF0
FFF5FFE0
BFF0FFD0
2FFAFF80
06FFF900
ENDCHAR
STARTCHAR uFFFFE
ENCODING 1048574
SWIDTH 578 0
DWIDTH 14 0
BBX 14 16 0 0
BITMAP
07FFF900
2FFFFF80
B80601D0
F6F1BCE0
F6E5BCF0
F809BCF0
F6F1BCF0
F6F1BCF0
F80601F0
FFFFFFF0
FFFFFFF0
FFFFFFF0
FFFFFFE0
BFFFFFD0
2FFFFF80
06FFF900
ENDCHAR
STARTCHAR uFFFFF
ENCODING 1048575
SWIDTH 578 0
DWIDTH 14 0
BBX 14 16 0 0
BITMAP
06555900
20050180
407FD010
40FFF010
41FFF410
41EFB410
408B2410
40AAA010
407AD010
401A8010
401A8010
40050010
800A0020
400F0050
24050180
06555900
ENDCHAR
STARTCHAR .notdef
ENCODING -1
SWIDTH 1000 0
DWIDTH 24 0
BBX 1 1 0 0
BITMAP
00
ENDCHAR
STARTCHAR glyph1
ENCODING -1
SWIDTH 0 0
DWIDTH 0 0
BBX 1 1 0 0
BITMAP
00
ENDCHAR
ENDFONT
